<?xml version="1.0" encoding="UTF-8"?>
<!DOCTYPE svg PUBLIC "-//W3C//DTD SVG 1.1//EN" "http://www.w3.org/Graphics/SVG/1.1/DTD/svg11.dtd">
<!-- Creator: CorelDRAW -->
<svg xmlns="http://www.w3.org/2000/svg" xml:space="preserve" width="4.99999in" height="0.999992in" version="1.1" style="shape-rendering:geometricPrecision; text-rendering:geometricPrecision; image-rendering:optimizeQuality; fill-rule:evenodd; clip-rule:evenodd"
viewBox="0 0 4999.99 999.99"
 xmlns:xlink="http://www.w3.org/1999/xlink"
 xmlns:xodm="http://www.corel.com/coreldraw/odm/2003">
 <defs>
  <style type="text/css">
   <![CDATA[
    .fil0 {fill:#373435;fill-rule:nonzero}
   ]]>
  </style>
 </defs>
 <g id="Layer_x0020_1">
  <metadata id="CorelCorpID_0Corel-Layer"/>
  <g id="_2256958324368">
   <path class="fil0" d="M3050.85 769.8l117.88 0c98.64,0 136.3,-62.21 136.3,-139.57 0,-79.41 -40.52,-130.98 -136.3,-130.98l-117.88 0 0 6.14 36.43 0 0 258.27 -36.43 0 0 6.14zm118.7 -264.41c61.39,0 91.68,41.34 91.68,129.34 0,84.31 -30.29,128.93 -91.68,128.93l-42.16 0 0 -258.27 42.16 0z"/>
   <path id="_1" class="fil0" d="M3335.31 591.75l28.65 0 0 171.91 -28.65 0 0 6.14 97.41 0 0 -6.14 -32.74 0 0 -104.37c0,-12.69 4.91,-30.7 13.92,-45.43 7.78,-12.69 18.42,-22.51 29.88,-22.51 12.28,0 18.83,10.64 18.83,31.11 0,11.46 -2.04,26.19 -13.91,24.15l0 3.28c5.32,2.46 9.41,2.46 13.91,2.46 16.37,0 29.06,-12.28 29.06,-32.33 0,-22.92 -17.19,-37.25 -38.89,-37.25 -29.06,0 -45.43,24.97 -52.8,46.25l-0.82 0 0 -43.39 -63.85 0 0 6.14z"/>
   <path id="_2" class="fil0" d="M3513.36 678.11c0,67.12 32.74,94.55 83.09,94.55 12.28,0 20.46,-1.64 29.47,-4.91 22.92,-8.59 38.47,-27.01 38.47,-50.75l-6.55 0c0,30.29 -28.24,49.52 -57.71,49.52 -32.33,0 -48.7,-18.01 -48.7,-87.59l0 -6.14 117.06 0 0 -16.37c0,-50.76 -26.2,-73.68 -72.44,-73.68 -49.12,0 -82.68,25.79 -82.68,95.37zm38.48 -11.46c1.23,-51.57 13.51,-78.59 44.2,-78.59 29.06,0 36.83,23.74 36.83,62.21l0 16.37 -81.04 0z"/>
   <path id="_3" class="fil0" d="M3699.59 726.82c0,33.97 29.06,45.84 55.26,45.84 30.29,0 49.11,-17.6 57.3,-33.56l0.82 0c1.23,20.87 13.92,33.56 36.02,33.56 19.24,0 32.74,-12.28 32.74,-36.84l-6.14 0c0,14.74 -5.32,28.24 -19.24,28.24 -8.59,0 -11.05,-6.55 -11.05,-18.42l0 -106.83c0,-35.61 -20.06,-56.07 -69.58,-56.07 -42.98,0 -66.31,15.15 -66.31,37.66 0,16.37 12.69,26.6 31.11,26.6 8.59,0 15.96,-2.45 15.96,-2.45l0 -3.28c-13.5,2.87 -19.24,-8.59 -19.24,-22.1 0,-21.69 13.51,-31.11 38.48,-31.11 27.01,0 33.56,13.1 33.56,37.24l0 42.98 -4.09 0c-49.53,0 -105.6,14.33 -105.6,58.53zm38.88 0.82c0,-22.51 7.37,-36.43 20.87,-44.2 10.64,-6.14 24.97,-9 42.57,-9l7.37 0 0 52.39c0,9.41 -9,21.28 -20.46,29.47 -8.19,5.73 -17.6,9.41 -26.6,9.41 -15.15,0 -23.74,-11.05 -23.74,-38.06z"/>
   <path id="_4" class="fil0" d="M3891.55 769.8l90.46 0 0 -6.14 -25.38 0 0 -103.96c0,-21.28 14.74,-69.58 59.76,-69.58 22.1,0 29.06,10.64 29.06,41.34l0 132.2 -25.79 0 0 6.14 90.46 0 0 -6.14 -28.65 0 0 -105.6c0.82,-22.1 15.56,-67.94 59.76,-67.94 22.1,0 29.06,10.64 29.06,41.34l0 132.2 -25.78 0 0 6.14 90.45 0 0 -6.14 -28.65 0 0 -124.84c0,-38.88 -18.42,-56.07 -58.94,-56.07 -53.62,0 -65.9,45.84 -65.9,45.84l-0.82 0c-2.86,-31.52 -21.28,-45.84 -58.12,-45.84 -53.62,0 -65.9,45.84 -65.9,45.84l-0.82 0 0 -42.98 -67.94 0 0 6.14 32.74 0 0 171.91 -29.06 0 0 6.14z"/>
   <path id="_5" class="fil0" d="M4258.28 772.66l6.14 0c2.45,-7.78 6.96,-18.42 13.91,-20.46 11.46,11.46 29.47,20.46 51.98,20.46 40.11,0 64.67,-24.97 64.67,-57.71 0,-40.93 -36.43,-50.75 -69.17,-58.53 -26.2,-6.55 -49.52,-12.28 -49.52,-33.56 0,-23.33 21.69,-33.97 47.89,-33.97 38.48,0 54.44,25.37 54.44,46.25l0 6.55 6.55 0 0 -20.87c0,-13.1 1.23,-27.83 6.55,-38.07l-6.14 0c-2.86,6.14 -5.32,15.56 -14.73,17.6 -10.64,-11.05 -27.02,-17.6 -46.25,-17.6 -27.83,0 -64.26,12.69 -64.26,54.85 0,39.3 29.47,50.35 60.17,58.12 28.65,7.37 57.71,11.87 57.71,36.02 0,22.92 -21.69,34.79 -47.48,34.79 -38.06,0 -61.39,-26.19 -61.39,-47.48l0 -14.74 -6.55 0 0 30.29c0,13.1 -0.82,27.83 -4.5,38.07z"/>
   <path class="fil0" d="M1117.44 644.13c-52.39,79.67 -104.24,119.51 -155.53,119.51 -29.2,0 -61.87,-7.23 -98.03,-21.69 -36.15,-14.46 -69.92,-32.4 -101.3,-53.82 -31.38,-21.42 -59.89,-44.54 -85.54,-69.37 -25.65,-24.83 -44.07,-47.48 -55.26,-67.94 -14.74,-26.74 -16.78,-48.3 -6.14,-64.67 12.83,-19.65 42.02,-27.7 87.59,-24.15 28.11,2.19 58.87,6.89 92.3,14.12 33.43,7.23 68.69,16.65 105.8,28.24 37.11,11.6 71.08,22.92 101.91,33.97 30.83,11.05 65.89,24.08 105.19,39.09 5.73,2.18 11.39,2.18 16.98,0 5.59,-2.19 9.89,-6 12.89,-11.46 11.73,-22.65 23.33,-47.34 34.79,-74.08 35.74,-83.5 65.62,-168.9 89.63,-256.22 1.37,-4.91 4.64,-7.5 9.82,-7.78 5.19,-0.54 8.73,1.64 10.65,6.55 1.91,4.91 3.2,16.44 3.89,34.58 0.68,18.15 1.16,51.5 1.43,100.07 0.82,119.51 3.41,207.65 7.78,264.41 0.28,4.91 1.91,9.21 4.91,12.89 3,3.69 6.82,6.35 11.46,7.98 31.11,12.28 63.3,19.78 96.59,22.51 2.73,0 5.19,1.02 7.37,3.07 2.19,2.05 3.34,4.5 3.48,7.37 0.13,2.86 -0.82,5.39 -2.87,7.57 -2.05,2.18 -4.57,3.27 -7.57,3.27 -30.02,-1.36 -59.07,-7.37 -87.18,-18.01 -5.19,-1.64 -9.89,-0.61 -14.12,3.07 -4.23,3.69 -5.93,8.25 -5.11,13.71 4.64,27.01 10.23,41.75 16.78,44.2 2.73,1.09 4.78,2.93 6.14,5.52 1.36,2.59 1.57,5.25 0.61,7.98 -0.95,2.73 -2.73,4.78 -5.32,6.14 -2.59,1.36 -5.25,1.64 -7.98,0.82 -15.83,-5.19 -27.15,-32.74 -33.97,-82.68 -1.37,-9.28 -6.55,-15.55 -15.56,-18.83 -21.28,-7.91 -50.89,-19.24 -88.81,-33.97 -2.19,-0.54 -5.32,-1.3 -9.42,-2.25 -4.09,-0.95 -6.96,-1.57 -8.59,-1.84 -1.64,-0.28 -4.02,-0.61 -7.16,-1.02 -3.14,-0.41 -5.46,-0.41 -6.96,0 -1.5,0.41 -3.55,1.09 -6.14,2.04 -2.59,0.96 -4.78,2.32 -6.55,4.09 -1.78,1.78 -3.82,4.09 -6.14,6.96 -2.32,2.87 -4.57,6.21 -6.75,10.03zm-433.85 -161.67c-26.74,0 -43.39,5.05 -49.93,15.14 -6,9.28 -3.69,23.6 6.96,42.98 11.19,20.74 29.47,43.04 54.85,66.92 25.38,23.87 53.14,45.7 83.29,65.49 30.15,19.78 61.87,36.29 95.17,49.52 33.29,13.24 62.62,19.85 88,19.85 45.02,0 91.68,-37.93 139.98,-113.78 4.09,-6.28 4.98,-13.03 2.66,-20.26 -2.32,-7.23 -7.03,-12.21 -14.12,-14.94 -80.49,-30.83 -152.8,-55.94 -216.92,-75.31 -64.13,-19.37 -121.43,-30.97 -171.91,-34.79 -6.28,-0.54 -12.28,-0.81 -18.01,-0.81zm575.06 -156.76c-28.93,92.22 -65.76,181.18 -110.51,266.86l16.37 6.55c37.93,14.73 65.35,25.24 82.27,31.52 6.55,2.46 12.69,1.57 18.42,-2.66 5.73,-4.23 8.32,-9.89 7.78,-16.98 -3.27,-52.67 -5.32,-133.3 -6.14,-241.89 0,-18.83 -0.14,-32.61 -0.41,-41.34 0,-3 -0.48,-5.19 -1.43,-6.55 -0.95,-1.36 -2.05,-1.7 -3.27,-1.02 -1.23,0.68 -2.25,2.52 -3.07,5.52z"/>
   <path id="_1_0" class="fil0" d="M1745.3 662.13c3,0 5.52,1.09 7.57,3.28 2.05,2.18 3,4.77 2.87,7.78 -0.14,3 -1.3,5.46 -3.48,7.37 -14.19,13.65 -30.02,24.08 -47.48,31.31 -17.46,7.23 -35.13,11.12 -53.01,11.67 -17.87,0.55 -35.33,-0.89 -52.39,-4.3 -17.05,-3.41 -33.9,-8.67 -50.55,-15.76 -4.09,-1.64 -8.19,-1.5 -12.28,0.41 -4.09,1.91 -6.82,5.05 -8.19,9.41 -2.46,9.28 -6.14,18.01 -11.05,26.2 -4.91,9.28 -11.87,16.78 -20.87,22.51 -9,5.73 -18.83,8.73 -29.47,9 -3.82,0 -7.5,-0.28 -11.05,-0.82l-4.09 -1.64c-23.19,-12.55 -30.28,-46.25 -21.28,-101.1 4.91,-30.29 14.33,-64.46 28.24,-102.53 13.92,-38.07 29.81,-71.76 47.69,-101.1 17.87,-29.33 33.77,-45.09 47.69,-47.27 5.73,-1.64 11.26,-1.23 16.57,1.23 5.32,2.45 9.21,6.28 11.67,11.46 5.19,10.92 3.14,29.47 -6.14,55.67 -9.28,26.2 -21.96,53 -38.06,80.43 -16.1,27.42 -32.47,52.94 -49.11,76.54 -16.65,23.6 -29.61,39.63 -38.89,48.09 -0.27,0.28 -0.54,0.55 -0.82,0.82 -1.36,12.01 -1.23,24.01 0.41,36.02 1.37,9 6.21,15.14 14.53,18.42 8.32,3.28 16.03,2.19 23.13,-3.28 4.64,-3.82 8.59,-8.46 11.87,-13.91 5.46,-9.28 9,-19.24 10.64,-29.88 1.09,-9 -2.05,-15.82 -9.41,-20.46 -4.09,-2.73 -7.91,-5.46 -11.46,-8.19 -3.28,-2.46 -4.64,-5.8 -4.09,-10.03 0.55,-4.23 2.87,-7.03 6.96,-8.39 5.46,-2.46 11.12,-3 16.99,-1.64 5.87,1.37 10.71,4.37 14.53,9 2.73,3.55 4.78,7.5 6.14,11.87 15.83,9 32.27,16.17 49.32,21.49 17.06,5.32 34.93,8.73 53.62,10.23 18.69,1.5 37.25,-0.82 55.67,-6.96 18.42,-6.14 34.86,-16.17 49.32,-30.08 2.18,-1.91 4.77,-2.87 7.78,-2.87zm-187.87 -224.3c-7.09,1.09 -16.85,11.39 -29.26,30.9 -12.42,19.51 -25.24,44.89 -38.47,76.13 -13.24,31.24 -23.54,61.87 -30.91,91.89 -0.54,1.91 0.07,3.28 1.84,4.09 1.78,0.82 3.21,0.41 4.3,-1.23 19.92,-27.56 38.2,-56.07 54.85,-85.54 13.1,-22.92 23.26,-43.18 30.49,-60.78 7.23,-17.6 11.53,-30.36 12.89,-38.27 1.36,-7.91 1.36,-13.37 0,-16.37 -0.28,-0.82 -1.23,-1.23 -2.87,-1.23 -1.09,0 -2.05,0.13 -2.87,0.41z"/>
   <path id="_2_1" class="fil0" d="M2083.38 657.22c3,0 5.52,1.09 7.57,3.28 2.05,2.18 3.07,4.71 3.07,7.57 0,2.87 -1.09,5.39 -3.28,7.57 -26.47,25.65 -59.07,45.36 -97.82,59.14 -38.74,13.78 -74.22,20.67 -106.41,20.67 -15.55,0.82 -30.56,-2.05 -45.02,-8.59 -6.28,-3.55 -11.32,-7.5 -15.14,-11.87 -3.82,-4.37 -6.28,-9.07 -7.37,-14.12 -1.09,-5.05 -1.7,-9.62 -1.84,-13.71 -0.14,-4.09 0.75,-8.8 2.66,-14.12 1.91,-5.32 3.48,-9.41 4.71,-12.28 1.23,-2.87 2.93,-6.48 5.11,-10.85 0.82,-1.64 0.14,-2.59 -2.04,-2.87 -1.09,0 -2.59,0.55 -4.5,1.64 -15.01,8.19 -31.11,11.87 -48.3,11.05 -7.64,0.28 -15.15,-1.23 -22.51,-4.5 -2.73,0.82 -5.46,0.54 -8.19,-0.82 -4.37,-2.19 -6.28,-5.73 -5.73,-10.64 -4.09,-4.91 -6.96,-10.51 -8.59,-16.78 -3.28,-11.19 -3,-22.24 0.82,-33.15 3.82,-10.91 10.5,-19.92 20.06,-27.01 11.46,-6.82 20.46,-7.09 27.01,-0.82 9,8.46 6,29.61 -9,63.44 -0.55,1.37 -0.14,3.2 1.23,5.53 1.37,2.32 3,3.48 4.91,3.48 15.82,0 30.7,-3.96 44.61,-11.87 4.09,-2.45 7.37,-4.16 9.82,-5.11 2.46,-0.96 5.73,-1.37 9.83,-1.23 4.09,0.14 7.91,1.57 11.46,4.3 3.55,2.73 5.46,6.28 5.73,10.64 0.27,4.37 -0.2,8.12 -1.43,11.26 -1.23,3.14 -3.2,7.44 -5.93,12.89 -6.82,12.55 -10.17,22.58 -10.03,30.08 0.13,7.5 4.7,13.85 13.71,19.04 5.46,3.27 14.33,5.19 26.61,5.73 12.28,0.55 26.74,-0.54 43.38,-3.28 16.65,-2.73 33.83,-6.82 51.57,-12.28 17.74,-5.46 35.74,-13.3 54.03,-23.54 18.28,-10.23 34.11,-21.9 47.48,-35 2.18,-1.91 4.77,-2.87 7.78,-2.87zm-333.57 -19.24c4.91,-10.37 8.73,-21.15 11.46,-32.33 -10.1,8.73 -13.92,19.51 -11.46,32.33z"/>
   <path id="_3_2" class="fil0" d="M2358.02 648.63c3,0 5.59,1.09 7.77,3.28 2.19,2.18 3.28,4.78 3.28,7.78 0,3 -1.09,5.46 -3.28,7.37 -16.64,16.65 -35.13,30.36 -55.46,41.14 -20.33,10.78 -40.18,18.21 -59.55,22.3 -19.37,4.09 -37.72,6.07 -55.05,5.94 -17.33,-0.14 -32.81,-2.25 -46.46,-6.34 -1.91,-0.55 -3.41,0.13 -4.5,2.04 -3.55,8.19 -8.94,14.74 -16.17,19.65 -7.23,4.91 -15.35,7.5 -24.35,7.78 -9.01,0 -17.33,-2.19 -24.97,-6.55 -10.37,-4.91 -17.74,-12.55 -22.1,-22.92 -4.37,-10.37 -4.78,-21.01 -1.23,-31.93 3.55,-14.19 11.05,-27.15 22.51,-38.88 11.46,-11.73 22.24,-17.6 32.33,-17.6l0.41 0c3,0 5.52,1.09 7.57,3.27 2.05,2.19 3.07,4.71 3.07,7.57 0,2.86 -1.09,5.32 -3.28,7.37 -2.18,2.05 -4.78,3.07 -7.78,3.07 -4.37,0 -10.5,4.3 -18.42,12.89 -7.91,8.59 -13.24,17.8 -15.96,27.63 -2.18,6 -2.05,11.94 0.41,17.8 2.46,5.87 6.55,10.03 12.28,12.48 4.91,3.82 10.37,5.39 16.37,4.71 6,-0.69 10.92,-3.34 14.74,-7.98 5.46,-6 6.55,-10.23 3.28,-12.69 -7.64,-4.91 -12.42,-11.87 -14.33,-20.87 -1.91,-9.01 -0.41,-17.33 4.5,-24.97 10.64,-18.01 21.28,-23.88 31.93,-17.6 5.19,3 8.59,9 10.23,18.01 1.64,9 1.5,18.42 -0.41,28.24 -0.55,2.46 0,4.84 1.64,7.17 1.63,2.32 3.68,3.75 6.14,4.3 34.38,5.73 68.08,3.28 101.1,-7.37 33.02,-10.64 61.8,-28.24 86.36,-52.8 1.91,-2.19 4.37,-3.28 7.37,-3.28zm-223.89 49.52c1.09,-6.55 1.36,-13.23 0.82,-20.06 -1.09,1.91 -2.05,3.41 -2.87,4.5 -1.64,2.46 -2.32,5.19 -2.05,8.19 0.27,3 1.64,5.46 4.09,7.37z"/>
   <path id="_4_3" class="fil0" d="M2668.26 665.2c3,0.13 5.46,1.3 7.37,3.48 1.91,2.19 2.8,4.78 2.66,7.78 -0.14,3 -1.3,5.46 -3.48,7.37 -2.46,2.18 -5.66,4.98 -9.62,8.39 -3.96,3.41 -11.12,8.94 -21.49,16.58 -10.37,7.64 -20.87,14.59 -31.52,20.87 -10.64,6.28 -23.19,12.48 -37.65,18.62 -14.46,6.14 -28.38,10.44 -41.75,12.89 -13.37,2.45 -27.42,2.66 -42.16,0.61 -14.73,-2.05 -28.24,-7.03 -40.52,-14.94 -11.46,-7.37 -20.6,-16.92 -27.42,-28.65 -1.91,-3.28 -4.85,-5.05 -8.8,-5.32 -3.95,-0.27 -7.02,1.23 -9.21,4.5 -9.55,14.73 -19.98,27.15 -31.31,37.24 -11.32,10.1 -21.76,15.28 -31.31,15.56l-0.41 0c-4.91,-0.27 -9.48,-1.84 -13.71,-4.71 -4.23,-2.86 -7.3,-6.61 -9.21,-11.26 -8.19,-20.46 -6.96,-40.38 3.69,-59.76 9,-18.83 21.63,-34.86 37.85,-48.09 16.24,-13.23 34.59,-22.31 55.05,-27.22 4.09,-1.09 7.57,-0.14 10.44,2.87 2.87,3 3.69,6.48 2.46,10.44 -1.23,3.96 -3.89,6.48 -7.98,7.57 -17.19,4.09 -32.61,11.67 -46.25,22.72 -13.64,11.05 -24.28,24.63 -31.92,40.72 -7.64,13.1 -9,26.74 -4.09,40.93 1.63,2.73 2.86,4.09 3.68,4.09 4.64,3 13.65,-5.46 27.01,-25.38 13.37,-19.92 25.37,-41.48 36.02,-64.67 2.19,-4.91 6,-6.96 11.46,-6.14 5.19,0.82 8.19,3.82 9,9 0.28,1.36 0.61,3.2 1.02,5.52 0.41,2.32 1.57,6.55 3.48,12.69 1.91,6.14 4.09,11.94 6.55,17.4 2.46,5.46 6,11.26 10.64,17.39 4.64,6.14 9.69,10.98 15.15,14.53 10.37,6.82 22.04,10.91 35,12.28 12.96,1.36 25.37,0.68 37.24,-2.05 11.87,-2.73 24.35,-7.03 37.45,-12.89 13.1,-5.87 24.42,-11.8 33.97,-17.8 9.55,-6 18.96,-12.42 28.24,-19.24 9.28,-6.82 15.62,-11.67 19.03,-14.53 3.41,-2.87 5.94,-5.12 7.57,-6.76 2.18,-1.91 4.77,-2.8 7.78,-2.66z"/>
   <path id="_5_4" class="fil0" d="M3037.44 671.14c3,0 5.52,1.09 7.57,3.28 2.05,2.18 3.07,4.7 3.07,7.57 0,2.87 -1.09,5.39 -3.28,7.57 -12.55,12.28 -26.61,23.47 -42.16,33.56 -15.56,10.1 -30.9,18.21 -46.05,24.35 -15.14,6.14 -30.56,11.19 -46.25,15.15 -15.69,3.95 -29.81,5.87 -42.36,5.73 -12.55,-0.14 -23.87,-1.43 -33.97,-3.89 -14.73,-5.19 -27.49,-13.3 -38.27,-24.35 -10.78,-11.05 -18.48,-23.94 -23.13,-38.68 -0.82,-2.46 -2.52,-3.82 -5.11,-4.09 -2.59,-0.28 -4.57,0.68 -5.94,2.86 -32.74,46.39 -59.89,69.58 -81.45,69.58 -1.37,0 -2.73,-0.14 -4.09,-0.41 -6.55,-0.82 -12.35,-3.2 -17.39,-7.16 -5.05,-3.96 -8.67,-9.07 -10.85,-15.35 -4.09,-13.64 -4.16,-28.38 -0.2,-44.2 3.96,-15.83 9.48,-28.11 16.57,-36.83 19.37,-22.38 38.48,-30.83 57.3,-25.38 7.09,2.18 13.3,6.07 18.62,11.67 5.32,5.59 9.07,12.07 11.26,19.44 0.28,2.73 -0.48,5.32 -2.25,7.78 -1.77,2.46 -4.02,3.82 -6.75,4.09 -3,0.54 -5.66,-0.07 -7.98,-1.84 -2.32,-1.77 -3.75,-4.02 -4.3,-6.75 -3,-7.09 -8.32,-11.74 -15.96,-13.92 -9.55,-2.19 -20.74,4.09 -33.56,18.83 -12.28,18.28 -16.51,38.2 -12.69,59.76 1.64,5.46 5.32,8.32 11.05,8.59 6,0.82 15.21,-4.37 27.63,-15.56 12.42,-11.19 26.95,-29.06 43.59,-53.62 2.73,-4.09 5.46,-8.32 8.19,-12.69 3,-4.91 4.23,-10.23 3.68,-15.96 -1.09,-17.74 -0.82,-35.47 0.82,-53.21 2.46,-28.38 7.98,-56.21 16.58,-83.5 8.59,-27.29 19.65,-50.41 33.15,-69.38 13.5,-18.96 27.62,-29.4 42.36,-31.31 8.19,-1.37 14.46,1.5 18.83,8.59 5.73,9.28 4.91,27.49 -2.46,54.64 -7.37,27.15 -18.35,56.35 -32.95,87.59 -14.59,31.24 -30.49,61.46 -47.68,90.66 -3.55,6 -4.64,12.41 -3.28,19.24 7.91,38.2 25.65,61.67 53.2,70.4 8.19,1.91 17.53,2.93 28.04,3.07 10.51,0.14 22.79,-1.57 36.84,-5.12 14.05,-3.55 27.97,-8.05 41.75,-13.5 13.78,-5.46 28.04,-12.96 42.77,-22.51 14.74,-9.55 28.11,-20.19 40.11,-31.93 1.91,-1.91 4.37,-2.87 7.37,-2.87zm-253.35 -72.04c-0.54,7.37 0,11.05 1.64,11.05 1.09,0 2.46,-1.5 4.09,-4.5 40.65,-72.04 62.89,-125.38 66.71,-160.04 0.28,-3 -0.81,-5.19 -3.27,-6.55 -2.46,-1.37 -4.78,-1.23 -6.96,0.41 -13.64,9.82 -26.6,29.88 -38.88,60.17 -12.28,30.29 -20.06,63.44 -23.33,99.46z"/>
  </g>
 </g>
</svg>
