<?xml version="1.0" encoding="utf-8"?>
<!-- Generator: Adobe Illustrator 27.7.0, SVG Export Plug-In . SVG Version: 6.00 Build 0)  -->
<svg version="1.1" id="Layer_1" xmlns:xodm="http://www.corel.com/coreldraw/odm/2003"
	 xmlns="http://www.w3.org/2000/svg" xmlns:xlink="http://www.w3.org/1999/xlink" x="0px" y="0px" viewBox="0 0 512 512"
	 style="enable-background:new 0 0 512 512;" xml:space="preserve">
<style type="text/css">
	.st0{fill:#373435;}
	.st1{fill:#82B041;}
	.st2{fill:#221F20;}
	.st3{fill-rule:evenodd;clip-rule:evenodd;fill:#F8BF17;}
	.st4{fill-rule:evenodd;clip-rule:evenodd;fill:#82B041;}
	.st5{fill:#F8BF17;}
</style>
<g>
	<g>
		<polygon class="st1" points="203.1,39.1 212.1,57.2 232.3,60.2 217.7,74.4 221.1,94.4 203.1,84.9 185.2,94.4 188.7,74.4 
			174.2,60.2 194.1,57.2 		"/>
		<polygon class="st1" points="88.6,73.7 96.8,90.5 115.3,93.1 102,106.4 105.2,124.9 88.6,116.1 72,124.9 75.1,106.4 61.7,93.1 
			80.2,90.5 		"/>
		<polygon class="st1" points="29.2,155.5 36.1,169.7 51.8,172 40.4,183 43.2,198.7 29.2,191.2 15.2,198.7 17.8,183 6.4,172 
			22.1,169.7 		"/>
		<polygon class="st1" points="317.8,73.7 309.6,90.5 290.9,93.1 304.4,106.4 301.2,124.9 317.8,116.1 334.5,124.9 331.3,106.4 
			344.7,93.1 326.2,90.5 		"/>
		<polygon class="st1" points="377.2,155.5 370.3,169.7 354.6,172 365.8,183 363.2,198.7 377.2,191.2 391.3,198.7 388.6,183 
			400,172 384.3,169.7 		"/>
		<path class="st2" d="M193.2,394.1L86.2,347.8c-1.3-0.6-2.1-1.9-2.1-3.4V182.2c0-2.4,2.4-4.1,4.9-3.2L196,225.6
			c1.3,0.6,2.2,1.7,2.2,3.2v162.2C198.3,393.5,195.6,395.2,193.2,394.1L193.2,394.1z"/>
		<path class="st2" d="M198.3,219.8l-86.1-57.4c-1.1-0.7-2.6,0-2.6,1.5v16.3c0,0.6,0.4,1.3,1.1,1.5L198.3,219.8z"/>
		<path class="st2" d="M198.3,209.5l-62.8-59.8c-1.1-1.1-3-0.4-3,1.3v14.4c0,0.7,0.4,1.3,0.7,1.5L198.3,209.5z"/>
		<path class="st2" d="M213,394.1l107.2-46.3c1.3-0.6,2.1-1.9,2.1-3.4V182.2c0-2.4-2.6-4.1-4.9-3.2l-107.2,46.5
			c-1.1,0.6-2.1,1.7-2.1,3.2v162.2C208.2,393.5,210.8,395.2,213,394.1L213,394.1z"/>
		<path class="st2" d="M208.2,219.8l85.9-57.4c1.3-0.7,2.8,0,2.8,1.5v16.3c0,0.6-0.4,1.3-1.1,1.5L208.2,219.8z"/>
		<path class="st2" d="M208.2,209.5l62.8-59.8c1.1-1.1,3-0.4,3,1.3v14.4c0,0.7-0.4,1.3-0.9,1.5L208.2,209.5z"/>
		<path class="st3" d="M43.8,384.6c-45.4,47.1-1.5,83.5,50.8,87.6c103.5,8,242.3-64.6,321.3-112.7
			c-84.8,43.9-205.1,104.6-308.3,97.9C66.2,454.7,12,434.2,43.8,384.6L43.8,384.6z"/>
		<path class="st3" d="M95.2,345c-12.3,1.3-42,25-31,48.6c39.2,63.9,248.9,4.5,324.5-39.6c-68.6,30.3-277.6,91.5-308.8,27.1
			C73.5,368,78,353.6,95.2,345L95.2,345z"/>
		<path class="st4" d="M406.8,329.2c1.1,0.9,14.8,4.5,18.1,5.2c0.4,0.2,1.1,0.2,1.5,0.4l1.5,0.9c-16.1,4.9-7.3,4.5-26-6.2
			c-3-1.5-5-3-8.4-0.2l7.1,14c-3.2,0.7-6-0.2-9.7,1.1c0.2,0,0.4,0,0.6,0.2l2.6,1.1c1.1,0.4,2.1,0.6,3.2,0.7c3.9,1.3,0.9,2.6,6,2.8
			c5.4,0.2,10.6,0.2,16.3,0.2c12.3,0,20.9-2.4,32.7-4.5c1.7,2.8,1.7,3.4,4.9,3.2c2.1-0.2,4.3-0.6,5.6-1.7l-1.1-3.9
			c0,0-0.2-0.2-0.2-0.4c3.4-0.2,0.4-0.6,2.8,1.9c1.3,1.5,1.5,1.3,3.5,1.1c9.7-0.6,6-3.4,4.7-6.7c9.3-3.9,25.4-7.8,31.2-13.6
			c7.5-7.5-7.8-8-10.6-8.6c-6.4-1.1-13.8,1.7-18.7,3.4c-6.2,2.1-28,11-31.8,11.8c-4.7,0.7-21.1-2.2-27.1-3.4
			C412.8,327.7,408.7,327.1,406.8,329.2L406.8,329.2z"/>
		<polygon class="st5" points="318.6,396.6 321.8,394.7 319.6,397.7 322.2,401.1 318.6,398.5 315.3,400.5 317.5,397.5 315.1,394 		
			"/>
		<polygon class="st5" points="373.7,342 377.5,339.1 374.9,343.2 378.4,347.3 373.9,344.3 370.2,347.5 372.6,343.2 369.1,339.1 		
			"/>
		<path class="st3" d="M55.2,370.6c-57.5,83.9,128.5,94,248.9,29.5C187.3,447.8,21,451.2,55.2,370.6L55.2,370.6z"/>
		<polygon class="st5" points="424.7,360.5 428.5,357.6 426.2,361.7 429.6,365.8 425.1,362.8 421.4,365.8 423.8,361.7 420.3,357.6 
					"/>
		<polygon class="st5" points="393.7,360.4 397.7,357.2 395,361.7 398.8,366.2 394.1,362.8 390,366.2 392.6,361.7 388.9,357.2 		"/>
	</g>
</g>
</svg>
