<?xml version="1.0" encoding="UTF-8"?>
<svg id="Layer_1" data-name="Layer 1" xmlns="http://www.w3.org/2000/svg" viewBox="0 0 512 512">
  <defs>
    <style>
      .cls-1 {
        fill: #221f20;
      }

      .cls-2 {
        fill: #82b041;
      }
    </style>
  </defs>
  <polygon class="cls-2" points="255.87 30.3 267.31 53.29 292.97 57.11 274.42 75.14 278.74 100.55 255.87 88.48 233.13 100.55 237.58 75.14 219.16 57.11 244.44 53.29 255.87 30.3"/>
  <polygon class="cls-2" points="110.42 74.25 120.84 95.6 144.34 98.9 127.44 115.79 131.51 139.3 110.42 128.12 89.33 139.3 93.27 115.79 76.25 98.9 99.75 95.6 110.42 74.25"/>
  <polygon class="cls-2" points="34.96 178.17 43.73 196.21 63.67 199.13 49.19 213.1 52.75 233.05 34.96 223.52 17.18 233.05 20.48 213.1 6 199.13 25.94 196.21 34.96 178.17"/>
  <polygon class="cls-2" points="401.58 74.25 391.16 95.6 367.41 98.9 384.56 115.79 380.49 139.3 401.58 128.12 422.79 139.3 418.73 115.79 435.75 98.9 412.25 95.6 401.58 74.25"/>
  <polygon class="cls-2" points="477.04 178.17 468.27 196.21 448.33 199.13 462.55 213.1 459.25 233.05 477.04 223.52 494.95 233.05 491.52 213.1 506 199.13 486.06 196.21 477.04 178.17"/>
  <path class="cls-1" d="m243.3,481.27l-136.05-58.82c-1.65-.76-2.67-2.41-2.67-4.32v-206.05c0-3.05,3.05-5.21,6.22-4.07l136.05,59.07c1.65.76,2.79,2.16,2.79,4.07v206.05c.13,3.3-3.3,5.46-6.35,4.07h0Z"/>
  <path class="cls-1" d="m249.78,259.85l-109.38-72.92c-1.4-.89-3.3,0-3.3,1.91v20.71c0,.76.51,1.65,1.4,1.91l111.28,48.4Z"/>
  <path class="cls-1" d="m249.78,246.76l-79.78-75.97c-1.4-1.4-3.81-.51-3.81,1.65v18.29c0,.89.51,1.65.89,1.91l82.7,54.12Z"/>
  <path class="cls-1" d="m268.45,481.27l136.18-58.82c1.65-.76,2.67-2.41,2.67-4.32v-206.05c0-3.05-3.3-5.21-6.22-4.07l-136.18,59.07c-1.4.76-2.67,2.16-2.67,4.07v206.05c.13,3.3,3.43,5.46,6.22,4.07h0Z"/>
  <path class="cls-1" d="m262.35,259.85l109.12-72.92c1.65-.89,3.56,0,3.56,1.91v20.71c0,.76-.51,1.65-1.4,1.91l-111.28,48.4Z"/>
  <path class="cls-1" d="m262.35,246.76l79.78-75.97c1.4-1.4,3.81-.51,3.81,1.65v18.29c0,.89-.51,1.65-1.14,1.91l-82.44,54.12Z"/>
</svg>