<?xml version="1.0" encoding="UTF-8"?>
<svg id="Layer_1" data-name="Layer 1" xmlns="http://www.w3.org/2000/svg" viewBox="0 0 512 512">
  <defs>
    <style>
      .cls-1 {
        fill: #fff;
      }

      .cls-2, .cls-3 {
        fill: #f8bf17;
      }

      .cls-4, .cls-5 {
        fill: #82b041;
      }

      .cls-3, .cls-5 {
        fill-rule: evenodd;
      }
    </style>
  </defs>
  <g>
    <path class="cls-4" d="m100.6,420.9v5.6h-3.7v-5.7l-6.2-10.2h3.9l4.2,7.1,4.2-7.1h3.6l-6,10.3Z"/>
    <path class="cls-4" d="m106.1,418.6c0-4.7,3.7-8.2,8.7-8.2s8.7,3.5,8.7,8.2-3.7,8.2-8.7,8.2c-5,0-8.7-3.5-8.7-8.2Zm13.7,0c0-3-2.1-5.1-5-5.1s-5,2.1-5,5.1,2.1,5.1,5,5.1,5-2.1,5-5.1Z"/>
    <path class="cls-4" d="m125.4,419.5v-8.9h3.7v8.8c0,3,1.3,4.3,3.5,4.3s3.5-1.3,3.5-4.3v-8.8h3.6v8.9c0,4.7-2.7,7.3-7.2,7.3s-7.1-2.6-7.1-7.3Z"/>
    <path class="cls-4" d="m152.8,426.5l-3.1-4.4h-3.4v4.4h-3.7v-15.9h6.9c4.2,0,6.9,2.2,6.9,5.8,0,2.4-1.2,4.1-3.3,5l3.6,5.1h-3.9Zm-3.5-12.9h-3v5.6h3c2.2,0,3.4-1,3.4-2.8s-1.1-2.8-3.4-2.8Z"/>
    <path class="cls-4" d="m163.1,424.5l2-2.5c.9,1.2,1.8,1.8,3,1.8,1.5,0,2.2-.9,2.2-2.6v-7.6h-5.6v-3h9.2v10.4c0,3.9-2,5.9-5.7,5.9-2.1-.1-3.9-.9-5.1-2.4Z"/>
    <path class="cls-4" d="m177.1,418.6c0-4.7,3.7-8.2,8.7-8.2s8.7,3.5,8.7,8.2-3.7,8.2-8.7,8.2c-5,0-8.7-3.5-8.7-8.2Zm13.7,0c0-3-2.1-5.1-5-5.1s-5,2.1-5,5.1,2.1,5.1,5,5.1,5-2.1,5-5.1Z"/>
    <path class="cls-4" d="m196.4,419.5v-8.9h3.7v8.8c0,3,1.3,4.3,3.5,4.3s3.5-1.3,3.5-4.3v-8.8h3.6v8.9c0,4.7-2.7,7.3-7.2,7.3s-7.1-2.6-7.1-7.3Z"/>
    <path class="cls-4" d="m223.7,426.5l-3.1-4.4h-3.4v4.4h-3.7v-15.9h6.9c4.2,0,6.9,2.2,6.9,5.8,0,2.4-1.2,4.1-3.3,5l3.6,5.1h-3.9Zm-3.4-12.9h-3v5.6h3c2.2,0,3.4-1,3.4-2.8s-1.2-2.8-3.4-2.8Z"/>
    <path class="cls-4" d="m245.2,410.6v15.9h-3l-7.9-9.7v9.7h-3.6v-15.9h3l7.9,9.7v-9.7h3.6Z"/>
    <path class="cls-4" d="m261.4,423.6v3h-12.3v-15.9h12v3h-8.4v3.5h7.4v2.9h-7.4v3.7h8.7v-.2Z"/>
    <path class="cls-4" d="m270.9,420.9v5.6h-3.7v-5.7l-6.2-10.2h3.9l4.2,7.1,4.2-7.1h3.6l-6,10.3Z"/>
    <path class="cls-4" d="m280.8,424.5c0,.6-.1,1-.6,2.3l-1.3,3.3h-2.2l1-3.6c-.7-.3-1.2-1-1.2-1.9,0-1.3,1-2.2,2.2-2.2,1.2-.1,2.1.8,2.1,2.1Z"/>
    <path class="cls-4" d="m287.6,425l1.2-2.8c1.3,1,3.3,1.7,5.2,1.7,2.2,0,3.1-.7,3.1-1.7,0-3-9.2-.9-9.2-6.8,0-2.7,2.2-5,6.7-5,2,0,4,.5,5.5,1.4l-1.1,2.8c-1.5-.8-3-1.3-4.4-1.3-2.2,0-3,.8-3,1.8,0,2.9,9.2.9,9.2,6.8,0,2.7-2.2,4.9-6.7,4.9-2.5,0-5.1-.7-6.5-1.8Z"/>
    <path class="cls-4" d="m303.1,410.6h3.7v15.9h-3.7v-15.9Z"/>
    <path class="cls-4" d="m324.7,426.5v-9.6l-4.7,7.9h-1.7l-4.7-7.7v9.4h-3.5v-15.9h3l5.9,9.9,5.9-9.9h3v15.9h-3.2Z"/>
    <path class="cls-4" d="m345.3,416.4c0,3.5-2.7,5.8-6.9,5.8h-3.2v4.4h-3.7v-15.9h6.9c4.2-.1,6.9,2.1,6.9,5.7Zm-3.8,0c0-1.8-1.1-2.8-3.4-2.8h-3v5.5h3c2.3.1,3.4-1,3.4-2.7Z"/>
    <path class="cls-4" d="m347.1,410.6h3.7v12.9h8v3h-11.6v-15.9h-.1Z"/>
    <path class="cls-4" d="m361.3,410.6h3.7v15.9h-3.7v-15.9Z"/>
    <path class="cls-4" d="m372.1,413.6v4.2h7.4v3h-7.4v5.8h-3.7v-15.9h12v3h-8.3v-.1Z"/>
    <path class="cls-4" d="m382.6,410.6h3.7v15.9h-3.7v-15.9Z"/>
    <path class="cls-4" d="m402,423.6v3h-12.3v-15.9h12v3h-8.4v3.5h7.4v2.9h-7.4v3.7h8.7v-.2Z"/>
    <path class="cls-4" d="m405.3,410.6h7.2c5.2,0,8.8,3.1,8.8,8s-3.6,8-8.8,8h-7.2v-16Zm7,12.9c3.2,0,5.2-1.9,5.2-4.9s-2.1-4.9-5.2-4.9h-3.3v9.9h3.3v-.1Z"/>
  </g>
  <g>
    <g>
      <path class="cls-1" d="m326.7,380.3h4.7v-33.2h-4.7v-.8h15.1c12.3,0,17.5,6.6,17.5,16.8s-4.8,17.9-17.5,17.9h-15.1v-.7Zm9.8-33.2v33.2h5.4c7.9,0,11.8-5.7,11.8-16.6s-3.9-16.6-11.8-16.6h-5.4Z"/>
      <path class="cls-1" d="m362.9,357.4h8.2v5.6h.1c.9-2.7,3-5.9,6.8-5.9,2.8,0,5,1.8,5,4.8,0,2.6-1.6,4.2-3.7,4.2-.6,0-1.1,0-1.8-.3v-.4c1.5.3,1.8-1.6,1.8-3.1,0-2.6-.8-4-2.4-4-1.5,0-2.8,1.3-3.8,2.9-1.2,1.9-1.8,4.2-1.8,5.8v13.4h4.2v.8h-12.5v-.8h3.7v-22.1h-3.7v-.9h-.1Z"/>
      <path class="cls-1" d="m395.9,357c5.9,0,9.3,2.9,9.3,9.5v2.1h-15v.8c0,8.9,2.1,11.3,6.2,11.3,3.8,0,7.4-2.5,7.4-6.4h.8c0,3.1-2,5.4-4.9,6.5-1.2.4-2.2.6-3.8.6-6.5,0-10.7-3.5-10.7-12.2.1-8.8,4.4-12.2,10.7-12.2Zm4.7,10.8v-2.1c0-4.9-1-8-4.7-8-3.9,0-5.5,3.5-5.7,10.1h10.4Z"/>
      <path class="cls-1" d="m422.6,368h.5v-5.5c0-3.1-.8-4.8-4.3-4.8-3.2,0-4.9,1.2-4.9,4,0,1.7.7,3.2,2.5,2.8v.4s-.9.3-2,.3c-2.4,0-4-1.3-4-3.4,0-2.9,3-4.8,8.5-4.8,6.4,0,8.9,2.6,8.9,7.2v13.8c0,1.5.3,2.4,1.4,2.4,1.8,0,2.5-1.7,2.5-3.6h.8c0,3.2-1.7,4.7-4.2,4.7-2.8,0-4.5-1.6-4.6-4.3h-.1c-1,2.1-3.5,4.3-7.3,4.3-3.4,0-7.1-1.5-7.1-5.9-.1-5.7,7.1-7.6,13.4-7.6Zm-5.5,12.6c1.2,0,2.4-.5,3.4-1.2,1.5-1.1,2.6-2.6,2.6-3.8v-6.7h-.9c-2.3,0-4.1.4-5.5,1.2-1.7,1-2.7,2.8-2.7,5.7.1,3.4,1.2,4.8,3.1,4.8Z"/>
      <path class="cls-1" d="m434,380.3h3.7v-22.1h-4.2v-.8h8.7v5.5h.1s1.6-5.9,8.5-5.9c4.7,0,7.1,1.8,7.5,5.9h.1s1.6-5.9,8.5-5.9c5.2,0,7.6,2.2,7.6,7.2v16.1h3.7v.8h-11.6v-.8h3.3v-17c0-3.9-.9-5.3-3.7-5.3-5.7,0-7.6,5.9-7.7,8.7v13.6h3.7v.8h-11.6v-.8h3.3v-17c0-3.9-.9-5.3-3.7-5.3-5.8,0-7.7,6.2-7.7,8.9v13.4h3.3v.8h-11.8v-.8Z"/>
      <path class="cls-1" d="m481.1,376.6v-3.9h.8v1.9c0,2.7,3,6.1,7.9,6.1,3.3,0,6.1-1.5,6.1-4.5s-3.7-3.7-7.4-4.6c-3.9-1-7.7-2.4-7.7-7.5,0-5.4,4.7-7.1,8.2-7.1,2.5,0,4.6.8,5.9,2.3,1.2-.3,1.5-1.5,1.9-2.3h.8c-.7,1.3-.8,3.2-.8,4.9v2.7h-.8v-.8c0-2.7-2-5.9-7-5.9-3.4,0-6.1,1.4-6.1,4.4,0,2.7,3,3.5,6.4,4.3,4.2,1,8.9,2.3,8.9,7.5,0,4.2-3.1,7.4-8.3,7.4-2.9,0-5.2-1.2-6.7-2.6-.9.3-1.5,1.6-1.8,2.6h-.8c.4-1.3.5-3.2.5-4.9Z"/>
    </g>
    <g>
      <path class="cls-1" d="m79.1,365.2c-6.7,10.2-13.4,15.4-19.9,15.4-3.7,0-7.9-.9-12.6-2.8-4.6-1.9-9-4.2-13-6.9-4-2.8-7.7-5.7-11-8.9-3.3-3.2-5.7-6.1-7.1-8.7-1.9-3.4-2.2-6.2-.8-8.3,1.6-2.5,5.4-3.6,11.2-3.1,3.6.3,7.5.9,11.8,1.8s8.8,2.1,13.6,3.6,9.1,2.9,13.1,4.4c4,1.4,8.5,3.1,13.5,5,.7.3,1.5.3,2.2,0s1.3-.8,1.7-1.5c1.5-2.9,3-6.1,4.5-9.5,4.6-10.7,8.4-21.7,11.5-32.9.2-.6.6-1,1.3-1,.7-.1,1.1.2,1.4.8.2.6.4,2.1.5,4.4s.1,6.6.2,12.9c.1,15.4.4,26.7,1,34,0,.6.2,1.2.6,1.7s.9.8,1.5,1c4,1.6,8.1,2.5,12.4,2.9.3,0,.7.1.9.4.3.3.4.6.4.9,0,.4-.1.7-.4,1s-.6.4-1,.4c-3.9-.2-7.6-.9-11.2-2.3-.7-.2-1.3-.1-1.8.4s-.8,1.1-.7,1.8c.6,3.5,1.3,5.4,2.2,5.7.3.1.6.4.8.7.2.3.2.7.1,1-.1.4-.4.6-.7.8-.3.2-.7.2-1,.1-2-.7-3.5-4.2-4.4-10.6-.2-1.2-.8-2-2-2.4-2.7-1-6.5-2.5-11.4-4.4-.3-.1-.7-.2-1.2-.3-.5-.1-.9-.2-1.1-.2s-.5-.1-.9-.1c-.4-.1-.7-.1-.9,0-.2.1-.5.1-.8.3-.3.1-.6.3-.8.5-.2.2-.5.5-.8.9-.3.1-.6.6-.9,1.1Zm-55.6-20.8c-3.4,0-5.6.7-6.4,1.9-.8,1.2-.5,3,.9,5.5,1.4,2.7,3.8,5.5,7,8.6s6.8,5.9,10.7,8.4,7.9,4.7,12.2,6.4c4.3,1.7,8,2.6,11.3,2.6,5.8,0,11.8-4.9,18-14.6.5-.8.6-1.7.3-2.6-.3-.9-.9-1.6-1.8-1.9-10.3-4-19.6-7.2-27.8-9.7s-15.6-4-22-4.5c-.9-.1-1.7-.1-2.4-.1Zm73.7-20.2c-3.7,11.9-8.4,23.3-14.2,34.3l2.1.8c4.9,1.9,8.4,3.2,10.6,4.1.8.3,1.6.2,2.4-.3s1.1-1.3,1-2.2c-.4-6.8-.7-17.1-.8-31.1,0-2.4,0-4.2-.1-5.3,0-.4-.1-.7-.2-.8-.1-.2-.3-.2-.4-.1-.1,0-.3.2-.4.6Z"/>
      <path class="cls-1" d="m159.5,367.5c.4,0,.7.1,1,.4s.4.6.4,1-.2.7-.4.9c-1.8,1.8-3.9,3.1-6.1,4-2.2.9-4.5,1.4-6.8,1.5s-4.5-.1-6.7-.6c-2.2-.4-4.3-1.1-6.5-2-.5-.2-1-.2-1.6.1-.5.2-.9.7-1,1.2-.3,1.2-.8,2.3-1.4,3.4-.6,1.2-1.5,2.2-2.7,2.9-1.2.7-2.4,1.1-3.8,1.2-.5,0-1,0-1.4-.1l-.5-.2c-3-1.6-3.9-5.9-2.7-13,.6-3.9,1.8-8.3,3.6-13.2s3.8-9.2,6.1-13,4.3-5.8,6.1-6.1c.7-.2,1.4-.2,2.1.2.7.3,1.2.8,1.5,1.5.7,1.4.4,3.8-.8,7.2-1.2,3.4-2.8,6.8-4.9,10.3-2.1,3.5-4.2,6.8-6.3,9.8-2.1,3-3.8,5.1-5,6.2l-.1.1c-.2,1.5-.2,3.1.1,4.6.2,1.2.8,1.9,1.9,2.4,1.1.4,2.1.3,3-.4.6-.5,1.1-1.1,1.5-1.8.7-1.2,1.2-2.5,1.4-3.8.1-1.2-.3-2-1.2-2.6-.5-.4-1-.7-1.5-1.1-.4-.3-.6-.7-.5-1.3.1-.5.4-.9.9-1.1.7-.3,1.4-.4,2.2-.2.8.2,1.4.6,1.9,1.2.3.5.6,1,.8,1.5,2,1.2,4.1,2.1,6.3,2.8,2.2.7,4.5,1.1,6.9,1.3,2.4.2,4.8-.1,7.1-.9,2.4-.8,4.5-2.1,6.3-3.9.1-.3.4-.4.8-.4Zm-24.1-28.9c-.9.1-2.2,1.5-3.8,4s-3.2,5.8-4.9,9.8c-1.7,4-3,8-4,11.8-.1.2,0,.4.2.5s.4.1.6-.2c2.6-3.5,4.9-7.2,7-11,1.7-2.9,3-5.6,3.9-7.8.9-2.3,1.5-3.9,1.7-4.9s.2-1.7,0-2.1c0-.1-.2-.2-.4-.2,0,.1-.2.1-.3.1Z"/>
      <path class="cls-1" d="m203.2,366.8c.4,0,.7.1,1,.4s.4.6.4,1-.1.7-.4,1c-3.4,3.3-7.6,5.8-12.5,7.6-5,1.8-9.5,2.7-13.6,2.7-2,.1-3.9-.3-5.8-1.1-.8-.5-1.5-1-1.9-1.5-.5-.6-.8-1.2-.9-1.8-.1-.6-.2-1.2-.2-1.8,0-.5.1-1.1.3-1.8.2-.7.4-1.2.6-1.6l.7-1.4c.1-.2,0-.3-.3-.4-.1,0-.3.1-.6.2-1.9,1.1-4,1.5-6.2,1.4-1,0-1.9-.2-2.9-.6-.4.1-.7.1-1-.1-.6-.3-.8-.7-.7-1.4-.5-.6-.9-1.3-1.1-2.2-.4-1.4-.4-2.9.1-4.3s1.3-2.6,2.6-3.5c1.5-.9,2.6-.9,3.5-.1,1.2,1.1.8,3.8-1.2,8.2-.1.2,0,.4.2.7.2.3.4.4.6.4,2,0,3.9-.5,5.7-1.5.5-.3.9-.5,1.3-.7.3-.1.7-.2,1.3-.2s1,.2,1.5.6.7.8.7,1.4,0,1-.2,1.4-.4,1-.8,1.7c-.9,1.6-1.3,2.9-1.3,3.9s.6,1.8,1.8,2.4c.7.4,1.8.7,3.4.7,1.6.1,3.4-.1,5.6-.4,2.1-.4,4.3-.9,6.6-1.6s4.6-1.7,6.9-3c2.3-1.3,4.4-2.8,6.1-4.5,0,0,.3-.2.7-.2Zm-42.8-2.4c.6-1.3,1.1-2.7,1.5-4.2-1.3,1.1-1.8,2.5-1.5,4.2Z"/>
      <path class="cls-1" d="m238.8,365.7c.4,0,.7.1,1,.4s.4.6.4,1-.1.7-.4.9c-2.1,2.1-4.5,3.9-7.1,5.3s-5.2,2.3-7.6,2.9c-2.5.5-4.8.8-7.1.8s-4.2-.3-6-.8c-.2-.1-.4,0-.6.3-.5,1.1-1.1,1.9-2.1,2.5-.9.6-2,1-3.1,1-1.2,0-2.2-.3-3.2-.8-1.3-.6-2.3-1.6-2.8-2.9-.6-1.3-.6-2.7-.2-4.1.5-1.8,1.4-3.5,2.9-5s2.9-2.3,4.1-2.3h.1c.4,0,.7.1,1,.4s.4.6.4,1-.1.7-.4.9c-.3.3-.6.4-1,.4-.6,0-1.3.6-2.4,1.7-1,1.1-1.7,2.3-2,3.6-.3.8-.3,1.5.1,2.3.3.8.8,1.3,1.6,1.6.6.5,1.3.7,2.1.6s1.4-.4,1.9-1c.7-.8.8-1.3.4-1.6-1-.6-1.6-1.5-1.8-2.7s-.1-2.2.6-3.2c1.4-2.3,2.7-3.1,4.1-2.3.7.4,1.1,1.2,1.3,2.3s.2,2.4-.1,3.6c-.1.3,0,.6.2.9s.5.5.8.6c4.4.7,8.7.4,13-.9,4.2-1.4,7.9-3.6,11.1-6.8.1-.4.4-.6.8-.6Zm-28.7,6.4c.1-.8.2-1.7.1-2.6-.1.2-.3.4-.4.6-.2.3-.3.7-.3,1.1.1.3.3.7.6.9Z"/>
      <path class="cls-1" d="m278.5,367.9c.4,0,.7.2.9.4.2.3.4.6.3,1,0,.4-.2.7-.4.9-.3.3-.7.6-1.2,1.1-.5.4-1.4,1.1-2.8,2.1-1.3,1-2.7,1.9-4,2.7-1.4.8-3,1.6-4.8,2.4-1.9.8-3.6,1.3-5.4,1.7-1.7.3-3.5.3-5.4.1-1.9-.3-3.6-.9-5.2-1.9-1.5-.9-2.6-2.2-3.5-3.7-.2-.4-.6-.6-1.1-.7-.5,0-.9.2-1.2.6-1.2,1.9-2.6,3.5-4,4.8-1.5,1.3-2.8,2-4,2h-.1c-.6,0-1.2-.2-1.8-.6-.5-.4-.9-.9-1.2-1.4-1-2.6-.9-5.2.5-7.7,1.2-2.4,2.8-4.5,4.9-6.2,2.1-1.7,4.4-2.9,7.1-3.5.5-.1,1,0,1.3.4.4.4.5.8.3,1.3s-.5.8-1,1c-2.2.5-4.2,1.5-5.9,2.9-1.8,1.4-3.1,3.2-4.1,5.2-1,1.7-1.2,3.4-.5,5.3.2.4.4.5.5.5.6.4,1.7-.7,3.5-3.3,1.7-2.6,3.3-5.3,4.6-8.3.3-.6.8-.9,1.5-.8s1,.5,1.2,1.2c0,.2.1.4.1.7.1.3.2.8.4,1.6.2.8.5,1.5.8,2.2s.8,1.4,1.4,2.2c.6.8,1.2,1.4,1.9,1.9,1.3.9,2.8,1.4,4.5,1.6,1.7.2,3.3.1,4.8-.3s3.1-.9,4.8-1.7c1.7-.8,3.1-1.5,4.4-2.3,1.2-.8,2.4-1.6,3.6-2.5s2-1.5,2.4-1.9.8-.7,1-.9c.2,0,.5-.2.9-.1Z"/>
      <path class="cls-1" d="m325.4,368.6c.4,0,.7.1,1,.4s.4.6.4,1-.1.7-.4,1c-1.6,1.6-3.4,3-5.4,4.3s-4,2.3-5.9,3.1c-1.9.8-3.9,1.4-5.9,1.9s-3.8.8-5.4.7c-1.6,0-3.1-.2-4.4-.5-1.9-.7-3.5-1.7-4.9-3.1s-2.4-3.1-3-5c-.1-.3-.3-.5-.7-.5-.3,0-.6.1-.8.4-4.2,6-7.7,8.9-10.4,8.9-.2,0-.4,0-.5-.1-.8-.1-1.6-.4-2.2-.9s-1.1-1.2-1.4-2c-.5-1.8-.5-3.6,0-5.7.5-2,1.2-3.6,2.1-4.7,2.5-2.9,4.9-4,7.3-3.3.9.3,1.7.8,2.4,1.5.7.7,1.2,1.6,1.4,2.5,0,.4-.1.7-.3,1-.2.3-.5.5-.9.5-.4.1-.7,0-1-.2s-.5-.5-.6-.9c-.4-.9-1.1-1.5-2-1.8-1.2-.3-2.7.5-4.3,2.4-1.6,2.4-2.1,4.9-1.6,7.7.2.7.7,1.1,1.4,1.1.8.1,2-.6,3.5-2,1.6-1.4,3.5-3.7,5.6-6.9.3-.5.7-1.1,1-1.6.4-.6.5-1.3.5-2.1-.1-2.3-.1-4.6.1-6.8.3-3.6,1-7.2,2.1-10.7s2.5-6.5,4.3-8.9c1.7-2.4,3.5-3.8,5.4-4,1-.2,1.9.2,2.4,1.1.7,1.2.6,3.5-.3,7s-2.4,7.2-4.2,11.3c-1.9,4-3.9,7.9-6.1,11.7-.5.8-.6,1.6-.4,2.5,1,4.9,3.3,7.9,6.8,9.1,1,.2,2.2.4,3.6.4,1.3,0,2.9-.2,4.7-.7,1.8-.5,3.6-1,5.4-1.7s3.6-1.7,5.5-2.9c1.9-1.2,3.6-2.6,5.1-4.1.3-.2.6-.4,1-.4Zm-32.5-9.2c-.1.9,0,1.4.2,1.4.1,0,.3-.2.5-.6,5.2-9.3,8.1-16.1,8.6-20.6,0-.4-.1-.7-.4-.8-.3-.2-.6-.2-.9.1-1.8,1.3-3.4,3.8-5,7.7s-2.6,8.1-3,12.8Z"/>
    </g>
  </g>
  <g>
    <polygon class="cls-4" points="173.8 81.9 179.3 93 191.6 94.8 182.7 103.5 184.8 115.6 173.8 109.8 162.9 115.6 165.1 103.5 156.2 94.8 168.4 93 173.8 81.9"/>
    <polygon class="cls-4" points="104.1 103 109.1 113.2 120.4 114.8 112.3 122.9 114.2 134.2 104.1 128.8 94 134.2 95.9 122.9 87.7 114.8 99 113.2 104.1 103"/>
    <polygon class="cls-4" points="67.9 152.8 72.1 161.5 81.7 162.8 74.7 169.6 76.5 179.1 67.9 174.6 59.4 179.1 61 169.6 54 162.8 63.6 161.5 67.9 152.8"/>
    <polygon class="cls-4" points="243.7 103 238.7 113.2 227.3 114.8 235.5 122.9 233.6 134.2 243.7 128.8 253.8 134.2 251.9 122.9 260.1 114.8 248.8 113.2 243.7 103"/>
    <polygon class="cls-4" points="279.9 152.8 275.7 161.5 266.1 162.8 272.9 169.6 271.3 179.1 279.9 174.6 288.4 179.1 286.8 169.6 293.8 162.8 284.2 161.5 279.9 152.8"/>
    <path class="cls-1" d="m167.8,298.1l-65.2-28.2c-.8-.3-1.3-1.1-1.3-2v-98.8c0-1.5,1.5-2.5,3-1.9l65.2,28.3c.8.3,1.4,1,1.4,1.9v98.8c0,1.6-1.6,2.6-3.1,1.9h0Z"/>
    <path class="cls-1" d="m170.9,192l-52.5-35c-.7-.5-1.6,0-1.6.9v9.9c0,.3.2.8.7.9l53.4,23.3Z"/>
    <path class="cls-1" d="m170.9,185.7l-38.2-36.4c-.7-.7-1.8-.2-1.8.8v8.8c0,.5.2.8.5.9l39.5,25.9Z"/>
    <path class="cls-1" d="m179.9,298.1l65.3-28.2c.8-.3,1.3-1.1,1.3-2v-98.8c0-1.5-1.6-2.5-3-1.9l-65.3,28.3c-.7.3-1.3,1-1.3,1.9v98.8c0,1.6,1.6,2.6,3,1.9h0Z"/>
    <path class="cls-1" d="m176.9,192l52.3-34.9c.8-.5,1.7,0,1.7.9v9.9c0,.3-.2.8-.7.9l-53.3,23.2Z"/>
    <path class="cls-1" d="m176.9,185.7l38.2-36.4c.7-.7,1.8-.2,1.8.8v8.8c0,.5-.2.8-.6.9l-39.4,25.9Z"/>
    <path class="cls-3" d="m208.1,236.5c-27.6,28.7-.9,50.9,30.9,53.4,63,4.9,147.6-39.4,195.7-68.6-51.7,26.7-124.9,63.7-187.7,59.6-25.3-1.8-58.3-14.3-38.9-44.4h0Z"/>
    <path class="cls-3" d="m239.4,212.3c-7.5.8-25.6,15.2-18.9,29.6,23.9,38.9,151.5,2.7,197.6-24.1-41.7,18.4-169.1,55.7-188.1,16.5-3.8-8-1.1-16.7,9.4-22h0Z"/>
    <path class="cls-5" d="m429.2,202.7c.7.6,9,2.7,11,3.2.2.1.7.1.9.2l.9.6c-9.8,3-4.4,2.7-15.8-3.8-1.8-.9-3.1-1.8-5.1-.1l4.3,8.5c-1.9.5-3.6-.1-5.9.7.1,0,.2,0,.3.1l1.6.7c.7.2,1.3.3,1.9.5,2.4.8.6,1.6,3.6,1.7,3.3.1,6.5.1,9.9.1,7.5,0,12.7-1.5,19.9-2.7,1,1.7,1,2,3,1.9,1.3-.1,2.6-.3,3.4-1l-.7-2.4s-.1-.1-.1-.2c2-.1.2-.3,1.7,1.1.8.9.9.8,2.2.7,5.9-.3,3.6-2,2.8-4.1,5.7-2.4,15.5-4.8,19-8.3,4.6-4.6-4.8-4.9-6.5-5.2-3.9-.7-8.4,1-11.4,2-3.8,1.3-17.1,6.7-19.3,7.2-2.8.5-12.9-1.4-16.5-2-1.5-.3-4-.7-5.1.6h0Z"/>
    <polygon class="cls-2" points="375.5 243.7 377.4 242.6 376 244.4 377.6 246.5 375.5 244.9 373.4 246.1 374.8 244.3 373.3 242.1 375.5 243.7"/>
    <polygon class="cls-2" points="409 210.5 411.3 208.7 409.7 211.2 411.9 213.7 409.1 211.9 406.9 213.8 408.3 211.2 406.2 208.7 409 210.5"/>
    <path class="cls-3" d="m215,227.9c-35,51.1,78.3,57.2,151.5,18-71,29-172.3,31.1-151.5-18h0Z"/>
    <polygon class="cls-2" points="440.1 221.8 442.4 220 441 222.5 443 225 440.3 223.1 438 225 439.5 222.5 437.3 220 440.1 221.8"/>
    <polygon class="cls-2" points="421.2 221.7 423.6 219.7 422 222.5 424.3 225.2 421.4 223.1 418.9 225.2 420.5 222.5 418.2 219.7 421.2 221.7"/>
  </g>
</svg>