<?xml version="1.0" encoding="UTF-8"?>
<svg id="Layer_1" data-name="Layer 1" xmlns="http://www.w3.org/2000/svg" viewBox="0 0 512 512">
  <defs>
    <style>
      .cls-1 {
        fill: #221f20;
      }

      .cls-2, .cls-3 {
        fill: #f8bf17;
      }

      .cls-4, .cls-5 {
        fill: #82b041;
      }

      .cls-3, .cls-5 {
        fill-rule: evenodd;
      }
    </style>
  </defs>
  <g>
    <path class="cls-4" d="m100.55,420.91v5.64h-3.68v-5.69l-6.15-10.24h3.91l4.25,7.08,4.25-7.08h3.61l-6.18,10.28Z"/>
    <path class="cls-4" d="m106.13,418.59c0-4.73,3.68-8.24,8.7-8.24s8.7,3.48,8.7,8.24-3.7,8.24-8.7,8.24-8.7-3.5-8.7-8.24Zm13.67,0c0-3.03-2.13-5.1-4.97-5.1s-4.97,2.07-4.97,5.1,2.13,5.1,4.97,5.1,4.97-2.07,4.97-5.1Z"/>
    <path class="cls-4" d="m125.45,419.54v-8.92h3.68v8.78c0,3.03,1.32,4.28,3.54,4.28s3.54-1.25,3.54-4.28v-8.78h3.63v8.92c0,4.69-2.68,7.28-7.2,7.28s-7.2-2.59-7.2-7.28Z"/>
    <path class="cls-4" d="m152.76,426.55l-3.07-4.44h-3.38v4.44h-3.68v-15.93h6.88c4.25,0,6.9,2.21,6.9,5.78,0,2.39-1.2,4.14-3.27,5.03l3.56,5.12h-3.95Zm-3.45-12.92h-3v5.55h3c2.25,0,3.38-1.05,3.38-2.78s-1.14-2.78-3.38-2.78Z"/>
    <path class="cls-4" d="m163.11,424.5l2.04-2.46c.86,1.16,1.82,1.75,2.95,1.75,1.48,0,2.25-.89,2.25-2.64v-7.58h-5.58v-2.96h9.24v10.33c0,3.94-1.98,5.87-5.72,5.87-2.13,0-4.02-.82-5.18-2.32Z"/>
    <path class="cls-4" d="m177.11,418.59c0-4.73,3.68-8.24,8.7-8.24s8.7,3.48,8.7,8.24-3.7,8.24-8.7,8.24-8.7-3.5-8.7-8.24Zm13.67,0c0-3.03-2.13-5.1-4.97-5.1s-4.97,2.07-4.97,5.1,2.13,5.1,4.97,5.1,4.97-2.07,4.97-5.1Z"/>
    <path class="cls-4" d="m196.43,419.54v-8.92h3.68v8.78c0,3.03,1.32,4.28,3.54,4.28s3.54-1.25,3.54-4.28v-8.78h3.63v8.92c0,4.69-2.68,7.28-7.2,7.28s-7.2-2.59-7.2-7.28Z"/>
    <path class="cls-4" d="m223.74,426.55l-3.06-4.44h-3.38v4.44h-3.68v-15.93h6.88c4.25,0,6.9,2.21,6.9,5.78,0,2.39-1.2,4.14-3.27,5.03l3.56,5.12h-3.95Zm-3.45-12.92h-3v5.55h3c2.25,0,3.38-1.05,3.38-2.78s-1.14-2.78-3.38-2.78Z"/>
    <path class="cls-4" d="m245.21,410.62v15.93h-3.02l-7.92-9.67v9.67h-3.63v-15.93h3.04l7.9,9.67v-9.67h3.63Z"/>
    <path class="cls-4" d="m261.37,423.59v2.96h-12.31v-15.93h12.01v2.96h-8.36v3.46h7.38v2.87h-7.38v3.69h8.65Z"/>
    <path class="cls-4" d="m270.9,420.91v5.64h-3.68v-5.69l-6.15-10.24h3.91l4.25,7.08,4.25-7.08h3.61l-6.18,10.28Z"/>
    <path class="cls-4" d="m280.77,424.5c0,.59-.09,1.02-.61,2.28l-1.29,3.28h-2.25l1-3.62c-.75-.3-1.23-1-1.23-1.93,0-1.32.95-2.18,2.2-2.18s2.18.89,2.18,2.18Z"/>
    <path class="cls-4" d="m287.63,424.98l1.25-2.78c1.34.98,3.34,1.66,5.25,1.66,2.18,0,3.07-.73,3.07-1.71,0-2.98-9.24-.93-9.24-6.85,0-2.71,2.18-4.96,6.7-4.96,2,0,4.04.48,5.52,1.41l-1.14,2.8c-1.48-.84-3-1.25-4.4-1.25-2.18,0-3.02.82-3.02,1.82,0,2.93,9.24.91,9.24,6.76,0,2.66-2.2,4.94-6.74,4.94-2.52,0-5.06-.75-6.47-1.84Z"/>
    <path class="cls-4" d="m303.09,410.62h3.68v15.93h-3.68v-15.93Z"/>
    <path class="cls-4" d="m324.65,426.55l-.02-9.56-4.68,7.87h-1.66l-4.65-7.67v9.35h-3.45v-15.93h3.04l5.95,9.9,5.86-9.9h3.02l.05,15.93h-3.45Z"/>
    <path class="cls-4" d="m345.26,416.4c0,3.55-2.66,5.76-6.9,5.76h-3.2v4.39h-3.68v-15.93h6.88c4.25,0,6.9,2.21,6.9,5.78Zm-3.72,0c0-1.75-1.14-2.78-3.38-2.78h-3v5.53h3c2.25,0,3.38-1.02,3.38-2.75Z"/>
    <path class="cls-4" d="m347.1,410.62h3.68v12.92h7.97v3h-11.65v-15.93Z"/>
    <path class="cls-4" d="m361.28,410.62h3.68v15.93h-3.68v-15.93Z"/>
    <path class="cls-4" d="m372.07,413.58v4.21h7.36v2.96h-7.36v5.8h-3.68v-15.93h12.01v2.96h-8.33Z"/>
    <path class="cls-4" d="m382.6,410.62h3.68v15.93h-3.68v-15.93Z"/>
    <path class="cls-4" d="m402.01,423.59v2.96h-12.31v-15.93h12.01v2.96h-8.36v3.46h7.38v2.87h-7.38v3.69h8.65Z"/>
    <path class="cls-4" d="m405.3,410.62h7.22c5.2,0,8.76,3.14,8.76,7.96s-3.56,7.96-8.76,7.96h-7.22v-15.93Zm7.04,12.9c3.16,0,5.22-1.89,5.22-4.94s-2.07-4.94-5.22-4.94h-3.36v9.87h3.36Z"/>
  </g>
  <g>
    <g>
      <path class="cls-1" d="m326.66,380.31h4.67v-33.21h-4.67v-.79h15.12c12.28,0,17.48,6.63,17.48,16.84s-4.83,17.95-17.48,17.95h-15.12v-.79Zm9.82-33.21v33.21h5.41c7.87,0,11.76-5.74,11.76-16.58s-3.88-16.63-11.76-16.63h-5.41Z"/>
      <path class="cls-1" d="m362.88,357.42h8.19v5.58h.1c.94-2.74,3.04-5.95,6.77-5.95,2.78,0,4.99,1.84,4.99,4.79,0,2.58-1.63,4.16-3.73,4.16-.58,0-1.1,0-1.79-.32v-.42c1.52.26,1.79-1.63,1.79-3.11,0-2.63-.84-4-2.42-4-1.47,0-2.83,1.26-3.83,2.89-1.15,1.89-1.78,4.21-1.78,5.84v13.42h4.2v.79h-12.49v-.79h3.67v-22.1h-3.67v-.79Z"/>
      <path class="cls-1" d="m395.89,357.05c5.93,0,9.29,2.95,9.29,9.47v2.11h-15.01v.79c0,8.95,2.1,11.26,6.25,11.26,3.78,0,7.4-2.47,7.4-6.37h.84c0,3.05-1.99,5.42-4.93,6.53-1.15.42-2.2.63-3.78.63-6.46,0-10.66-3.53-10.66-12.16s4.3-12.26,10.6-12.26Zm4.72,10.79v-2.11c0-4.95-1-8-4.72-8-3.94,0-5.51,3.47-5.67,10.1h10.39Z"/>
      <path class="cls-1" d="m422.61,368.05h.52v-5.53c0-3.11-.84-4.79-4.3-4.79-3.2,0-4.93,1.21-4.93,4,0,1.74.73,3.21,2.47,2.84v.42s-.94.32-2.05.32c-2.36,0-3.99-1.32-3.99-3.42,0-2.89,2.99-4.84,8.5-4.84,6.35,0,8.92,2.63,8.92,7.21v13.74c0,1.53.31,2.37,1.42,2.37,1.79,0,2.47-1.74,2.47-3.63h.79c0,3.16-1.73,4.74-4.2,4.74-2.83,0-4.46-1.63-4.62-4.32h-.11c-1.05,2.05-3.46,4.32-7.35,4.32-3.36,0-7.09-1.53-7.09-5.89,0-5.68,7.19-7.53,13.54-7.53Zm-5.51,12.53c1.15,0,2.36-.47,3.41-1.21,1.47-1.05,2.62-2.58,2.62-3.79v-6.74h-.94c-2.26,0-4.09.37-5.46,1.16-1.73,1-2.68,2.79-2.68,5.68,0,3.47,1.1,4.89,3.04,4.89Z"/>
      <path class="cls-1" d="m434,380.31h3.73v-22.1h-4.2v-.79h8.71v5.53h.1s1.57-5.89,8.45-5.89c4.72,0,7.09,1.84,7.45,5.89h.1s1.58-5.89,8.45-5.89c5.2,0,7.56,2.21,7.56,7.21v16.05h3.67v.79h-11.6v-.79h3.31v-17c0-3.95-.89-5.32-3.73-5.32-5.67,0-7.56,5.89-7.66,8.74v13.58h3.67v.79h-11.6v-.79h3.31v-17c0-3.95-.89-5.32-3.73-5.32-5.77,0-7.66,6.21-7.66,8.95v13.37h3.25v.79h-11.6v-.79Z"/>
      <path class="cls-1" d="m481.14,376.57v-3.89h.84v1.89c0,2.74,2.99,6.1,7.87,6.1,3.31,0,6.09-1.53,6.09-4.47,0-3.1-3.73-3.68-7.4-4.63-3.94-1-7.72-2.42-7.72-7.47,0-5.42,4.67-7.05,8.24-7.05,2.47,0,4.57.84,5.93,2.26,1.21-.26,1.52-1.47,1.89-2.26h.79c-.68,1.32-.84,3.21-.84,4.89v2.68h-.84v-.84c0-2.68-2.05-5.95-6.98-5.95-3.36,0-6.14,1.37-6.14,4.37,0,2.74,2.99,3.47,6.35,4.32,4.2,1,8.87,2.26,8.87,7.53,0,4.21-3.15,7.42-8.29,7.42-2.89,0-5.2-1.16-6.67-2.63-.89.26-1.47,1.63-1.78,2.63h-.79c.47-1.32.58-3.21.58-4.89Z"/>
    </g>
    <g>
      <path class="cls-1" d="m79.12,365.15c-6.72,10.24-13.37,15.37-19.95,15.37-3.74,0-7.94-.93-12.57-2.79-4.64-1.86-8.97-4.17-12.99-6.92-4.02-2.75-7.68-5.73-10.97-8.92-3.29-3.19-5.65-6.11-7.09-8.74-1.89-3.44-2.15-6.21-.79-8.32,1.64-2.53,5.39-3.56,11.23-3.1,3.6.28,7.55.89,11.84,1.82,4.29.93,8.81,2.14,13.57,3.63,4.76,1.49,9.12,2.95,13.07,4.37,3.95,1.42,8.45,3.1,13.49,5.03.73.28,1.46.28,2.18,0,.72-.28,1.27-.77,1.65-1.47,1.5-2.91,2.99-6.09,4.46-9.53,4.58-10.74,8.42-21.72,11.5-32.94.17-.63.59-.96,1.26-1,.66-.07,1.12.21,1.36.84.24.63.41,2.11.5,4.45.09,2.33.15,6.62.18,12.87.1,15.37.44,26.7,1,34,.03.63.24,1.18.63,1.66.38.47.87.82,1.47,1.03,3.99,1.58,8.12,2.54,12.39,2.89.35,0,.66.13.94.39.28.26.43.58.45.95.02.37-.1.69-.37.97-.26.28-.59.42-.97.42-3.85-.17-7.58-.95-11.18-2.32-.67-.21-1.27-.08-1.81.39-.54.47-.76,1.06-.66,1.76.59,3.47,1.31,5.37,2.15,5.68.35.14.61.38.79.71.17.33.2.68.08,1.03-.12.35-.35.61-.68.79-.33.18-.67.21-1.02.11-2.03-.67-3.48-4.21-4.36-10.63-.18-1.19-.84-2-1.99-2.42-2.73-1.02-6.53-2.47-11.39-4.37-.28-.07-.68-.17-1.21-.29-.52-.12-.89-.2-1.1-.24s-.52-.08-.92-.13c-.4-.05-.7-.05-.89,0-.19.05-.46.14-.79.26-.33.12-.61.3-.84.53-.23.23-.49.53-.79.89-.3.37-.59.8-.87,1.29Zm-55.64-20.79c-3.43,0-5.56.65-6.4,1.95-.77,1.19-.47,3.04.89,5.53,1.43,2.67,3.78,5.53,7.03,8.6s6.81,5.88,10.68,8.42c3.87,2.54,7.93,4.67,12.2,6.37,4.27,1.7,8.03,2.55,11.29,2.55,5.77,0,11.76-4.88,17.95-14.63.52-.81.64-1.67.34-2.61-.3-.93-.9-1.57-1.81-1.92-10.32-3.96-19.6-7.19-27.82-9.68-8.22-2.49-15.57-3.98-22.05-4.47-.81-.07-1.57-.11-2.31-.11Zm73.75-20.16c-3.71,11.86-8.43,23.3-14.17,34.31l2.1.84c4.86,1.89,8.38,3.25,10.55,4.05.84.32,1.63.2,2.36-.34s1.07-1.27,1-2.18c-.42-6.77-.68-17.14-.79-31.1,0-2.42-.02-4.19-.05-5.32,0-.38-.06-.67-.18-.84-.12-.17-.26-.22-.42-.13-.16.09-.29.33-.39.71Z"/>
      <path class="cls-1" d="m159.53,367.47c.38,0,.71.14.97.42.26.28.38.61.37,1-.02.39-.17.7-.45.95-1.82,1.75-3.85,3.1-6.09,4.03-2.24.93-4.51,1.43-6.8,1.5-2.29.07-4.53-.11-6.72-.55-2.19-.44-4.35-1.11-6.48-2.03-.52-.21-1.05-.19-1.57.05-.52.25-.88.65-1.05,1.21-.31,1.19-.79,2.32-1.42,3.37-.63,1.19-1.52,2.16-2.68,2.89-1.15.74-2.41,1.12-3.78,1.16-.49,0-.96-.04-1.42-.11l-.52-.21c-2.97-1.61-3.88-5.95-2.73-13,.63-3.89,1.84-8.29,3.62-13.18s3.82-9.23,6.12-13c2.29-3.77,4.33-5.8,6.12-6.08.73-.21,1.44-.16,2.13.16.68.32,1.18.81,1.5,1.47.66,1.4.4,3.79-.79,7.16-1.19,3.37-2.82,6.81-4.88,10.34-2.06,3.53-4.16,6.81-6.3,9.84-2.13,3.04-3.8,5.1-4.99,6.18-.04.04-.07.07-.1.11-.18,1.54-.16,3.09.05,4.63.17,1.16.8,1.95,1.86,2.37,1.07.42,2.06.28,2.97-.42.59-.49,1.1-1.09,1.52-1.79.7-1.19,1.15-2.47,1.36-3.84.14-1.16-.26-2.03-1.21-2.63-.52-.35-1.02-.7-1.47-1.05-.42-.32-.6-.75-.52-1.29.07-.54.37-.9.89-1.08.7-.32,1.43-.39,2.18-.21.75.18,1.37.56,1.86,1.16.35.46.61.96.79,1.53,2.03,1.16,4.14,2.08,6.32,2.76,2.19.68,4.48,1.12,6.88,1.32,2.4.19,4.78-.11,7.14-.89,2.36-.79,4.47-2.08,6.33-3.87.28-.25.61-.37,1-.37Zm-24.09-28.84c-.91.14-2.16,1.46-3.75,3.97-1.59,2.51-3.24,5.77-4.93,9.79-1.7,4.02-3.02,7.96-3.96,11.81-.07.25,0,.42.24.53.23.1.41.05.55-.16,2.55-3.54,4.9-7.21,7.03-11,1.68-2.95,2.98-5.55,3.91-7.81.93-2.26,1.48-3.9,1.65-4.92.17-1.02.17-1.72,0-2.11-.04-.1-.16-.16-.37-.16-.14,0-.26.02-.37.05Z"/>
      <path class="cls-1" d="m203.21,366.84c.38,0,.71.14.97.42.26.28.39.61.39.97s-.14.69-.42.97c-3.4,3.3-7.58,5.83-12.55,7.6-4.97,1.77-9.52,2.66-13.65,2.66-1.99.11-3.92-.26-5.77-1.1-.81-.46-1.45-.96-1.94-1.53-.49-.56-.81-1.17-.94-1.82-.14-.65-.22-1.24-.24-1.76-.02-.53.1-1.13.34-1.82.24-.68.45-1.21.6-1.58.16-.37.38-.83.66-1.39.1-.21.02-.33-.26-.37-.14,0-.33.07-.58.21-1.93,1.05-3.99,1.53-6.19,1.42-.98.04-1.94-.16-2.89-.58-.35.11-.7.07-1.05-.11-.56-.28-.81-.74-.73-1.37-.52-.63-.89-1.35-1.1-2.16-.42-1.44-.38-2.86.1-4.26.49-1.4,1.35-2.56,2.57-3.47,1.47-.88,2.62-.91,3.46-.11,1.15,1.09.77,3.81-1.15,8.16-.07.18-.02.41.16.71.17.3.38.45.63.45,2.03,0,3.94-.51,5.72-1.53.52-.32.94-.53,1.26-.66.31-.12.73-.17,1.26-.16s1.01.2,1.47.55c.45.35.7.81.73,1.37.03.56-.03,1.04-.18,1.45-.16.4-.41.96-.76,1.66-.88,1.61-1.3,2.9-1.29,3.87.02.96.6,1.78,1.76,2.45.7.42,1.84.67,3.41.74,1.57.07,3.43-.07,5.56-.42,2.13-.35,4.34-.88,6.61-1.58,2.27-.7,4.58-1.71,6.93-3.03,2.34-1.32,4.37-2.82,6.09-4.5.28-.25.61-.37,1-.37Zm-42.78-2.47c.63-1.33,1.12-2.72,1.47-4.16-1.29,1.12-1.78,2.51-1.47,4.16Z"/>
      <path class="cls-1" d="m238.79,365.73c.38,0,.72.14,1,.42.28.28.42.61.42,1s-.14.7-.42.95c-2.14,2.14-4.51,3.9-7.11,5.29-2.61,1.39-5.15,2.34-7.64,2.87-2.48.53-4.84.78-7.06.76-2.22-.02-4.21-.29-5.96-.82-.25-.07-.44.02-.58.26-.46,1.05-1.15,1.89-2.07,2.53-.93.63-1.97.97-3.12,1-1.15,0-2.22-.28-3.2-.84-1.33-.63-2.27-1.61-2.83-2.95-.56-1.33-.61-2.7-.16-4.1.46-1.82,1.42-3.49,2.89-5s2.85-2.26,4.15-2.26h.05c.38,0,.71.14.97.42.26.28.39.61.39.97s-.14.68-.42.95c-.28.26-.61.4-1,.4-.56,0-1.35.55-2.36,1.66-1.02,1.11-1.7,2.29-2.05,3.55-.28.77-.26,1.54.05,2.29.31.75.84,1.29,1.57,1.6.63.49,1.33.69,2.1.61.77-.09,1.4-.43,1.89-1.03.7-.77.84-1.32.42-1.63-.98-.63-1.59-1.53-1.84-2.68-.25-1.16-.05-2.23.58-3.21,1.36-2.32,2.73-3.07,4.09-2.26.66.39,1.1,1.16,1.31,2.32s.19,2.37-.05,3.63c-.07.32,0,.62.21.92.21.3.47.48.79.55,4.41.74,8.73.42,12.97-.95,4.23-1.37,7.93-3.63,11.08-6.79.24-.28.56-.42.94-.42Zm-28.71,6.37c.14-.84.17-1.7.1-2.58-.14.25-.26.44-.37.58-.21.32-.3.67-.26,1.05.03.39.21.7.52.95Z"/>
      <path class="cls-1" d="m278.48,367.86c.38.02.7.17.94.45.24.28.36.61.34,1-.02.39-.17.7-.45.95-.31.28-.73.64-1.23,1.08-.51.44-1.43,1.15-2.76,2.13-1.33.98-2.68,1.88-4.04,2.68-1.36.81-2.97,1.61-4.83,2.39-1.85.79-3.64,1.34-5.35,1.66-1.71.32-3.52.34-5.41.08-1.89-.26-3.62-.9-5.2-1.92-1.47-.95-2.64-2.17-3.52-3.68-.25-.42-.62-.65-1.13-.68-.51-.03-.9.16-1.18.58-1.23,1.89-2.56,3.49-4.02,4.79-1.45,1.3-2.79,1.96-4.02,2h-.05c-.63-.04-1.22-.24-1.76-.6-.54-.37-.94-.85-1.18-1.45-1.05-2.63-.89-5.19.47-7.68,1.15-2.42,2.77-4.48,4.86-6.18,2.08-1.7,4.44-2.87,7.06-3.5.52-.14.97-.02,1.34.37.37.39.47.83.31,1.34-.16.51-.5.83-1.02.97-2.2.53-4.18,1.5-5.93,2.92-1.75,1.42-3.11,3.17-4.09,5.24-.98,1.68-1.15,3.44-.52,5.26.21.35.37.53.47.53.59.39,1.75-.7,3.46-3.26,1.71-2.56,3.25-5.33,4.62-8.31.28-.63.77-.89,1.47-.79.66.11,1.05.49,1.15,1.16.03.18.08.41.13.71.05.3.2.84.45,1.63.24.79.52,1.54.84,2.24.31.7.77,1.45,1.36,2.24.59.79,1.24,1.41,1.94,1.87,1.33.88,2.83,1.4,4.49,1.58,1.66.18,3.25.09,4.78-.26,1.52-.35,3.12-.9,4.8-1.66,1.68-.75,3.13-1.52,4.36-2.29,1.22-.77,2.43-1.6,3.62-2.47,1.19-.88,2-1.5,2.44-1.87.44-.37.76-.66.97-.87.28-.25.61-.36,1-.34Z"/>
      <path class="cls-1" d="m325.4,368.63c.38,0,.71.14.97.42.26.28.39.61.39.97s-.14.69-.42.97c-1.61,1.58-3.41,3.02-5.41,4.32-1.99,1.3-3.96,2.34-5.91,3.13-1.94.79-3.92,1.44-5.93,1.95-2.01.51-3.82.75-5.43.74-1.61-.02-3.06-.18-4.36-.5-1.89-.67-3.53-1.71-4.91-3.13-1.38-1.42-2.37-3.08-2.97-4.97-.1-.32-.32-.49-.66-.53-.33-.03-.59.09-.76.37-4.2,5.96-7.68,8.95-10.45,8.95-.18,0-.35-.02-.52-.05-.84-.11-1.58-.41-2.23-.92-.65-.51-1.11-1.17-1.39-1.97-.52-1.75-.53-3.65-.03-5.68.51-2.03,1.22-3.61,2.13-4.74,2.48-2.88,4.93-3.96,7.35-3.26.91.28,1.71.78,2.39,1.5.68.72,1.16,1.55,1.44,2.5.03.35-.06.68-.29,1-.23.32-.52.49-.87.53-.39.07-.73,0-1.02-.24-.3-.23-.48-.52-.55-.87-.39-.91-1.07-1.51-2.05-1.79-1.23-.28-2.66.53-4.3,2.42-1.57,2.35-2.12,4.91-1.63,7.68.21.7.68,1.07,1.42,1.1.77.11,1.95-.56,3.54-2,1.59-1.44,3.46-3.74,5.59-6.89.35-.53.7-1.07,1.05-1.63.38-.63.54-1.32.47-2.05-.14-2.28-.1-4.56.1-6.84.31-3.65,1.02-7.23,2.13-10.74,1.1-3.51,2.52-6.48,4.25-8.92,1.73-2.44,3.54-3.78,5.43-4.03,1.05-.17,1.85.19,2.41,1.11.73,1.19.63,3.54-.31,7.03-.94,3.49-2.35,7.25-4.23,11.26-1.87,4.02-3.91,7.9-6.12,11.66-.46.77-.6,1.6-.42,2.47,1.01,4.91,3.29,7.93,6.82,9.05,1.05.25,2.25.38,3.6.39,1.35.02,2.92-.2,4.72-.66,1.8-.46,3.59-1.03,5.35-1.74,1.77-.7,3.6-1.67,5.49-2.89,1.89-1.23,3.6-2.6,5.14-4.1.24-.25.56-.37.94-.37Zm-32.49-9.26c-.07.95,0,1.42.21,1.42.14,0,.31-.19.52-.58,5.21-9.26,8.07-16.12,8.56-20.58.03-.38-.1-.67-.42-.84-.31-.17-.61-.16-.89.05-1.75,1.26-3.41,3.84-4.99,7.74s-2.57,8.16-2.99,12.79Z"/>
    </g>
  </g>
  <g>
    <polygon class="cls-4" points="173.85 81.95 179.31 92.98 191.59 94.8 182.72 103.45 184.77 115.63 173.85 109.82 162.92 115.63 165.08 103.45 156.21 94.8 168.38 92.98 173.85 81.95"/>
    <polygon class="cls-4" points="104.1 103 109.11 113.24 120.37 114.83 112.29 122.91 114.23 134.17 104.1 128.82 93.98 134.17 95.91 122.91 87.72 114.83 98.98 113.24 104.1 103"/>
    <polygon class="cls-4" points="67.92 152.83 72.13 161.48 81.69 162.84 74.75 169.55 76.46 179.11 67.92 174.56 59.39 179.11 60.98 169.55 54.04 162.84 63.6 161.48 67.92 152.83"/>
    <polygon class="cls-4" points="243.7 103 238.7 113.24 227.32 114.83 235.51 122.91 233.58 134.17 243.7 128.82 253.83 134.17 251.89 122.91 260.09 114.83 248.82 113.24 243.7 103"/>
    <polygon class="cls-4" points="279.88 152.83 275.67 161.48 266.12 162.84 272.94 169.55 271.35 179.11 279.88 174.56 288.42 179.11 286.82 169.55 293.76 162.84 284.21 161.48 279.88 152.83"/>
    <path class="cls-1" d="m167.82,298.12l-65.19-28.22c-.8-.34-1.25-1.14-1.25-2.05v-98.76c0-1.48,1.48-2.5,2.96-1.93l65.19,28.33c.8.34,1.37,1.02,1.37,1.93v98.76c0,1.59-1.59,2.62-3.07,1.93h0Z"/>
    <path class="cls-1" d="m170.89,191.97l-52.45-34.93c-.68-.46-1.59,0-1.59.91v9.9c0,.34.23.8.68.91l53.36,23.21Z"/>
    <path class="cls-1" d="m170.89,185.71l-38.23-36.41c-.68-.68-1.82-.23-1.82.8v8.76c0,.46.23.8.46.91l39.59,25.94Z"/>
    <path class="cls-1" d="m179.88,298.12l65.31-28.22c.8-.34,1.25-1.14,1.25-2.05v-98.76c0-1.48-1.59-2.5-2.96-1.93l-65.31,28.33c-.68.34-1.25,1.02-1.25,1.93v98.76c0,1.59,1.59,2.62,2.96,1.93h0Z"/>
    <path class="cls-1" d="m176.92,191.97l52.34-34.93c.8-.46,1.71,0,1.71.91v9.9c0,.34-.23.8-.68.91l-53.36,23.21Z"/>
    <path class="cls-1" d="m176.92,185.71l38.23-36.41c.68-.68,1.82-.23,1.82.8v8.76c0,.46-.23.8-.57.91l-39.48,25.94Z"/>
    <path class="cls-3" d="m208.09,236.45c-27.65,28.67-.91,50.86,30.95,53.36,63.03,4.89,147.56-39.37,195.69-68.61-51.65,26.74-124.92,63.71-187.73,59.62-25.26-1.71-58.25-14.22-38.91-44.37h0Z"/>
    <path class="cls-3" d="m239.38,212.33c-7.51.8-25.6,15.25-18.89,29.58,23.89,38.91,151.55,2.73,197.62-24.12-41.75,18.43-169.07,55.75-188.07,16.5-3.87-7.96-1.14-16.72,9.33-21.96h0Z"/>
    <path class="cls-5" d="m429.15,202.66c.68.57,8.99,2.73,11.04,3.19.23.11.68.11.91.23l.91.57c-9.78,2.96-4.44,2.73-15.81-3.75-1.82-.91-3.07-1.82-5.12-.11l4.32,8.53c-1.93.46-3.64-.11-5.92.68.11,0,.23,0,.34.11l1.59.68c.68.23,1.25.34,1.93.46,2.39.8.57,1.59,3.64,1.71,3.3.11,6.49.11,9.9.11,7.51,0,12.74-1.48,19.91-2.73,1.02,1.71,1.02,2.05,2.96,1.93,1.25-.11,2.62-.34,3.41-1.02l-.68-2.39s-.11-.11-.11-.23c2.05-.11.23-.34,1.71,1.14.8.91.91.8,2.16.68,5.92-.34,3.64-2.05,2.84-4.1,5.69-2.39,15.47-4.78,19-8.31,4.55-4.55-4.78-4.89-6.49-5.23-3.87-.68-8.42,1.02-11.38,2.05-3.75,1.25-17.07,6.71-19.34,7.17-2.84.46-12.86-1.37-16.5-2.05-1.59-.23-4.1-.57-5.23.68h0Z"/>
    <polygon class="cls-2" points="375.45 243.73 377.39 242.6 376.02 244.42 377.61 246.46 375.45 244.87 373.4 246.12 374.77 244.3 373.29 242.14 375.45 243.73"/>
    <polygon class="cls-2" points="409.02 210.51 411.29 208.69 409.7 211.19 411.86 213.7 409.13 211.88 406.85 213.81 408.33 211.19 406.17 208.69 409.02 210.51"/>
    <path class="cls-3" d="m215.03,227.92c-35.04,51.08,78.28,57.23,151.55,17.98-71.11,29.01-172.37,31.06-151.55-17.98h0Z"/>
    <polygon class="cls-2" points="440.08 221.78 442.35 219.96 440.99 222.46 443.03 224.96 440.3 223.14 438.03 224.96 439.51 222.46 437.34 219.96 440.08 221.78"/>
    <polygon class="cls-2" points="421.19 221.66 423.58 219.73 421.99 222.46 424.26 225.19 421.42 223.14 418.91 225.19 420.51 222.46 418.23 219.73 421.19 221.66"/>
  </g>
</svg>