<?xml version="1.0" encoding="utf-8"?>
<!-- Generator: Adobe Illustrator 27.7.0, SVG Export Plug-In . SVG Version: 6.00 Build 0)  -->
<svg version="1.1" id="Layer_1" xmlns="http://www.w3.org/2000/svg" xmlns:xlink="http://www.w3.org/1999/xlink" x="0px" y="0px"
	 viewBox="0 0 789.9 200" style="enable-background:new 0 0 789.9 200;" xml:space="preserve">
<style type="text/css">
	.st0{fill:#82B041;}
	.st1{fill:#221F20;}
	.st2{fill-rule:evenodd;clip-rule:evenodd;fill:#F8BF17;}
	.st3{fill-rule:evenodd;clip-rule:evenodd;fill:#82B041;}
	.st4{fill:#F8BF17;}
</style>
<g>
	<g>
		<path class="st0" d="M115.8,154.6v6h-4v-6.1l-6.7-11h4.2l4.5,7.7l4.5-7.7h3.9L115.8,154.6z"/>
		<path class="st0" d="M121.7,152.2c0-5.1,4-8.8,9.4-8.8c5.4,0,9.4,3.8,9.4,8.8s-4,8.8-9.4,8.8C125.7,161,121.7,157.2,121.7,152.2z
			 M136.5,152.2c0-3.2-2.3-5.5-5.4-5.5s-5.4,2.3-5.4,5.5s2.3,5.5,5.4,5.5S136.5,155.4,136.5,152.2z"/>
		<path class="st0" d="M142.5,153.1v-9.6h4v9.5c0,3.2,1.4,4.6,3.8,4.6c2.4,0,3.8-1.4,3.8-4.6v-9.5h3.9v9.6c0,5.1-2.9,7.9-7.8,7.9
			S142.5,158.2,142.5,153.1z"/>
		<path class="st0" d="M172,160.7l-3.3-4.7h-0.2H165v4.7h-4v-17.1h7.4c4.5,0,7.4,2.4,7.4,6.3c0,2.6-1.3,4.4-3.6,5.4l3.9,5.5H172z
			 M168.2,146.8H165v6h3.2c2.4,0,3.7-1.1,3.7-3C171.9,147.9,170.7,146.8,168.2,146.8z"/>
		<path class="st0" d="M183.1,158.5l2.2-2.7c1,1.3,1.9,1.9,3.2,1.9c1.6,0,2.4-1,2.4-2.8v-8.2h-6v-3.2h9.9v11.2
			c0,4.2-2.2,6.4-6.1,6.4C186.3,161,184.4,160.1,183.1,158.5z"/>
		<path class="st0" d="M198.2,152.2c0-5.1,4-8.8,9.4-8.8s9.4,3.8,9.4,8.8s-4,8.8-9.4,8.8C202.2,161,198.2,157.2,198.2,152.2z
			 M213,152.2c0-3.2-2.3-5.5-5.4-5.5c-3.1,0-5.4,2.3-5.4,5.5s2.3,5.5,5.4,5.5C210.7,157.7,213,155.4,213,152.2z"/>
		<path class="st0" d="M219,153.1v-9.6h4v9.5c0,3.2,1.4,4.6,3.8,4.6c2.4,0,3.8-1.4,3.8-4.6v-9.5h3.9v9.6c0,5.1-2.9,7.9-7.8,7.9
			S219,158.2,219,153.1z"/>
		<path class="st0" d="M248.4,160.7l-3.3-4.7h-0.2h-3.4v4.7h-4v-17.1h7.4c4.5,0,7.4,2.4,7.4,6.3c0,2.6-1.3,4.4-3.6,5.4l3.9,5.5
			H248.4z M244.8,146.8h-3.2v6h3.2c2.4,0,3.7-1.1,3.7-3C248.4,147.9,247.1,146.8,244.8,146.8z"/>
		<path class="st0" d="M271.6,143.5v17.1h-3.2l-8.5-10.5v10.5H256v-17.1h3.2l8.5,10.5v-10.5H271.6z"/>
		<path class="st0" d="M289,157.6v3.2h-13.3v-17.1h12.9v3.2h-9.1v3.8h8v3.1h-8v4h9.4V157.6z"/>
		<path class="st0" d="M299.3,154.6v6h-4v-6.1l-6.7-11h4.2l4.5,7.7l4.5-7.7h3.9L299.3,154.6z"/>
		<path class="st0" d="M309.9,158.5c0,0.6-0.1,1.1-0.6,2.5l-1.4,3.6h-2.4l1.1-3.9c-0.8-0.3-1.3-1.1-1.3-2c0-1.4,1.1-2.4,2.4-2.4
			C309,156.2,309.9,157.1,309.9,158.5z"/>
		<path class="st0" d="M317.3,159.1l1.3-3c1.4,1.1,3.6,1.8,5.6,1.8c2.4,0,3.3-0.8,3.3-1.8c0-3.2-9.9-1-9.9-7.3
			c0-2.9,2.4-5.4,7.2-5.4c2.2,0,4.3,0.5,5.9,1.5l-1.2,3c-1.6-0.9-3.2-1.4-4.7-1.4c-2.4,0-3.2,0.9-3.2,1.9c0,3.1,9.9,1,9.9,7.3
			c0,2.9-2.4,5.3-7.2,5.3C321.6,161,318.8,160.2,317.3,159.1z"/>
		<path class="st0" d="M334,143.5h4v17.1h-4V143.5z"/>
		<path class="st0" d="M357.3,160.7v-10.3l-5.1,8.5h-1.8l-5.1-8.3v10.1h-3.8v-17.1h3.2l6.4,10.7l6.4-10.7h3.2v17.1L357.3,160.7
			L357.3,160.7z"/>
		<path class="st0" d="M379.5,149.8c0,3.8-2.9,6.3-7.4,6.3h-3.4v4.7h-4v-17.1h7.4C376.5,143.5,379.5,145.9,379.5,149.8z
			 M375.4,149.8c0-1.9-1.2-3-3.7-3h-3.2v5.9h3.2C374.2,152.8,375.4,151.6,375.4,149.8z"/>
		<path class="st0" d="M381.4,143.5h4v13.9h8.6v3.2h-12.5v-17.1H381.4z"/>
		<path class="st0" d="M396.7,143.5h4v17.1h-4V143.5z"/>
		<path class="st0" d="M408.3,146.8v4.5h8v3.2h-8v6.3h-4v-17.1h12.9v3.2h-8.9V146.8z"/>
		<path class="st0" d="M419.6,143.5h4v17.1h-4V143.5z"/>
		<path class="st0" d="M440.6,157.6v3.2h-13.3v-17.1h12.9v3.2h-9.1v3.8h8v3.1h-8v4h9.4V157.6z"/>
		<path class="st0" d="M444.1,143.5h7.8c5.6,0,9.5,3.3,9.5,8.6s-3.9,8.6-9.5,8.6h-7.8V143.5z M451.7,157.4c3.4,0,5.6-2,5.6-5.3
			s-2.3-5.3-5.6-5.3h-3.6v10.7h3.6V157.4z"/>
	</g>
	<g>
		<polygon class="st0" points="648.5,26.5 651.3,32.2 657.6,33.1 653.1,37.6 654.2,43.8 648.5,40.8 642.9,43.8 644,37.6 639.5,33.1 
			645.7,32.2 		"/>
		<polygon class="st0" points="612.7,37.3 615.2,42.6 621.1,43.4 616.9,47.6 617.9,53.4 612.7,50.6 607.5,53.4 608.5,47.6 
			604.2,43.4 610.1,42.6 		"/>
		<polygon class="st0" points="594.1,62.9 596.2,67.4 601.2,68.1 597.6,71.6 598.5,76.4 594.1,74.1 589.7,76.4 590.5,71.6 
			586.9,68.1 591.9,67.4 		"/>
		<polygon class="st0" points="684.4,37.3 681.9,42.6 676,43.4 680.2,47.6 679.2,53.4 684.4,50.6 689.6,53.4 688.6,47.6 692.9,43.4 
			687,42.6 		"/>
		<polygon class="st0" points="703,62.9 700.9,67.4 695.9,68.1 699.4,71.6 698.6,76.4 703,74.1 707.4,76.4 706.6,71.6 710.2,68.1 
			705.2,67.4 		"/>
		<path class="st1" d="M644.6,173.4l-42.6-18.4c-0.5-0.2-0.9-0.7-0.9-1.3V89c0-1,1-1.6,2-1.2l42.6,18.5c0.5,0.2,0.9,0.7,0.9,1.2
			v64.6C646.6,173.2,645.5,173.8,644.6,173.4L644.6,173.4z"/>
		<path class="st1" d="M646.6,104l-34.3-22.9c-0.5-0.3-1,0-1,0.6v6.5c0,0.2,0.1,0.5,0.5,0.6L646.6,104z"/>
		<path class="st1" d="M646.6,99.9l-25-23.8c-0.5-0.5-1.2-0.1-1.2,0.5v5.8c0,0.3,0.1,0.5,0.3,0.6L646.6,99.9z"/>
		<path class="st1" d="M652.5,173.4l42.7-18.4c0.5-0.2,0.9-0.7,0.9-1.3V89c0-1-1-1.6-2-1.2l-42.7,18.5c-0.5,0.2-0.9,0.7-0.9,1.2
			v64.6C650.5,173.2,651.6,173.8,652.5,173.4L652.5,173.4z"/>
		<path class="st1" d="M650.5,104l34.2-22.8c0.5-0.3,1.1,0,1.1,0.6v6.5c0,0.2-0.1,0.5-0.5,0.6L650.5,104z"/>
		<path class="st1" d="M650.5,99.9l25-23.8c0.5-0.5,1.2-0.1,1.2,0.5v5.8c0,0.3-0.1,0.5-0.4,0.6L650.5,99.9z"/>
		<g>
			<path class="st2" d="M583.8,133.1c-18,18.8-0.6,33.3,20.2,34.9c41.2,3.2,96.5-25.8,128-44.9c-33.8,17.5-81.7,41.7-122.7,39
				C592.7,160.9,571.1,152.8,583.8,133.1L583.8,133.1z"/>
			<path class="st2" d="M604.2,117.3c-4.9,0.5-16.7,9.9-12.4,19.4c15.6,25.4,99.1,1.8,129.2-15.8c-27.3,12-110.6,36.4-123,10.8
				C595.6,126.4,597.4,120.7,604.2,117.3L604.2,117.3z"/>
			<path class="st3" d="M728.4,111c0.5,0.4,5.9,1.8,7.2,2.1c0.1,0.1,0.5,0.1,0.6,0.1l0.6,0.4c-6.4,2-2.9,1.8-10.3-2.5
				c-1.2-0.6-2-1.2-3.3-0.1l2.8,5.6c-1.2,0.3-2.4-0.1-3.9,0.5c0.1,0,0.1,0,0.2,0.1l1,0.5c0.5,0.1,0.9,0.2,1.2,0.3
				c1.6,0.5,0.4,1,2.4,1.1c2.2,0.1,4.3,0.1,6.5,0.1c4.9,0,8.3-1,13-1.8c0.7,1.1,0.7,1.3,2,1.2c0.9-0.1,1.7-0.2,2.2-0.7l-0.5-1.6
				c0,0-0.1-0.1-0.1-0.1c1.3-0.1,0.1-0.2,1.1,0.7c0.5,0.6,0.6,0.5,1.4,0.5c3.9-0.2,2.4-1.3,1.8-2.7c3.7-1.6,10.1-3.1,12.4-5.4
				c3-3-3.1-3.2-4.3-3.4c-2.6-0.5-5.5,0.7-7.5,1.3c-2.5,0.9-11.2,4.4-12.6,4.7c-1.8,0.3-8.4-0.9-10.8-1.3
				C730.7,110.4,729.1,110.1,728.4,111L728.4,111z"/>
			<polygon class="st4" points="693.2,137.8 694.5,137.1 693.6,138.3 694.6,139.6 693.2,138.6 691.9,139.4 692.8,138.2 691.8,136.7 
							"/>
			<polygon class="st4" points="715.1,116.1 716.7,114.9 715.6,116.5 717,118.2 715.2,117 713.8,118.2 714.7,116.5 713.3,114.9 			
				"/>
			<path class="st2" d="M588.3,127.5c-22.9,33.4,51.2,37.4,99.1,11.8C640.9,158.2,574.7,159.6,588.3,127.5L588.3,127.5z"/>
			<polygon class="st4" points="735.5,123.5 737,122.3 736.1,123.9 737.4,125.6 735.6,124.3 734.1,125.6 735.1,123.9 733.7,122.3 
							"/>
			<polygon class="st4" points="723.1,123.4 724.7,122.1 723.6,123.9 725.2,125.7 723.3,124.3 721.6,125.7 722.7,123.9 721.2,122.1 
							"/>
		</g>
	</g>
	<g>
		<g>
			<path class="st1" d="M359.4,112.6h5.1V76.9h-5.1V76h16.3c13.3,0,18.9,7.1,18.9,18.1c0,10.7-5.2,19.3-18.9,19.3h-16.3V112.6z
				 M370,76.9v35.8h5.8c8.5,0,12.7-6.1,12.7-17.9c0-12.2-4.2-17.9-12.7-17.9H370z"/>
			<path class="st1" d="M398.4,88h8.8v6h0.1c1-2.9,3.2-6.4,7.3-6.4c3,0,5.4,1.9,5.4,5.2c0,2.8-1.7,4.5-4,4.5c-0.6,0-1.2,0-1.9-0.3
				v-0.4c1.6,0.3,1.9-1.7,1.9-3.3c0-2.8-0.9-4.3-2.6-4.3c-1.6,0-3,1.4-4.1,3.1c-1.3,2-1.9,4.5-1.9,6.3v14.4h4.5v0.9h-13.5v-0.9h4
				V88.9h-4v-1H398.4z"/>
			<path class="st1" d="M434,87.5c6.4,0,10,3.1,10,10.2v2.3h-16.2v0.9c0,9.6,2.3,12.2,6.7,12.2c4.1,0,8-2.7,8-6.9h0.9
				c0,3.3-2.2,5.8-5.3,7c-1.3,0.4-2.4,0.6-4.1,0.6c-7,0-11.5-3.8-11.5-13.1C422.5,91.2,427.2,87.5,434,87.5z M439,99.2v-2.3
				c0-5.3-1.1-8.6-5.1-8.6c-4.2,0-5.9,3.8-6.1,10.9H439z"/>
			<path class="st1" d="M462.7,99.4h0.5v-5.9c0-3.3-0.9-5.2-4.6-5.2c-3.4,0-5.3,1.3-5.3,4.3c0,1.8,0.8,3.4,2.7,3V96
				c0,0-1,0.3-2.2,0.3c-2.6,0-4.3-1.4-4.3-3.7c0-3.1,3.2-5.2,9.2-5.2c6.9,0,9.6,2.8,9.6,7.8v14.9c0,1.6,0.3,2.6,1.5,2.6
				c1.9,0,2.7-1.8,2.7-3.9h0.9c0,3.4-1.8,5.1-4.5,5.1c-3,0-4.8-1.7-5-4.6h-0.1c-1.1,2.3-3.8,4.6-7.9,4.6c-3.7,0-7.7-1.6-7.7-6.4
				C448.2,101.4,455.9,99.4,462.7,99.4z M456.8,113c1.3,0,2.6-0.5,3.7-1.3c1.6-1.2,2.8-2.8,2.8-4.1v-7.2h-1c-2.5,0-4.4,0.4-5.9,1.3
				c-1.8,1.1-2.9,3-2.9,6.1C453.6,111.4,454.8,113,456.8,113z"/>
			<path class="st1" d="M475,112.6h4V88.8h-4.5V88h9.4v5.9h0.1c0,0,1.7-6.4,9.2-6.4c5.1,0,7.7,1.9,8.1,6.4h0.1c0,0,1.7-6.4,9.2-6.4
				c5.6,0,8.2,2.4,8.2,7.8v17.3h4v0.9h-12.5v-0.9h3.6V94.3c0-4.2-1-5.7-4-5.7c-6.1,0-8.2,6.4-8.3,9.4v14.7h4v0.9h-12.5v-0.9h3.6
				V94.3c0-4.2-1-5.7-4-5.7c-6.3,0-8.3,6.7-8.3,9.6v14.4h3.6v0.9H475V112.6z"/>
			<path class="st1" d="M525.8,108.6v-4.2h0.9v2c0,2.9,3.2,6.6,8.5,6.6c3.6,0,6.6-1.6,6.6-4.8c0-3.3-4-4-8-5
				c-4.2-1.1-8.3-2.6-8.3-8.1c0-5.8,5.1-7.7,8.8-7.7c2.7,0,5,0.9,6.4,2.5c1.3-0.3,1.6-1.6,2-2.5h0.9c-0.8,1.4-0.9,3.4-0.9,5.3v2.9
				h-0.9v-0.9c0-2.9-2.2-6.4-7.5-6.4c-3.7,0-6.6,1.5-6.6,4.7c0,2.9,3.2,3.8,6.9,4.6c4.5,1.1,9.6,2.5,9.6,8.1c0,4.5-3.3,8-8.9,8
				c-3.1,0-5.6-1.3-7.2-2.8c-1,0.3-1.6,1.7-1.9,2.8h-0.9C525.7,112.5,525.8,110.5,525.8,108.6z"/>
		</g>
		<g>
			<path class="st1" d="M92.6,96.4c-7.2,11-14.4,16.6-21.4,16.6c-4,0-8.5-1-13.6-3c-5-2-9.7-4.5-14-7.4c-4.3-3-8.3-6.1-11.9-9.6
				c-3.6-3.4-6.1-6.6-7.7-9.4c-2-3.7-2.4-6.7-0.9-8.9c1.7-2.7,5.8-3.9,12.1-3.3c3.9,0.3,8.1,1,12.7,1.9c4.6,1,9.5,2.3,14.7,3.9
				s9.8,3.1,14.1,4.7c4.3,1.5,9.2,3.3,14.5,5.4c0.8,0.3,1.6,0.3,2.4,0c0.8-0.3,1.4-0.9,1.8-1.6c1.6-3.1,3.2-6.6,4.8-10.2
				c5-11.5,9.1-23.4,12.4-35.5c0.2-0.6,0.6-1.1,1.4-1.1c0.8-0.1,1.2,0.2,1.5,0.9c0.2,0.6,0.4,2.3,0.5,4.7s0.1,7.1,0.2,13.9
				c0.1,16.6,0.4,28.8,1.1,36.6c0,0.6,0.2,1.3,0.6,1.8c0.4,0.5,1,0.9,1.6,1.1c4.3,1.7,8.7,2.7,13.4,3.1c0.3,0,0.8,0.1,1,0.4
				c0.3,0.3,0.4,0.6,0.4,1c0,0.4-0.1,0.8-0.4,1.1c-0.3,0.3-0.6,0.4-1.1,0.4c-4.2-0.2-8.2-1-12.1-2.5c-0.8-0.2-1.4-0.1-1.9,0.4
				c-0.5,0.5-0.9,1.2-0.8,1.9c0.6,3.8,1.4,5.8,2.4,6.1c0.3,0.1,0.6,0.4,0.9,0.8c0.2,0.3,0.2,0.8,0.1,1.1c-0.1,0.4-0.4,0.6-0.8,0.9
				c-0.3,0.2-0.8,0.2-1.1,0.1c-2.2-0.8-3.8-4.5-4.7-11.4c-0.2-1.3-0.9-2.2-2.2-2.6c-2.9-1.1-7-2.7-12.3-4.7
				c-0.3-0.1-0.8-0.2-1.3-0.3c-0.5-0.1-1-0.2-1.2-0.2s-0.5-0.1-1-0.1c-0.4-0.1-0.8-0.1-1,0c-0.2,0.1-0.5,0.1-0.9,0.3
				c-0.3,0.1-0.6,0.3-0.9,0.5c-0.2,0.2-0.5,0.5-0.9,1C93.2,95.3,92.9,95.8,92.6,96.4z M32.7,73.9c-3.7,0-6,0.8-6.9,2
				c-0.9,1.3-0.5,3.2,1,5.9c1.5,2.9,4.1,5.9,7.5,9.3c3.4,3.3,7.3,6.4,11.5,9.1c4.2,2.7,8.5,5.1,13.1,6.9c4.6,1.8,8.6,2.8,12.2,2.8
				c6.3,0,12.7-5.3,19.4-15.7c0.5-0.9,0.6-1.8,0.3-2.8c-0.3-1-1-1.7-1.9-2C77.8,85,67.8,81.6,59,78.9c-8.8-2.7-16.8-4.3-23.7-4.8
				C34.3,73.9,33.4,73.9,32.7,73.9z M112.1,52.2c-4,12.8-9.1,25.1-15.3,37L99,90c5.3,2,9.1,3.4,11.4,4.4c0.9,0.3,1.7,0.2,2.6-0.3
				c0.9-0.5,1.2-1.4,1.1-2.4c-0.4-7.3-0.8-18.4-0.9-33.5c0-2.6,0-4.5-0.1-5.7c0-0.4-0.1-0.8-0.2-0.9c-0.1-0.2-0.3-0.2-0.4-0.1
				C112.4,51.5,112.2,51.7,112.1,52.2z"/>
			<path class="st1" d="M179.2,98.8c0.4,0,0.8,0.1,1.1,0.4s0.4,0.6,0.4,1.1s-0.2,0.8-0.4,1c-1.9,1.9-4.2,3.3-6.6,4.3
				c-2.4,1-4.8,1.5-7.3,1.6c-2.5,0.1-4.8-0.1-7.2-0.6c-2.4-0.4-4.6-1.2-7-2.2c-0.5-0.2-1.1-0.2-1.7,0.1c-0.5,0.2-1,0.8-1.1,1.3
				c-0.3,1.3-0.9,2.5-1.5,3.7c-0.6,1.3-1.6,2.4-2.9,3.1c-1.3,0.8-2.6,1.2-4.1,1.3c-0.5,0-1.1,0-1.5-0.1l-0.5-0.2
				c-3.2-1.7-4.2-6.4-2.9-14c0.6-4.2,1.9-8.9,3.9-14.2c1.9-5.3,4.1-9.9,6.6-14c2.5-4.1,4.6-6.3,6.6-6.6c0.8-0.2,1.5-0.2,2.3,0.2
				c0.8,0.3,1.3,0.9,1.6,1.6c0.8,1.5,0.4,4.1-0.9,7.8c-1.3,3.7-3,7.3-5.3,11.1c-2.3,3.8-4.5,7.3-6.8,10.6s-4.1,5.5-5.4,6.7l-0.1,0.1
				c-0.2,1.6-0.2,3.3,0.1,5c0.2,1.3,0.9,2,2,2.6c1.2,0.4,2.3,0.3,3.2-0.4c0.6-0.5,1.2-1.2,1.6-1.9c0.8-1.3,1.3-2.7,1.5-4.1
				c0.1-1.3-0.3-2.2-1.3-2.8c-0.5-0.4-1.1-0.8-1.6-1.2c-0.4-0.3-0.6-0.8-0.5-1.4c0.1-0.5,0.4-1,1-1.2c0.8-0.3,1.5-0.4,2.4-0.2
				c0.9,0.2,1.5,0.6,2,1.3c0.3,0.5,0.6,1.1,0.9,1.6c2.2,1.3,4.4,2.3,6.8,3c2.4,0.8,4.8,1.2,7.4,1.4c2.6,0.2,5.2-0.1,7.7-1
				c2.6-0.9,4.8-2.3,6.8-4.2C178.5,98.9,178.8,98.8,179.2,98.8z M153.3,67.7c-1,0.1-2.4,1.6-4.1,4.3c-1.7,2.7-3.4,6.3-5.3,10.6
				c-1.8,4.3-3.2,8.6-4.3,12.7c-0.1,0.2,0,0.4,0.2,0.5s0.4,0.1,0.6-0.2c2.8-3.8,5.3-7.8,7.5-11.9c1.8-3.1,3.2-6,4.2-8.4
				c1-2.5,1.6-4.2,1.8-5.3s0.2-1.8,0-2.3c0-0.1-0.2-0.2-0.4-0.2C153.6,67.7,153.4,67.7,153.3,67.7z"/>
			<path class="st1" d="M226.3,98.1c0.4,0,0.8,0.1,1.1,0.4c0.3,0.3,0.4,0.6,0.4,1.1s-0.1,0.8-0.4,1.1c-3.7,3.6-8.2,6.3-13.5,8.2
				c-5.4,1.9-10.2,2.9-14.7,2.9c-2.2,0.1-4.2-0.3-6.3-1.2c-0.9-0.5-1.6-1.1-2-1.6c-0.5-0.6-0.9-1.3-1-1.9c-0.1-0.6-0.2-1.3-0.2-1.9
				c0-0.5,0.1-1.2,0.3-1.9c0.2-0.8,0.4-1.3,0.6-1.7c0.2-0.4,0.4-0.9,0.8-1.5c0.1-0.2,0-0.3-0.3-0.4c-0.1,0-0.3,0.1-0.6,0.2
				c-2,1.2-4.3,1.6-6.7,1.5c-1.1,0-2-0.2-3.1-0.6c-0.4,0.1-0.8,0.1-1.1-0.1c-0.6-0.3-0.9-0.8-0.8-1.5c-0.5-0.6-1-1.4-1.2-2.4
				c-0.4-1.5-0.4-3.1,0.1-4.6c0.5-1.5,1.4-2.8,2.8-3.8c1.6-1,2.8-1,3.8-0.1c1.3,1.2,0.9,4.1-1.3,8.8c-0.1,0.2,0,0.4,0.2,0.8
				c0.2,0.3,0.4,0.4,0.6,0.4c2.2,0,4.2-0.5,6.1-1.6c0.5-0.3,1-0.5,1.4-0.8c0.3-0.1,0.8-0.2,1.4-0.2c0.6,0,1.1,0.2,1.6,0.6
				c0.5,0.4,0.8,0.9,0.8,1.5c0,0.6,0,1.1-0.2,1.5c-0.2,0.4-0.4,1.1-0.9,1.8c-1,1.7-1.4,3.1-1.4,4.2c0,1.1,0.6,1.9,1.9,2.6
				c0.8,0.4,1.9,0.8,3.7,0.8c1.7,0.1,3.7-0.1,6-0.4c2.3-0.4,4.6-1,7.1-1.7c2.5-0.8,5-1.8,7.4-3.2c2.5-1.4,4.7-3,6.6-4.8
				C225.6,98.3,225.9,98.1,226.3,98.1z M180.2,95.5c0.6-1.4,1.2-2.9,1.6-4.5C180.4,92.2,179.9,93.7,180.2,95.5z"/>
			<path class="st1" d="M264.7,96.9c0.4,0,0.8,0.1,1.1,0.4c0.3,0.3,0.4,0.6,0.4,1.1c0,0.4-0.1,0.8-0.4,1c-2.3,2.3-4.8,4.2-7.7,5.7
				c-2.8,1.5-5.6,2.5-8.2,3.1c-2.7,0.5-5.2,0.9-7.7,0.9c-2.4,0-4.5-0.3-6.5-0.9c-0.2-0.1-0.4,0-0.6,0.3c-0.5,1.2-1.2,2-2.3,2.7
				c-1,0.6-2.2,1.1-3.3,1.1c-1.3,0-2.4-0.3-3.4-0.9c-1.4-0.6-2.5-1.7-3-3.1c-0.6-1.4-0.6-2.9-0.2-4.4c0.5-1.9,1.5-3.8,3.1-5.4
				c1.6-1.6,3.1-2.5,4.4-2.5h0.1c0.4,0,0.8,0.1,1.1,0.4c0.3,0.3,0.4,0.6,0.4,1.1s-0.1,0.8-0.4,1c-0.3,0.3-0.6,0.4-1.1,0.4
				c-0.6,0-1.4,0.6-2.6,1.8c-1.1,1.2-1.8,2.5-2.2,3.9c-0.3,0.9-0.3,1.6,0.1,2.5c0.3,0.9,0.9,1.4,1.7,1.7c0.6,0.5,1.4,0.8,2.3,0.6
				c0.9-0.1,1.5-0.4,2-1.1c0.8-0.9,0.9-1.4,0.4-1.7c-1.1-0.6-1.7-1.6-1.9-2.9s-0.1-2.4,0.6-3.4c1.5-2.5,2.9-3.3,4.4-2.5
				c0.8,0.4,1.2,1.3,1.4,2.5c0.2,1.2,0.2,2.6-0.1,3.9c-0.1,0.3,0,0.6,0.2,1c0.2,0.3,0.5,0.5,0.9,0.6c4.7,0.8,9.4,0.4,14-1
				c4.5-1.5,8.5-3.9,12-7.3C263.9,97.1,264.2,96.9,264.7,96.9z M233.7,103.8c0.1-0.9,0.2-1.8,0.1-2.8c-0.1,0.2-0.3,0.4-0.4,0.6
				c-0.2,0.3-0.3,0.8-0.3,1.2C233.2,103.1,233.4,103.6,233.7,103.8z"/>
			<path class="st1" d="M307.5,99.3c0.4,0,0.8,0.2,1,0.4c0.2,0.3,0.4,0.6,0.3,1.1c0,0.4-0.2,0.8-0.4,1c-0.3,0.3-0.8,0.6-1.3,1.2
				c-0.5,0.4-1.5,1.2-3,2.3c-1.4,1.1-2.9,2-4.3,2.9c-1.5,0.9-3.2,1.7-5.2,2.6c-2,0.9-3.9,1.4-5.8,1.8c-1.8,0.3-3.8,0.3-5.8,0.1
				c-2-0.3-3.9-1-5.6-2c-1.6-1-2.8-2.4-3.8-4c-0.2-0.4-0.6-0.6-1.2-0.8c-0.5,0-1,0.2-1.3,0.6c-1.3,2-2.8,3.8-4.3,5.2
				c-1.6,1.4-3,2.2-4.3,2.2h-0.1c-0.6,0-1.3-0.2-1.9-0.6c-0.5-0.4-1-1-1.3-1.5c-1.1-2.8-1-5.6,0.5-8.3c1.3-2.6,3-4.8,5.3-6.7
				c2.3-1.8,4.7-3.1,7.7-3.8c0.5-0.1,1.1,0,1.4,0.4c0.4,0.4,0.5,0.9,0.3,1.4c-0.2,0.5-0.5,0.9-1.1,1.1c-2.4,0.5-4.5,1.6-6.4,3.1
				c-1.9,1.5-3.3,3.4-4.4,5.6c-1.1,1.8-1.3,3.7-0.5,5.7c0.2,0.4,0.4,0.5,0.5,0.5c0.6,0.4,1.8-0.8,3.8-3.6c1.8-2.8,3.6-5.7,5-8.9
				c0.3-0.6,0.9-1,1.6-0.9c0.8,0.1,1.1,0.5,1.3,1.3c0,0.2,0.1,0.4,0.1,0.8c0.1,0.3,0.2,0.9,0.4,1.7c0.2,0.9,0.5,1.6,0.9,2.4
				c0.3,0.8,0.9,1.5,1.5,2.4c0.6,0.9,1.3,1.5,2,2c1.4,1,3,1.5,4.8,1.7c1.8,0.2,3.6,0.1,5.2-0.3c1.6-0.4,3.3-1,5.2-1.8
				c1.8-0.9,3.3-1.6,4.7-2.5c1.3-0.9,2.6-1.7,3.9-2.7c1.3-1,2.2-1.6,2.6-2c0.4-0.4,0.9-0.8,1.1-1C306.7,99.4,307,99.2,307.5,99.3z"
				/>
			<path class="st1" d="M358,100c0.4,0,0.8,0.1,1.1,0.4c0.3,0.3,0.4,0.6,0.4,1.1c0,0.4-0.1,0.8-0.4,1.1c-1.7,1.7-3.7,3.2-5.8,4.6
				c-2.2,1.4-4.3,2.5-6.4,3.3c-2,0.9-4.2,1.5-6.4,2c-2.2,0.5-4.1,0.9-5.8,0.8c-1.7,0-3.3-0.2-4.7-0.5c-2-0.8-3.8-1.8-5.3-3.3
				c-1.5-1.5-2.6-3.3-3.2-5.4c-0.1-0.3-0.3-0.5-0.8-0.5c-0.3,0-0.6,0.1-0.9,0.4c-4.5,6.5-8.3,9.6-11.2,9.6c-0.2,0-0.4,0-0.5-0.1
				c-0.9-0.1-1.7-0.4-2.4-1c-0.6-0.5-1.2-1.3-1.5-2.2c-0.5-1.9-0.5-3.9,0-6.1c0.5-2.2,1.3-3.9,2.3-5.1c2.7-3.1,5.3-4.3,7.9-3.6
				c1,0.3,1.8,0.9,2.6,1.6c0.8,0.8,1.3,1.7,1.5,2.7c0,0.4-0.1,0.8-0.3,1.1c-0.2,0.3-0.5,0.5-1,0.5c-0.4,0.1-0.8,0-1.1-0.2
				s-0.5-0.5-0.6-1c-0.4-1-1.2-1.6-2.2-1.9c-1.3-0.3-2.9,0.5-4.6,2.6c-1.7,2.6-2.3,5.3-1.7,8.3c0.2,0.8,0.8,1.2,1.5,1.2
				c0.9,0.1,2.2-0.6,3.8-2.2c1.7-1.5,3.8-4,6-7.4c0.3-0.5,0.8-1.2,1.1-1.7c0.4-0.6,0.5-1.4,0.5-2.3c-0.1-2.5-0.1-5,0.1-7.3
				c0.3-3.9,1.1-7.8,2.3-11.5c1.2-3.8,2.7-7,4.6-9.6c1.8-2.6,3.8-4.1,5.8-4.3c1.1-0.2,2,0.2,2.6,1.2c0.8,1.3,0.6,3.8-0.3,7.5
				c-1,3.8-2.6,7.8-4.5,12.2c-2,4.3-4.2,8.5-6.6,12.6c-0.5,0.9-0.6,1.7-0.4,2.7c1.1,5.3,3.6,8.5,7.3,9.8c1.1,0.2,2.4,0.4,3.9,0.4
				c1.4,0,3.1-0.2,5.1-0.8c1.9-0.5,3.9-1.1,5.8-1.8c1.9-0.8,3.9-1.8,5.9-3.1c2-1.3,3.9-2.8,5.5-4.4C357.2,100.2,357.6,100,358,100z
				 M323,90.1c-0.1,1,0,1.5,0.2,1.5c0.1,0,0.3-0.2,0.5-0.6c5.6-10,8.7-17.3,9.3-22.2c0-0.4-0.1-0.8-0.4-0.9c-0.3-0.2-0.6-0.2-1,0.1
				c-1.9,1.4-3.7,4.1-5.4,8.3S323.4,85,323,90.1z"/>
		</g>
	</g>
</g>
</svg>
