<?xml version="1.0" encoding="utf-8"?>
<!-- Generator: Adobe Illustrator 27.7.0, SVG Export Plug-In . SVG Version: 6.00 Build 0)  -->
<svg version="1.1" id="Layer_1" xmlns="http://www.w3.org/2000/svg" xmlns:xlink="http://www.w3.org/1999/xlink" x="0px" y="0px"
	 viewBox="0 0 300 49.5" style="enable-background:new 0 0 300 49.5;" xml:space="preserve">
<style type="text/css">
	.st0{fill:#FFFFFF;}
</style>
<g>
	<g>
		<path class="st0" d="M191.6,44.5h2.8V25h-2.8v-0.5h8.9c7.2,0,10.3,3.9,10.3,9.9c0,5.8-2.8,10.5-10.3,10.5h-8.9V44.5z M197.4,25
			v19.5h3.2c4.6,0,6.9-3.4,6.9-9.8c0-6.6-2.3-9.8-6.9-9.8H197.4z"/>
		<path class="st0" d="M212.9,31.1h4.8v3.3h0.1c0.5-1.6,1.8-3.5,4-3.5c1.6,0,2.9,1.1,2.9,2.8c0,1.5-0.9,2.5-2.2,2.5
			c-0.4,0-0.6,0-1.1-0.2v-0.2c0.9,0.2,1.1-0.9,1.1-1.8c0-1.5-0.5-2.4-1.4-2.4c-0.9,0-1.6,0.8-2.2,1.7c-0.7,1.1-1.1,2.5-1.1,3.4v7.9
			h2.5v0.5H213v-0.5h2.2v-13H213L212.9,31.1L212.9,31.1z"/>
		<path class="st0" d="M232.3,30.8c3.5,0,5.5,1.7,5.5,5.6v1.2H229v0.5c0,5.2,1.2,6.6,3.6,6.6c2.2,0,4.4-1.5,4.4-3.8h0.5
			c0,1.8-1.2,3.2-2.9,3.8c-0.7,0.2-1.3,0.4-2.2,0.4c-3.8,0-6.3-2.1-6.3-7.2C226.1,32.8,228.6,30.8,232.3,30.8z M235.1,37.2v-1.2
			c0-2.9-0.6-4.7-2.8-4.7c-2.3,0-3.2,2.1-3.4,5.9H235.1z"/>
		<path class="st0" d="M248,37.3h0.3v-3.2c0-1.8-0.5-2.8-2.5-2.8c-1.9,0-2.9,0.7-2.9,2.4c0,1,0.4,1.9,1.5,1.6v0.2
			c0,0-0.5,0.2-1.2,0.2c-1.4,0-2.4-0.8-2.4-2c0-1.7,1.8-2.8,5-2.8c3.8,0,5.2,1.5,5.2,4.2v8.1c0,0.9,0.2,1.4,0.8,1.4
			c1.1,0,1.5-1,1.5-2.1h0.5c0,1.9-1,2.8-2.5,2.8c-1.6,0-2.6-0.9-2.7-2.5h-0.1c-0.6,1.2-2.1,2.5-4.3,2.5c-2,0-4.2-0.9-4.2-3.5
			C240.1,38.4,244.3,37.3,248,37.3z M244.8,44.7c0.7,0,1.4-0.3,2-0.7c0.9-0.6,1.5-1.5,1.5-2.2v-3.9h-0.5c-1.4,0-2.4,0.2-3.2,0.7
			c-1,0.6-1.6,1.6-1.6,3.4C243,43.9,243.7,44.7,244.8,44.7z"/>
		<path class="st0" d="M254.7,44.5h2.2v-13h-2.5v-0.5h5.1v3.2h0.1c0,0,0.9-3.5,5-3.5c2.8,0,4.2,1.1,4.4,3.5h0.1c0,0,0.9-3.5,5-3.5
			c3.1,0,4.5,1.3,4.5,4.2v9.5h2.2V45h-6.8v-0.5h1.9v-10c0-2.3-0.5-3.1-2.2-3.1c-3.4,0-4.5,3.5-4.5,5.1v8h2.2V45h-6.8v-0.5h1.9v-10
			c0-2.3-0.5-3.1-2.2-3.1c-3.4,0-4.5,3.6-4.5,5.2v7.9h1.9V45h-6.9V44.5z"/>
		<path class="st0" d="M282.4,42.4v-2.3h0.5v1.1c0,1.6,1.8,3.6,4.6,3.6c1.9,0,3.6-0.9,3.6-2.6c0-1.8-2.2-2.2-4.4-2.7
			c-2.3-0.6-4.5-1.4-4.5-4.4c0-3.2,2.8-4.2,4.8-4.2c1.5,0,2.7,0.5,3.5,1.4c0.7-0.2,0.9-0.9,1.1-1.4h0.5c-0.4,0.8-0.5,1.9-0.5,2.9
			v1.6h-0.5v-0.5c0-1.6-1.2-3.5-4.1-3.5c-2,0-3.6,0.8-3.6,2.6c0,1.6,1.8,2.1,3.8,2.5c2.5,0.6,5.2,1.4,5.2,4.4c0,2.5-1.8,4.4-4.9,4.4
			c-1.7,0-3.1-0.7-3.9-1.5c-0.5,0.2-0.9,0.9-1.1,1.5h-0.5C282.4,44.5,282.4,43.4,282.4,42.4z"/>
	</g>
	<g>
		<path class="st0" d="M45.9,35.7c-3.9,6-7.9,9.1-11.7,9.1c-2.2,0-4.6-0.5-7.4-1.6c-2.7-1.1-5.3-2.5-7.6-4.1
			c-2.4-1.6-4.5-3.4-6.5-5.2c-1.9-1.9-3.4-3.6-4.2-5.1c-1.1-2-1.3-3.6-0.5-4.9c0.9-1.5,3.2-2.1,6.6-1.8c2.1,0.2,4.4,0.5,6.9,1.1
			c2.5,0.5,5.2,1.2,8,2.1c2.8,0.9,5.4,1.7,7.7,2.6c2.4,0.8,5,1.8,7.9,2.9c0.4,0.2,0.9,0.2,1.3,0c0.4-0.2,0.8-0.5,1-0.9
			c0.9-1.7,1.8-3.6,2.6-5.6c2.7-6.3,4.9-12.8,6.8-19.4c0.1-0.4,0.4-0.6,0.8-0.6c0.4-0.1,0.6,0.1,0.8,0.5c0.1,0.4,0.2,1.2,0.3,2.6
			c0.1,1.4,0.1,3.9,0.1,7.6c0.1,9.1,0.2,15.7,0.6,20c0,0.4,0.1,0.7,0.4,1c0.2,0.3,0.5,0.5,0.9,0.6c2.4,0.9,4.8,1.5,7.3,1.7
			c0.2,0,0.4,0.1,0.5,0.2c0.2,0.2,0.2,0.4,0.2,0.5c0,0.2-0.1,0.4-0.2,0.6s-0.4,0.2-0.6,0.2c-2.3-0.1-4.5-0.5-6.6-1.4
			c-0.4-0.1-0.8-0.1-1.1,0.2c-0.3,0.3-0.5,0.6-0.4,1.1c0.4,2.1,0.8,3.2,1.3,3.4c0.2,0.1,0.4,0.2,0.5,0.4c0.1,0.2,0.1,0.4,0.1,0.6
			c-0.1,0.2-0.2,0.4-0.4,0.5c-0.2,0.1-0.4,0.1-0.6,0.1c-1.2-0.4-2.1-2.5-2.6-6.2c-0.1-0.7-0.5-1.2-1.2-1.4c-1.6-0.6-3.8-1.5-6.7-2.6
			c-0.2-0.1-0.4-0.1-0.7-0.2c-0.3-0.1-0.5-0.1-0.6-0.1S48.6,34,48.4,34c-0.2-0.1-0.4-0.1-0.5,0c-0.1,0.1-0.3,0.1-0.5,0.2
			c-0.2,0.1-0.4,0.2-0.5,0.3c-0.1,0.1-0.3,0.3-0.5,0.5C46.3,35.1,46.1,35.4,45.9,35.7z M13.2,23.4c-2,0-3.3,0.4-3.8,1.1
			C9,25.2,9.1,26.3,10,27.8c0.8,1.6,2.2,3.2,4.1,5.1c1.9,1.8,4,3.5,6.3,4.9s4.6,2.8,7.2,3.8c2.5,1,4.7,1.5,6.6,1.5
			c3.4,0,6.9-2.9,10.6-8.6c0.3-0.5,0.4-1,0.2-1.5c-0.2-0.5-0.5-0.9-1.1-1.1c-6.1-2.4-11.5-4.2-16.4-5.7s-9.2-2.4-12.9-2.6
			C14.1,23.4,13.6,23.4,13.2,23.4z M56.6,11.5c-2.2,7-4.9,13.7-8.4,20.2l1.2,0.5c2.9,1.1,4.9,1.9,6.2,2.4c0.5,0.2,0.9,0.1,1.4-0.2
			s0.6-0.8,0.6-1.3c-0.2-4-0.4-10.1-0.5-18.3c0-1.4,0-2.5-0.1-3.1c0-0.2-0.1-0.4-0.1-0.5c-0.1-0.1-0.2-0.1-0.2-0.1
			C56.7,11.2,56.6,11.3,56.6,11.5z"/>
		<path class="st0" d="M93.2,37c0.2,0,0.4,0.1,0.6,0.2s0.2,0.4,0.2,0.6s-0.1,0.4-0.2,0.5c-1.1,1.1-2.3,1.8-3.6,2.4
			c-1.3,0.5-2.6,0.8-4,0.9s-2.6-0.1-3.9-0.4c-1.3-0.2-2.5-0.6-3.8-1.2c-0.3-0.1-0.6-0.1-0.9,0.1c-0.3,0.1-0.5,0.4-0.6,0.7
			c-0.2,0.7-0.5,1.4-0.8,2c-0.4,0.7-0.9,1.3-1.6,1.7c-0.7,0.4-1.4,0.6-2.2,0.7c-0.3,0-0.6,0-0.8-0.1l-0.3-0.1
			c-1.8-0.9-2.3-3.5-1.6-7.6c0.4-2.3,1.1-4.9,2.1-7.8c1.1-2.9,2.2-5.4,3.6-7.6s2.5-3.4,3.6-3.6c0.4-0.1,0.8-0.1,1.2,0.1
			c0.4,0.2,0.7,0.5,0.9,0.9c0.4,0.8,0.2,2.2-0.5,4.2c-0.7,2-1.6,4-2.9,6.1c-1.2,2.1-2.5,4-3.7,5.8c-1.2,1.8-2.2,3-2.9,3.6l-0.1,0.1
			c-0.1,0.9-0.1,1.8,0.1,2.7c0.1,0.7,0.5,1.1,1.1,1.4c0.6,0.2,1.2,0.2,1.8-0.2c0.4-0.3,0.6-0.6,0.9-1.1c0.4-0.7,0.7-1.5,0.8-2.2
			c0.1-0.7-0.2-1.2-0.7-1.5c-0.3-0.2-0.6-0.4-0.9-0.6c-0.2-0.2-0.4-0.4-0.3-0.8c0.1-0.3,0.2-0.5,0.5-0.6c0.4-0.2,0.8-0.2,1.3-0.1
			c0.5,0.1,0.8,0.4,1.1,0.7c0.2,0.3,0.4,0.6,0.5,0.9c1.2,0.7,2.4,1.2,3.7,1.6c1.3,0.4,2.6,0.6,4.1,0.8c1.4,0.1,2.8-0.1,4.2-0.5
			c1.4-0.5,2.6-1.2,3.7-2.3C92.8,37.1,93,37,93.2,37z M79,20c-0.5,0.1-1.3,0.9-2.2,2.4c-0.9,1.5-1.9,3.4-2.9,5.8s-1.8,4.7-2.4,6.9
			c-0.1,0.1,0,0.2,0.1,0.3c0.1,0.1,0.2,0.1,0.4-0.1c1.5-2.1,2.9-4.2,4.1-6.5c1-1.7,1.8-3.3,2.3-4.6c0.5-1.4,0.9-2.3,1-2.9
			c0.1-0.6,0.1-1,0-1.2c0-0.1-0.1-0.1-0.2-0.1C79.2,20,79.1,20,79,20z"/>
		<path class="st0" d="M118.9,36.6c0.2,0,0.4,0.1,0.6,0.2c0.2,0.2,0.2,0.4,0.2,0.6s-0.1,0.4-0.2,0.6c-2,1.9-4.5,3.4-7.4,4.5
			c-2.9,1.1-5.6,1.6-8,1.6c-1.2,0.1-2.3-0.2-3.4-0.6c-0.5-0.3-0.9-0.6-1.1-0.9c-0.3-0.4-0.5-0.7-0.5-1.1C99,41.1,99,40.8,99,40.4
			c0-0.3,0.1-0.6,0.2-1.1c0.1-0.4,0.2-0.7,0.4-0.9c0.1-0.2,0.2-0.5,0.4-0.8c0.1-0.1,0-0.2-0.2-0.2c-0.1,0-0.2,0.1-0.4,0.1
			c-1.1,0.6-2.4,0.9-3.6,0.8c-0.6,0-1.1-0.1-1.7-0.4c-0.2,0.1-0.4,0.1-0.6-0.1c-0.4-0.2-0.5-0.4-0.4-0.8c-0.3-0.4-0.5-0.8-0.6-1.3
			c-0.2-0.8-0.2-1.7,0.1-2.5s0.8-1.5,1.5-2.1c0.9-0.5,1.5-0.5,2.1-0.1c0.7,0.6,0.5,2.2-0.7,4.8c-0.1,0.1,0,0.2,0.1,0.4
			c0.1,0.2,0.2,0.2,0.4,0.2c1.2,0,2.3-0.3,3.4-0.9c0.3-0.2,0.5-0.3,0.8-0.4c0.2-0.1,0.4-0.1,0.8-0.1c0.4,0,0.6,0.1,0.9,0.4
			c0.3,0.2,0.4,0.5,0.4,0.8c0,0.4,0,0.6-0.1,0.8c-0.1,0.2-0.2,0.6-0.5,1c-0.5,0.9-0.8,1.7-0.8,2.3c0,0.6,0.4,1.1,1.1,1.4
			c0.4,0.2,1.1,0.4,2,0.4c0.9,0.1,2-0.1,3.3-0.2c1.2-0.2,2.5-0.5,3.9-0.9s2.7-1,4.1-1.8c1.4-0.8,2.6-1.6,3.6-2.6
			C118.5,36.7,118.7,36.6,118.9,36.6z M93.7,35.2c0.4-0.8,0.6-1.6,0.9-2.5C93.9,33.4,93.6,34.2,93.7,35.2z"/>
		<path class="st0" d="M139.9,35.9c0.2,0,0.4,0.1,0.6,0.2c0.2,0.2,0.2,0.4,0.2,0.6c0,0.2-0.1,0.4-0.2,0.5c-1.2,1.2-2.6,2.3-4.2,3.1
			c-1.5,0.8-3.1,1.4-4.5,1.7c-1.5,0.3-2.8,0.5-4.2,0.5c-1.3,0-2.5-0.2-3.5-0.5c-0.1-0.1-0.2,0-0.4,0.2c-0.3,0.6-0.6,1.1-1.2,1.5
			c-0.5,0.4-1.2,0.6-1.8,0.6c-0.7,0-1.3-0.2-1.9-0.5c-0.8-0.4-1.4-0.9-1.6-1.7c-0.4-0.8-0.4-1.6-0.1-2.4c0.3-1.1,0.8-2.1,1.7-2.9
			c0.9-0.9,1.7-1.4,2.4-1.4h0.1c0.2,0,0.4,0.1,0.6,0.2c0.2,0.2,0.2,0.4,0.2,0.6s-0.1,0.4-0.2,0.5c-0.2,0.2-0.4,0.2-0.6,0.2
			c-0.4,0-0.8,0.4-1.4,1c-0.6,0.6-1,1.4-1.2,2.1c-0.2,0.5-0.2,0.9,0.1,1.4c0.2,0.5,0.5,0.8,0.9,0.9c0.4,0.3,0.8,0.4,1.2,0.4
			c0.5-0.1,0.8-0.2,1.1-0.6c0.4-0.5,0.5-0.8,0.2-0.9c-0.6-0.4-0.9-0.9-1.1-1.6c-0.1-0.7-0.1-1.3,0.4-1.9c0.8-1.4,1.6-1.8,2.4-1.4
			c0.4,0.2,0.6,0.7,0.8,1.4c0.1,0.6,0.1,1.4-0.1,2.1c-0.1,0.2,0,0.4,0.1,0.5c0.1,0.2,0.3,0.3,0.5,0.4c2.6,0.4,5.1,0.2,7.6-0.5
			c2.5-0.8,4.6-2.1,6.5-4C139.5,36.1,139.6,35.9,139.9,35.9z M123,39.7c0.1-0.5,0.1-1,0.1-1.5c-0.1,0.1-0.2,0.2-0.2,0.4
			c-0.1,0.2-0.2,0.4-0.2,0.6C122.7,39.4,122.8,39.6,123,39.7z"/>
		<path class="st0" d="M163.2,37.2c0.2,0,0.4,0.1,0.5,0.2c0.1,0.2,0.2,0.4,0.2,0.6c0,0.2-0.1,0.4-0.2,0.5c-0.2,0.2-0.4,0.4-0.7,0.6
			c-0.3,0.2-0.8,0.6-1.6,1.2c-0.8,0.6-1.6,1.1-2.4,1.6c-0.8,0.5-1.8,0.9-2.8,1.4c-1.1,0.5-2.1,0.8-3.2,1c-1,0.2-2.1,0.2-3.2,0.1
			c-1.1-0.2-2.1-0.5-3.1-1.1c-0.9-0.5-1.5-1.3-2.1-2.2c-0.1-0.2-0.4-0.4-0.6-0.4c-0.3,0-0.5,0.1-0.7,0.4c-0.7,1.1-1.5,2.1-2.4,2.8
			c-0.9,0.8-1.6,1.2-2.4,1.2h-0.1c-0.4,0-0.7-0.1-1.1-0.4c-0.3-0.2-0.5-0.5-0.7-0.8c-0.6-1.5-0.5-3.1,0.3-4.5
			c0.7-1.4,1.6-2.6,2.9-3.6c1.2-1,2.6-1.7,4.2-2.1c0.3-0.1,0.6,0,0.8,0.2c0.2,0.2,0.3,0.5,0.2,0.8c-0.1,0.3-0.3,0.5-0.6,0.6
			c-1.3,0.3-2.5,0.9-3.5,1.7c-1.1,0.8-1.8,1.9-2.4,3.1c-0.6,1-0.7,2-0.3,3.1c0.1,0.2,0.2,0.3,0.3,0.3c0.4,0.2,1-0.4,2.1-1.9
			c1-1.5,1.9-3.1,2.7-4.9c0.2-0.4,0.5-0.5,0.9-0.5c0.4,0.1,0.6,0.3,0.7,0.7c0,0.1,0.1,0.2,0.1,0.4c0.1,0.2,0.1,0.5,0.2,0.9
			c0.1,0.5,0.3,0.9,0.5,1.3c0.2,0.4,0.5,0.8,0.8,1.3c0.4,0.5,0.7,0.8,1.1,1.1c0.8,0.5,1.6,0.8,2.6,0.9c1,0.1,1.9,0.1,2.8-0.2
			s1.8-0.5,2.8-1c1-0.5,1.8-0.9,2.6-1.4c0.7-0.5,1.4-0.9,2.1-1.5c0.7-0.5,1.2-0.9,1.4-1.1c0.2-0.2,0.5-0.4,0.6-0.5
			C162.8,37.3,163,37.2,163.2,37.2z"/>
		<path class="st0" d="M190.8,37.7c0.2,0,0.4,0.1,0.6,0.2c0.2,0.2,0.2,0.4,0.2,0.6c0,0.2-0.1,0.4-0.2,0.6c-0.9,0.9-2,1.8-3.2,2.5
			c-1.2,0.8-2.4,1.4-3.5,1.8c-1.1,0.5-2.3,0.8-3.5,1.1c-1.2,0.3-2.2,0.5-3.2,0.4c-0.9,0-1.8-0.1-2.6-0.3c-1.1-0.4-2.1-1-2.9-1.8
			c-0.8-0.8-1.4-1.8-1.8-2.9c-0.1-0.2-0.2-0.3-0.4-0.3c-0.2,0-0.4,0.1-0.5,0.2c-2.5,3.5-4.5,5.2-6.1,5.2c-0.1,0-0.2,0-0.3-0.1
			c-0.5-0.1-0.9-0.2-1.3-0.5c-0.4-0.3-0.6-0.7-0.8-1.2c-0.3-1.1-0.3-2.1,0-3.4c0.3-1.2,0.7-2.1,1.2-2.8c1.5-1.7,2.9-2.4,4.3-1.9
			c0.5,0.2,1,0.5,1.4,0.9c0.4,0.4,0.7,0.9,0.8,1.5c0,0.2-0.1,0.4-0.2,0.6c-0.1,0.2-0.3,0.3-0.5,0.3c-0.2,0.1-0.4,0-0.6-0.1
			c-0.2-0.1-0.3-0.3-0.4-0.5c-0.2-0.5-0.6-0.9-1.2-1.1c-0.7-0.2-1.6,0.3-2.5,1.4c-0.9,1.4-1.2,2.9-0.9,4.5c0.1,0.4,0.4,0.6,0.8,0.6
			c0.5,0.1,1.2-0.4,2.1-1.2c0.9-0.8,2.1-2.2,3.3-4.1c0.2-0.3,0.4-0.6,0.6-0.9c0.2-0.4,0.3-0.8,0.3-1.2c-0.1-1.4-0.1-2.7,0.1-4
			c0.2-2.1,0.6-4.2,1.2-6.3s1.5-3.8,2.5-5.2c1-1.4,2.1-2.2,3.2-2.4c0.6-0.1,1.1,0.1,1.4,0.6c0.4,0.7,0.4,2.1-0.2,4.1
			c-0.5,2.1-1.4,4.2-2.5,6.6c-1.1,2.4-2.3,4.6-3.6,6.9c-0.3,0.5-0.4,0.9-0.2,1.5c0.6,2.9,1.9,4.6,4,5.4c0.6,0.1,1.3,0.2,2.1,0.2
			c0.8,0,1.7-0.1,2.8-0.4c1.1-0.3,2.1-0.6,3.2-1s2.1-1,3.2-1.7c1.1-0.7,2.1-1.5,3-2.4C190.4,37.8,190.6,37.7,190.8,37.7z
			 M171.7,32.2c-0.1,0.5,0,0.8,0.1,0.8c0.1,0,0.2-0.1,0.3-0.4c3.1-5.5,4.8-9.5,5.1-12.1c0-0.2-0.1-0.4-0.2-0.5
			c-0.2-0.1-0.4-0.1-0.5,0.1c-1.1,0.8-2,2.2-2.9,4.5S171.9,29.5,171.7,32.2z"/>
	</g>
</g>
</svg>
