<?xml version="1.0" encoding="utf-8"?>
<!-- Generator: Adobe Illustrator 27.7.0, SVG Export Plug-In . SVG Version: 6.00 Build 0)  -->
<svg version="1.1" id="Layer_1" xmlns="http://www.w3.org/2000/svg" xmlns:xlink="http://www.w3.org/1999/xlink" x="0px" y="0px"
	 viewBox="0 0 380 330" style="enable-background:new 0 0 380 330;" xml:space="preserve">
<style type="text/css">
	.st0{fill:#72B5E8;}
	.st1{fill:#A8CFF0;}
	.st2{fill:#D1EBFF;}
	.st3{fill:#FFFFFF;}
	.st4{fill:#EB4680;}
	.st5{fill:#D62D69;}
	.st6{opacity:0.7;fill:#FFFFFF;enable-background:new    ;}
	.st7{fill:#3F92D1;}
	.st8{fill:#4F9FDB;}
	.st9{fill:#03336E;}
	.st10{fill:#001A46;}
	.st11{fill:#FFCC00;}
	.st12{fill:#0FBAB8;}
	.st13{fill:#2672AB;}
	.st14{fill:#084C94;}
	.st15{fill:#0BA19F;}
	.st16{fill:#FFD70F;}
	.st17{fill:#D99F00;}
	.st18{fill:#B08100;}
	.st19{fill:#FFDE17;}
	.st20{fill:#3ECFCD;}
	.st21{fill:#F76195;}
	.st22{opacity:0.2;fill:#92B4D1;enable-background:new    ;}
</style>
<g>
	<g>
		<g>
			<path class="st0" d="M65,191.2c2.5,2.8,6.7,3.2,11.5,0.4c7.7-4.5,13.9-15.2,13.9-24c0-6-2.9-9.5-7.1-9.8c1.4,1.7,2.3,4.2,2.3,7.5
				c0,8.8-6.2,19.6-13.9,24C69.3,190.7,66.9,191.3,65,191.2z"/>
			<path class="st1" d="M58.6,189.5l-5.6,7.2c0.5,2.2,1.4,4.1,2.5,5.6l6.4-5.5c1.1,1.1,2.5,1.9,4,2.3l-1.5,8.2
				c1.9,0.2,3.9,0,6.1-0.6l3.4-8.4c0.9-0.4,1.8-0.8,2.8-1.4c0.9-0.6,1.9-1.2,2.8-1.9l3.4,4.5c2.1-2,4.2-4.1,6.1-6.5l-1.7-6.5
				c1.5-2.2,2.9-4.5,4-6.9l6.4-1.9c1.1-2.8,1.9-5.7,2.5-8.5l-5.6-0.7c0.1-1.2,0.2-2.3,0.2-3.4s-0.1-2.1-0.2-3.1l5.6-7.2
				c-0.5-2.2-1.4-4.1-2.5-5.6l-6.4,5.5c-1.1-1.1-2.5-1.9-4-2.3l1.5-8.2c-1.9-0.2-3.9,0-6.1,0.6l-3.4,8.4c-0.9,0.4-1.8,0.8-2.8,1.4
				c-0.9,0.6-1.9,1.2-2.8,1.9l-3.4-4.5c-2.1,2-4.2,4.1-6.1,6.5l1.5,6.5c-1.5,2.2-2.9,4.5-4,6.9l-6.4,1.9c-1.1,2.8-1.9,5.7-2.5,8.5
				l5.6,0.7c-0.1,1.2-0.2,2.3-0.2,3.4S58.3,188.5,58.6,189.5z M62.6,183.7c0-8.8,6.2-19.6,13.9-24c7.7-4.4,13.9-0.9,13.9,7.9
				s-6.2,19.6-13.9,24S62.6,192.5,62.6,183.7z"/>
			<polygon class="st0" points="79.5,153.3 82.9,144.9 77.5,141.8 74.1,150.2 			"/>
			<path class="st2" d="M74.2,150.2c-0.9,0.4-1.8,0.8-2.8,1.4c-0.3,0.1-0.9,0.5-0.9,0.5l0,0l3.4,4.5c0.9-0.7,1.8-1.3,2.8-1.9
				c0.9-0.6,1.9-1,2.8-1.4L74.2,150.2z"/>
			<path class="st2" d="M82.9,144.9c2.1-0.6,4.2-0.8,6.1-0.6l-5.4-3.1c-1.9-0.2-3.9,0-6.1,0.6L82.9,144.9z"/>
			<path class="st2" d="M64.3,158.6c1.9-2.4,3.9-4.6,6.1-6.5L65,149c-2.1,2-4.2,4.1-6.1,6.5L64.3,158.6z"/>
			<polygon class="st0" points="58.9,155.5 60.4,161.9 65.8,165 64.3,158.6 			"/>
			<path class="st0" d="M60.4,161.9c-1.5,2.2-2.9,4.5-4,6.9l5.4,3.1c1.1-2.4,2.5-4.7,4-6.9L60.4,161.9z"/>
			<polygon class="st2" points="56.4,168.8 50,170.7 55.4,173.8 61.8,171.9 			"/>
			<path class="st0" d="M50,170.7c-1.1,2.8-1.9,5.7-2.5,8.5l5.4,3.1c0.5-2.8,1.4-5.7,2.5-8.5L50,170.7z"/>
			<path class="st0" d="M91.5,154.8l6.4-5.5l-5.4-3.1l-4.6,3.9l-0.4,2.4C89,152.9,90.4,153.7,91.5,154.8z"/>
			<path class="st0" d="M47.5,193.6c0.5,2.2,1.4,4.1,2.5,5.6l5.4,3.1c-1.1-1.6-1.9-3.4-2.5-5.6L47.5,193.6z"/>
			<path class="st0" d="M58.5,189.5c-0.1-1-0.2-2-0.2-3.1c0-1.1,0.1-2.3,0.2-3.4l-5.6-0.7c0,0.3,0,0.7,0,1c0,1.1,0.1,2.1,0.2,3.1
				L58.5,189.5z"/>
			<polygon class="st2" points="53.1,186.4 47.5,193.6 52.9,196.7 58.5,189.5 			"/>
			<path class="st0" d="M60,198.4l-1.1,5.8l5.4,3.1l1.5-8.2c-1.5-0.4-2.9-1.2-4-2.3L60,198.4z"/>
			<path class="st2" d="M94.8,168.6l5.6,0.7l-5.4-3.2C95,166.9,94.9,167.7,94.8,168.6z"/>
			<path class="st0" d="M77.5,196.4l5.4,3.1l-3.4-4.5C78.8,195.5,78.1,195.9,77.5,196.4z"/>
			<g>
				<path class="st3" d="M88.9,153.2c-0.3-0.2-0.5-0.3-0.8-0.3l0,0C88.4,152.9,88.7,153,88.9,153.2z"/>
				<path class="st3" d="M95.5,168.9l4.6,0.6c0.1-0.1,0.1-0.2,0.1-0.3l-4.7-0.6C95.5,168.7,95.5,168.8,95.5,168.9z"/>
				<path class="st3" d="M70.3,152.7l-0.2-0.7c-2.1,2-4.2,4.1-6.1,6.5l1.5,6.5c-1.5,2.2-2.9,4.5-4,6.9l-6.4,1.9
					c-1.1,2.8-1.9,5.7-2.5,8.5l0.6,0.1c0.6-2.7,1.4-5.5,2.5-8.2l6.4-1.9c1.1-2.4,2.5-4.7,4-6.9l-1.5-6.5
					C66.3,156.7,68.3,154.6,70.3,152.7z"/>
				<path class="st3" d="M67.7,193c-0.2,0-0.4,0-0.6-0.1c2.5,1.4,6,1.2,9.9-1c7.7-4.5,13.9-15.2,13.9-24c0-4.2-1.5-7.2-3.8-8.7
					c2,1.6,3.2,4.4,3.2,8.3c0,8.8-6.2,19.6-13.9,24C73.1,193.4,70,193.8,67.7,193z"/>
				<path class="st3" d="M62.5,197.2l-0.2,0.2c0.7,0.6,1.6,1.1,2.5,1.4C63.9,198.4,63.1,197.8,62.5,197.2z"/>
				<path class="st3" d="M97.7,149.8c0.3,0,0.2-0.3,0-0.5l-6.2,5.2c0.2,0.2,0.4,0.4,0.2,0.4L97.7,149.8z"/>
				<path class="st3" d="M65.4,199.2l-1.5,8.1c0.3,0,0.7,0,0.5,0l1.5-7.9C66.1,199.3,65.8,199.2,65.4,199.2z"/>
				<path class="st3" d="M58.3,189.4l-5.6,7.2c0.5,2.2,1.4,4.1,2.5,5.6v-0.4c-0.8-1.4-1.5-3-2-4.8l5.6-7.2c-0.1-1-0.2-2-0.2-3.1
					c0-1.1,0.1-2.3,0.2-3.4h-0.6c-0.1,1.1-0.2,2.1-0.2,3.1C58,187.5,58.1,188.5,58.3,189.4z"/>
				<path class="st3" d="M88.6,144.7l0.1-0.4c-1.9-0.2-3.9,0-6.1,0.6l-3.4,8.4c-0.9,0.4-1.8,0.8-2.8,1.4c-0.8,0.5-1.6,1-2.4,1.6
					l0.1,0.5c0.9-0.7,1.8-1.3,2.8-1.9c0.9-0.6,1.9-1,2.8-1.4l3.4-8.4C84.9,144.6,87.1,144.6,88.6,144.7z"/>
				<path class="st3" d="M79.7,195.6l2.9,3.8c0.2-0.1,0.3-0.2,0.4-0.3l-2.9-3.7C80,195.5,79.8,195.5,79.7,195.6z"/>
			</g>
		</g>
		<g>
			<path class="st0" d="M63.4,126.1c3.8,4.3,10.2,4.9,17.4,0.7c11.5-6.6,20.9-22.8,20.9-36c0-8.9-4.3-14.2-10.6-14.7
				c2.2,2.5,3.5,6.3,3.5,11.2c0,13.2-9.4,29.3-20.9,36C70,125.4,66.5,126.3,63.4,126.1z"/>
			<path class="st1" d="M53.8,123.6l-8.4,10.8c0.8,3.3,2.1,6.1,3.8,8.4l9.6-8.2c1.7,1.6,3.7,2.8,6,3.4l-2.3,12.4
				c2.8,0.3,5.9,0,9.2-0.9l5.2-12.7c1.4-0.5,2.8-1.2,4.2-2c1.4-0.9,2.8-1.9,4.2-2.9l5.2,6.7c3.3-2.9,6.3-6.1,9.2-9.7l-2.3-9.7
				c2.3-3.2,4.3-6.7,6-10.3l9.6-2.9c1.6-4.3,2.9-8.5,3.8-12.8l-8.4-1.1c0.3-1.7,0.4-3.4,0.4-5.1s-0.2-3.2-0.4-4.7l8.4-10.8
				c-0.8-3.3-2.1-6.1-3.8-8.4l-9.6,8.2c-1.7-1.6-3.7-2.8-6-3.4l2.3-12.4c-2.8-0.3-5.9,0-9.2,0.9l-5.2,12.7c-1.4,0.5-2.8,1.2-4.2,2
				C79.7,72,78.3,73,76.9,74l-5.2-6.7c-3.3,2.9-6.3,6.1-9.2,9.7l2.3,9.7c-2.3,3.2-4.3,6.7-6,10.3l-9.6,2.9
				c-1.6,4.3-2.9,8.5-3.8,12.8l8.4,1.1c-0.3,1.7-0.4,3.4-0.4,5.1C53.4,120.5,53.6,122.1,53.8,123.6z M59.9,114.8
				c0-13.2,9.4-29.3,20.9-36s20.9-1.3,20.9,11.9s-9.4,29.3-20.9,36S59.9,128,59.9,114.8z"/>
			<polygon class="st0" points="85.3,69.1 90.5,56.4 82.4,51.8 77.2,64.5 			"/>
			<path class="st2" d="M77.2,64.5c-1.4,0.5-2.8,1.2-4.2,2c-0.4,0.3-1.3,0.8-1.3,0.8l0,0l5.2,6.7c1.4-1.1,2.8-2.1,4.2-2.9
				s2.8-1.4,4.2-2L77.2,64.5z"/>
			<path class="st2" d="M90.5,56.4c3.3-0.9,6.3-1.2,9.2-0.9l-8.1-4.6c-2.8-0.3-5.9,0-9.2,0.9L90.5,56.4z"/>
			<path class="st2" d="M62.5,77c2.8-3.5,5.9-6.8,9.2-9.7l-8.1-4.6c-3.3,2.9-6.3,6.1-9.2,9.7L62.5,77z"/>
			<polygon class="st0" points="54.4,72.4 56.7,82.1 64.8,86.7 62.5,77 			"/>
			<path class="st0" d="M56.7,82.1c-2.3,3.2-4.3,6.7-6,10.3l8.1,4.6c1.7-3.6,3.7-7.1,6-10.3L56.7,82.1z"/>
			<polygon class="st2" points="50.7,92.4 41.1,95.3 49.2,100 58.8,97.1 			"/>
			<path class="st0" d="M41.1,95.4c-1.6,4.3-2.9,8.5-3.8,12.8l8.1,4.6c0.8-4.3,2.1-8.6,3.8-12.8L41.1,95.4z"/>
			<path class="st0" d="M103.4,71.3l9.6-8.2l-8.1-4.6l-6.8,5.8l-0.7,3.6C99.7,68.5,101.7,69.6,103.4,71.3z"/>
			<path class="st0" d="M37.2,129.8c0.8,3.3,2.1,6.1,3.8,8.4l8.1,4.6c-1.6-2.3-2.9-5.1-3.8-8.4L37.2,129.8z"/>
			<path class="st0" d="M53.8,123.6c-0.3-1.5-0.4-3-0.4-4.7s0.2-3.4,0.4-5.1l-8.4-1.1c-0.1,0.5-0.1,1-0.1,1.5c0,1.7,0.2,3.2,0.4,4.7
				L53.8,123.6z"/>
			<polygon class="st2" points="45.7,118.9 37.3,129.7 45.3,134.4 53.8,123.5 			"/>
			<path class="st0" d="M56,136.9l-1.6,8.8l8.1,4.6l2.3-12.4c-2.3-0.6-4.3-1.7-6-3.4L56,136.9z"/>
			<path class="st2" d="M108.4,92l8.4,1.1l-8.1-4.8C108.7,89.5,108.6,90.8,108.4,92z"/>
			<path class="st0" d="M82.3,133.9l8.2,4.6l-5.2-6.7C84.4,132.5,83.4,133.2,82.3,133.9z"/>
			<g>
				<path class="st3" d="M99.5,68.8c-0.3-0.2-0.7-0.4-1.1-0.5v0.1C98.8,68.6,99.2,68.7,99.5,68.8z"/>
				<path class="st3" d="M109.3,92.5l7,0.9c0-0.1,0.1-0.3,0.1-0.4l-7-0.9C109.4,92.3,109.4,92.4,109.3,92.5z"/>
				<path class="st3" d="M71.5,68.4l-0.3-1.1c-3.3,2.9-6.3,6.1-9.2,9.7l2.3,9.7c-2.3,3.2-4.3,6.7-6,10.3l-9.6,2.9
					c-1.6,4.3-2.9,8.5-3.8,12.8l1,0.2c0.8-4.1,2.1-8.3,3.7-12.4l9.6-2.9c1.7-3.6,3.7-7.1,6-10.3l-2.3-9.7
					C65.6,74.2,68.5,71.1,71.5,68.4z"/>
				<path class="st3" d="M67.6,128.8c-0.3-0.1-0.6-0.1-0.9-0.2c3.8,2.3,9.1,2,14.9-1.4c11.5-6.6,20.9-22.8,20.9-36
					c0-6.3-2.2-10.8-5.7-13.1c3.1,2.4,4.9,6.7,4.9,12.5c0,13.2-9.4,29.3-20.9,36C75.7,129.5,71.2,130.1,67.6,128.8z"/>
				<path class="st3" d="M59.8,135.1l-0.4,0.3c1.1,0.9,2.4,1.6,3.8,2.1C62,136.9,60.8,136.1,59.8,135.1z"/>
				<path class="st3" d="M112.7,63.8c0.4,0,0.2-0.4-0.1-0.8l-9.3,7.9c0.4,0.3,0.8,0.6,0.4,0.6L112.7,63.8z"/>
				<path class="st3" d="M64.4,138l-2.3,12.2c0.5,0.1,1,0.1,0.7,0.1l2.2-11.8C65.3,138.4,64.8,138.2,64.4,138z"/>
				<path class="st3" d="M53.3,123.7l-8.4,10.8c0.8,3.3,2.1,6.1,3.8,8.4l0.1-0.7c-1.3-2.1-2.4-4.5-3.1-7.2l8.4-10.8
					c-0.3-1.5-0.4-3-0.4-4.7s0.2-3.4,0.4-5.1l-0.8-0.1c-0.2,1.5-0.3,3.1-0.3,4.6C53,120.5,53.2,122,53.3,123.7z"/>
				<path class="st3" d="M99.2,56.1l0.1-0.5c-2.8-0.3-5.9,0-9.2,0.9l-5.2,12.7c-1.4,0.5-2.8,1.2-4.2,2c-1.2,0.7-2.4,1.5-3.6,2.4
					l0.2,0.8c1.4-1.1,2.8-2.1,4.2-2.9c1.4-0.8,2.8-1.4,4.2-2l5.2-12.7C93.6,56,96.8,56,99.2,56.1z"/>
				<path class="st3" d="M85.7,132.8l4.4,5.7c0.1-0.2,0.3-0.3,0.5-0.5l-4.3-5.6C86.1,132.5,85.9,132.7,85.7,132.8z"/>
			</g>
		</g>
		<path class="st4" d="M68.8,54.4c-1.1,0.6-2,0-2.1-1.3s0.7-2.9,1.8-3.5c1.1-0.6,2,0,2.1,1.3S69.9,53.8,68.8,54.4z"/>
		<path class="st4" d="M75.4,213.3c-0.7,0.4-1.4,0-1.4-0.9c-0.1-0.9,0.5-2,1.2-2.4c0.7-0.4,1.4,0,1.4,0.9
			C76.7,211.8,76.1,212.8,75.4,213.3z"/>
		<g>
			<path class="st4" d="M37.4,146.1l-4.8-1.5c-0.2-0.1-0.4-0.3-0.3-0.6c0.1-0.2,0.3-0.4,0.6-0.3l3.5,1.1l-1.8-3
				c-0.1-0.3,0-0.6,0.2-0.7c0.3-0.1,0.6,0,0.7,0.2l2.4,4.1c0.1,0.2,0.1,0.4,0,0.6c-0.1,0.1-0.2,0.2-0.4,0.2
				C37.5,146.2,37.4,146.2,37.4,146.1z"/>
		</g>
		<g>
			<path class="st5" d="M82.5,163.7c0.1,0,2,1.1,2.1,1.1c0.9,0.5,0.2,1,0.2,2.7c0,6.2-10,19.5-10,19.5s-10.5-2.1-10.5-8.2
				c0-3.3,2.4-7.4,5.3-9.1c1.3-0.7,2.5-0.9,3.4-0.5c0.4,0.2,1.5,0.5,1.5,0.5c1-2.2,2.6-4.3,4.5-5.4
				C80.4,163.5,81.6,163.4,82.5,163.7z"/>
			<path class="st4" d="M86.1,168.2c0,6.2-10,19.5-10,19.5s-10-1.8-10-7.9c0-3.3,2.4-7.4,5.3-9.1c2.1-1.1,3.8-0.8,4.7,0.6
				c0.9-2.5,2.7-4.8,4.7-6C83.7,163.6,86.1,164.9,86.1,168.2z"/>
			<g>
				<path class="st6" d="M84.4,164.8c-1-0.5-2.2-0.3-3.8,0.6c-2,1.1-3.7,3.3-4.6,5.6c0.3,0.2,0,0.1,0.2,0.4c0.9-2.5,2.9-4.8,4.9-6
					C82.3,164.7,83.4,164.5,84.4,164.8z"/>
				<path class="st6" d="M66,179.9c0,3.1,2.3,4.9,4.9,6.1c-2.3-1.2-4.5-3.2-4.5-6c0-3.3,2.4-7.4,5.3-9.1c1.2-0.7,2.3-0.9,3.2-0.6
					c-0.8-0.5-2-0.5-3.6,0.4C68.4,172.3,66,176.4,66,179.9z"/>
			</g>
		</g>
		<g>
			<path class="st4" d="M27.5,121.7c0-25.6,18.2-57,40.6-69.9l0.5,0.9c-22.1,12.8-40.1,43.8-40.1,69.1c0,10.1,2.8,18.1,8.2,23
				l-0.7,0.7C30.4,140.4,27.4,132.2,27.5,121.7z"/>
		</g>
		<g>
			<g>
				<path class="st1" d="M19.6,128c0-0.3,0-0.7,0-1s0.2-0.5,0.5-0.5s0.5,0.2,0.5,0.5s0,0.7,0,1s-0.2,0.5-0.5,0.5l0,0
					C19.9,128.5,19.6,128.2,19.6,128z"/>
			</g>
			<g>
				<path class="st1" d="M47.7,163.1c-0.7,0-1.4,0-2-0.1c-0.3,0-0.5-0.2-0.5-0.5s0.2-0.5,0.5-0.5c0.7,0.1,1.3,0.1,2,0.1
					c0.3,0,0.5,0.2,0.5,0.5S48,163.1,47.7,163.1L47.7,163.1z M50,162.5c0-0.2,0.2-0.5,0.5-0.5c0.6,0,1.2-0.1,1.9-0.2
					c0.3-0.1,0.6,0.1,0.6,0.4c0.1,0.3-0.1,0.6-0.4,0.6c-0.6,0.1-1.3,0.1-2,0.2c0.1,0,0,0,0,0C50.4,163,50.2,162.8,50,162.5z
					 M42.7,162.6c-0.7-0.1-1.4-0.2-2-0.4c-0.3-0.1-0.5-0.3-0.4-0.6c0.1-0.3,0.3-0.5,0.6-0.4c0.6,0.1,1.3,0.3,1.9,0.4
					c0.3,0.1,0.4,0.3,0.4,0.6C43.1,162.4,42.9,162.6,42.7,162.6L42.7,162.6z M37.7,161.3c-0.6-0.2-1.2-0.5-1.8-0.8
					c-0.2-0.2-0.3-0.5-0.2-0.7c0.2-0.2,0.5-0.3,0.7-0.2c0.6,0.3,1.2,0.6,1.8,0.8c0.3,0.1,0.4,0.3,0.3,0.6c-0.1,0.2-0.3,0.3-0.5,0.3
					C37.9,161.3,37.8,161.3,37.7,161.3z M33.3,159c-0.5-0.4-1.1-0.8-1.6-1.2c-0.2-0.2-0.3-0.5-0.1-0.7c0.2-0.2,0.5-0.3,0.7-0.1
					c0.5,0.4,1.1,0.7,1.6,1.1c0.2,0.2,0.3,0.5,0.1,0.7c-0.1,0.1-0.2,0.2-0.4,0.2C33.5,159,33.4,159,33.3,159z M29.4,155.8
					c-0.5-0.5-1-1-1.4-1.5c-0.1-0.2-0.1-0.5,0.1-0.7c0.2-0.1,0.5-0.1,0.7,0.1c0.4,0.5,0.8,0.9,1.3,1.4c0.2,0.2,0.2,0.5,0,0.7
					c-0.1,0.1-0.3,0.1-0.4,0.1S29.5,155.8,29.4,155.8z M26.2,151.9c-0.4-0.6-0.8-1.1-1.1-1.7c-0.1-0.3,0-0.6,0.2-0.7
					c0.3-0.1,0.6,0,0.7,0.2c0.3,0.5,0.6,1.1,1,1.6c0.2,0.2,0.1,0.5-0.1,0.7c-0.1,0.1-0.2,0.1-0.3,0.1
					C26.4,152.1,26.3,152,26.2,151.9z M23.5,147.4c-0.3-0.6-0.5-1.2-0.8-1.8c-0.1-0.3,0-0.6,0.3-0.7c0.3-0.1,0.6,0,0.7,0.3
					c0.3,0.6,0.5,1.2,0.8,1.8c0.2,0.3,0,0.6-0.2,0.7c-0.1,0-0.1,0-0.2,0C23.9,147.7,23.8,147.6,23.5,147.4z M21.9,142.7
					c-0.2-0.6-0.4-1.2-0.6-1.9c0-0.3,0.1-0.5,0.4-0.6c0.3,0,0.5,0.1,0.6,0.4c0.1,0.7,0.3,1.3,0.5,1.9c0.1,0.2,0,0.5-0.3,0.6
					c-0.1,0-0.2,0-0.2,0C22.1,143.1,21.9,143,21.9,142.7z M20.6,138c-0.1-0.7-0.2-1.3-0.3-2c-0.1-0.3,0.1-0.6,0.4-0.6
					c0.3-0.1,0.6,0.1,0.6,0.4c0.1,0.6,0.2,1.3,0.3,1.9c0,0.3-0.1,0.5-0.5,0.6c0.1,0,0,0,0,0C20.9,138.3,20.7,138.1,20.6,138z
					 M19.9,132.9c-0.1-0.7-0.2-1.3-0.2-2c0-0.2,0.2-0.5,0.5-0.5s0.5,0.2,0.5,0.5c0.1,0.7,0.1,1.4,0.2,2c0,0.2-0.2,0.5-0.5,0.5l0,0
					C20.2,133.4,19.9,133.2,19.9,132.9z"/>
			</g>
			<g>
				<path class="st1" d="M55.1,161.8c0-0.3,0.1-0.5,0.4-0.6c0.4,0,0.7-0.1,1-0.2c0.3,0,0.5,0.1,0.6,0.4c0,0.3-0.1,0.5-0.4,0.6
					c-0.3,0.1-0.7,0.1-1,0.2h-0.1C55.4,162.2,55.2,162.1,55.1,161.8z"/>
			</g>
		</g>
		<g>
			<g>
				<path class="st1" d="M119.6,83.1c-0.3-0.1-0.5-0.3-0.5-0.6c0.1-0.3,0.1-0.7,0.2-1s0.3-0.4,0.6-0.4c0.3,0.1,0.4,0.3,0.4,0.6
					c-0.1,0.3-0.1,0.7-0.2,1C120,82.9,119.8,83.1,119.6,83.1L119.6,83.1z"/>
			</g>
			<g>
				<path class="st1" d="M27.2,93.2c-0.3-0.2-0.4-0.4-0.3-0.7c0.3-0.6,0.5-1.3,0.8-1.9c0.2-0.3,0.4-0.4,0.7-0.3
					c0.3,0.2,0.4,0.4,0.3,0.7c-0.3,0.7-0.5,1.3-0.8,1.9c-0.1,0.2-0.3,0.3-0.5,0.3C27.4,93.2,27.3,93.2,27.2,93.2z M29.2,88.5
					c-0.2-0.2-0.3-0.4-0.2-0.7c0.3-0.6,0.6-1.2,0.9-1.8c0.2-0.2,0.5-0.3,0.7-0.2c0.2,0.2,0.3,0.5,0.2,0.7c-0.3,0.6-0.6,1.2-0.9,1.8
					c-0.1,0.2-0.3,0.3-0.5,0.3C29.4,88.6,29.3,88.6,29.2,88.5z M31.3,83.9c-0.2-0.2-0.3-0.5-0.2-0.7c0.3-0.6,0.6-1.2,0.9-1.8
					c0.2-0.2,0.5-0.3,0.7-0.2c0.2,0.2,0.3,0.5,0.2,0.7c-0.3,0.6-0.6,1.2-0.9,1.8c0,0.2-0.2,0.3-0.4,0.3C31.6,84,31.5,84,31.3,83.9z
					 M33.7,79.4c-0.2-0.2-0.3-0.5-0.2-0.7c0.3-0.6,0.7-1.2,1-1.8c0.2-0.3,0.5-0.3,0.7-0.2c0.3,0.2,0.3,0.5,0.2,0.7
					c-0.3,0.6-0.7,1.2-1,1.8c-0.1,0.2-0.2,0.3-0.4,0.3C33.9,79.5,33.9,79.5,33.7,79.4z M120.2,79.1c-0.3-0.1-0.5-0.3-0.5-0.6
					c0-0.7,0.1-1.3,0.2-2c0.1-0.2,0.3-0.4,0.6-0.4c0.2,0.1,0.4,0.3,0.4,0.6c0,0.6-0.1,1.3-0.2,2C120.7,78.9,120.4,79.1,120.2,79.1
					L120.2,79.1z M36.3,75.2C36,75,36,74.7,36.1,74.5c0.4-0.6,0.7-1.1,1.1-1.7c0.2-0.3,0.5-0.3,0.7-0.2c0.3,0.2,0.3,0.5,0.2,0.7
					c-0.4,0.6-0.7,1.1-1.1,1.7c-0.1,0.1-0.2,0.2-0.4,0.2C36.5,75.2,36.4,75.2,36.3,75.2z M120.8,74c-0.4,0-0.6-0.2-0.5-0.5
					c0-0.7,0.1-1.3,0.1-2c0-0.3,0.2-0.5,0.5-0.5l0,0c0.3,0,0.5,0.2,0.5,0.5c0,0.6-0.1,1.3-0.1,2C121.3,73.8,121.1,74,120.8,74
					C120.7,74,120.7,74,120.8,74z M39,70.8c-0.2-0.2-0.3-0.5-0.1-0.7c0.3-0.6,0.7-1.1,1.1-1.7c0.2-0.2,0.5-0.3,0.7-0.1
					s0.3,0.5,0.1,0.7c-0.3,0.6-0.7,1.1-1.1,1.7c-0.1,0.1-0.2,0.2-0.4,0.2C39.2,70.9,39.1,70.9,39,70.8z M120.4,68.5c0-0.7,0-1.3,0-2
					c0-0.3,0.2-0.5,0.5-0.5l0,0c0.3,0,0.5,0.2,0.5,0.5c0,0.6,0,1.3,0,2c0,0.3-0.2,0.5-0.5,0.5l0,0C120.6,69,120.4,68.8,120.4,68.5z
					 M42,66.7c-0.2-0.2-0.3-0.5-0.1-0.7c0.4-0.5,0.8-1.1,1.2-1.6c0.2-0.2,0.5-0.3,0.7-0.1s0.3,0.5,0.1,0.7c-0.4,0.5-0.8,1.1-1.2,1.6
					c-0.1,0.1-0.2,0.2-0.4,0.2C42.2,66.8,42,66.8,42,66.7z M120.2,63.6c-0.1-0.7-0.1-1.3-0.2-2c-0.1-0.3,0.1-0.6,0.4-0.6
					c0.3-0.1,0.6,0.1,0.6,0.4c0.1,0.6,0.1,1.3,0.2,2c0,0.2-0.2,0.5-0.5,0.5l0,0C120.4,63.9,120.2,63.7,120.2,63.6z M45,62.7
					c-0.2-0.2-0.3-0.5-0.1-0.7c0.4-0.6,0.9-1.1,1.3-1.6c0.2-0.2,0.5-0.3,0.7-0.1s0.3,0.5,0.1,0.7c-0.5,0.6-0.9,1.1-1.3,1.6
					c-0.1,0.1-0.3,0.2-0.4,0.2C45.2,62.8,45.1,62.8,45,62.7z M48.2,58.7c-0.2-0.2-0.2-0.5,0-0.7c0.5-0.5,0.9-1,1.4-1.5
					c0.2-0.2,0.5-0.2,0.7,0s0.2,0.5,0,0.7c-0.4,0.5-0.9,1-1.3,1.5c-0.1,0.1-0.3,0.2-0.4,0.2S48.4,58.9,48.2,58.7z M119.5,58.5
					c-0.1-0.7-0.3-1.4-0.4-2c0-0.3,0.1-0.5,0.4-0.6c0.3,0,0.5,0.1,0.6,0.4c0.1,0.7,0.3,1.3,0.4,2c0,0.3-0.1,0.5-0.5,0.6
					c0.1,0,0.1,0,0,0C119.8,58.9,119.6,58.7,119.5,58.5z M51.7,55c-0.2-0.2-0.2-0.5,0-0.7c0.4-0.4,0.9-0.9,1.4-1.4
					c0.2-0.2,0.5-0.2,0.7,0s0.2,0.5,0,0.7c-0.5,0.4-0.9,0.9-1.4,1.4c-0.1,0.1-0.3,0.2-0.4,0.2S51.8,55.2,51.7,55z M118.3,53.7
					c-0.2-0.6-0.4-1.3-0.6-1.9c-0.1-0.2,0-0.5,0.3-0.6c0.2-0.1,0.5,0,0.6,0.3c0.2,0.6,0.4,1.2,0.6,1.9c0.1,0.2,0,0.5-0.3,0.6h-0.1
					C118.6,54,118.4,53.9,118.3,53.7z M55.3,51.6c-0.2-0.2-0.2-0.5,0-0.7c0.5-0.5,1-0.9,1.5-1.4c0.2-0.2,0.5-0.2,0.7,0
					s0.2,0.5,0,0.7c-0.5,0.5-1,0.9-1.5,1.4c-0.1,0.1-0.2,0.1-0.3,0.1C55.5,51.7,55.4,51.6,55.3,51.6z M116.6,49.1
					c-0.3-0.6-0.6-1.2-0.9-1.8c-0.1-0.3,0-0.6,0.2-0.7c0.3-0.1,0.6,0,0.7,0.2c0.3,0.6,0.6,1.2,0.9,1.8c0.2,0.3,0.1,0.6-0.2,0.7
					c-0.1,0-0.1,0-0.2,0C116.9,49.3,116.7,49.2,116.6,49.1z M59.1,48.1c-0.1-0.2-0.1-0.5,0.1-0.7c0.5-0.4,1.1-0.9,1.6-1.3
					c0.2-0.2,0.5-0.1,0.7,0.1c0.2,0.2,0.1,0.5-0.1,0.7c-0.6,0.4-1.1,0.9-1.6,1.3c-0.1,0.1-0.2,0.1-0.3,0.1
					C59.3,48.3,59.2,48.3,59.1,48.1z M62.9,45c-0.2-0.2-0.1-0.5,0.1-0.7c0.6-0.4,1.1-0.8,1.7-1.2c0.2-0.2,0.5-0.1,0.7,0.1
					c0.2,0.2,0.1,0.5-0.1,0.7c-0.5,0.4-1.1,0.8-1.6,1.2c-0.1,0.1-0.2,0.1-0.3,0.1S63.1,45.1,62.9,45z M114.2,44.6
					c-0.4-0.5-0.8-1.1-1.2-1.6c-0.2-0.2-0.1-0.5,0.1-0.7s0.5-0.1,0.7,0.1c0.4,0.6,0.8,1.1,1.2,1.7c0.2,0.2,0.1,0.5-0.1,0.7
					c-0.1,0.1-0.2,0.1-0.3,0.1C114.4,44.9,114.3,44.8,114.2,44.6z M67.2,42c-0.1-0.2,0-0.6,0.2-0.7c0.5-0.4,1.1-0.8,1.7-1.1
					c0.2-0.1,0.6,0,0.7,0.2c0.1,0.2,0,0.6-0.2,0.7c-0.6,0.4-1.1,0.7-1.7,1.1c-0.1,0.1-0.2,0.1-0.3,0.1C67.4,42.3,67.3,42.2,67.2,42z
					 M111.1,40.9c-0.4-0.5-0.9-1-1.4-1.4c-0.3-0.2-0.3-0.5-0.1-0.7c0.2-0.3,0.5-0.3,0.7-0.1c0.5,0.4,1,0.9,1.5,1.4
					c0.2,0.2,0.2,0.5,0,0.7c-0.1,0.1-0.3,0.1-0.4,0.1S111.1,40.9,111.1,40.9z M71.4,39.4c-0.1-0.3,0-0.6,0.2-0.7
					c0.6-0.3,1.2-0.6,1.8-0.9c0.3-0.1,0.6,0,0.7,0.2c0.1,0.3,0,0.6-0.2,0.7c-0.6,0.3-1.2,0.6-1.8,0.9c0,0.1-0.1,0.1-0.2,0.1
					S71.6,39.6,71.4,39.4z M107.2,37.6c-0.6-0.3-1.1-0.7-1.7-1c-0.2-0.2-0.3-0.5-0.2-0.7c0.2-0.2,0.5-0.3,0.7-0.2
					c0.6,0.4,1.2,0.7,1.8,1.1c0.2,0.2,0.3,0.5,0.1,0.7c-0.1,0.1-0.2,0.2-0.4,0.2C107.4,37.7,107.3,37.7,107.2,37.6z M75.9,37.3
					c-0.1-0.3,0-0.6,0.3-0.7c0.6-0.3,1.3-0.6,1.9-0.8c0.3-0.1,0.6,0,0.7,0.3c0.1,0.2,0,0.5-0.3,0.6c-0.6,0.3-1.2,0.5-1.8,0.8
					c-0.1,0-0.1,0-0.2,0C76.3,37.5,76.1,37.4,75.9,37.3z M80.7,35.4c-0.1-0.2,0-0.5,0.3-0.6c0.7-0.2,1.4-0.4,2-0.6
					c0.3-0.1,0.5,0,0.6,0.3c0.1,0.2,0,0.5-0.3,0.6c-0.6,0.2-1.3,0.4-1.9,0.6c-0.1,0-0.1,0-0.2,0C81,35.7,80.8,35.5,80.7,35.4z
					 M102.8,35.3c-0.6-0.2-1.3-0.4-1.9-0.6c-0.2-0.1-0.4-0.3-0.3-0.6c0.1-0.2,0.3-0.4,0.6-0.3c0.7,0.2,1.4,0.5,2,0.7
					c0.3,0.1,0.4,0.3,0.3,0.6c-0.1,0.2-0.3,0.3-0.5,0.3C103,35.4,102.9,35.4,102.8,35.3z M85.6,34.1c0-0.3,0.1-0.5,0.4-0.6
					c0.7-0.2,1.3-0.3,2-0.4c0.3-0.1,0.6,0.1,0.6,0.4c0.1,0.3-0.1,0.6-0.4,0.6c-0.7,0-1.3,0.2-2,0.3h-0.1
					C85.9,34.4,85.6,34.2,85.6,34.1z M98.2,34c-0.8-0.1-1.4-0.2-2-0.4c-0.2,0-0.4-0.2-0.4-0.5c0-0.2,0.2-0.4,0.5-0.4
					c0.6,0.1,1.3,0.2,2,0.3c0.3,0.1,0.4,0.3,0.4,0.6C98.6,33.8,98.4,34,98.2,34C98.1,34,98.1,34,98.2,34z M90.5,33.2
					c0-0.2,0.2-0.5,0.5-0.5c0.7-0.1,1.4-0.1,2.1-0.1c0.3,0,0.5,0.2,0.5,0.5s-0.2,0.5-0.5,0.5c-0.6,0-1.3,0.1-2,0.1l0,0
					C90.8,33.7,90.6,33.5,90.5,33.2z"/>
			</g>
			<g>
				<path class="st1" d="M25.9,97.1c-0.3-0.1-0.4-0.3-0.3-0.6l0.3-0.9c0.1-0.3,0.3-0.4,0.6-0.3s0.4,0.3,0.3,0.6l-0.3,0.9
					c-0.1,0.2-0.3,0.3-0.5,0.3C25.9,97.1,25.8,97,25.9,97.1z"/>
			</g>
		</g>
		<g>
			<g>
				<path class="st4" d="M43.9,171.7c-0.3-0.2-0.4-0.4-0.3-0.7c0.1-0.3,0.3-0.6,0.4-0.9c0.2-0.3,0.4-0.4,0.7-0.3
					c0.3,0.2,0.4,0.4,0.3,0.7c-0.2,0.3-0.3,0.6-0.4,0.9c-0.1,0.2-0.3,0.3-0.5,0.3C44,171.7,44,171.6,43.9,171.7z"/>
			</g>
			<g>
				<path class="st4" d="M57.5,217.7c0-0.3,0.2-0.5,0.5-0.5c0.6,0,1.3,0,1.9-0.1c0.2,0,0.5,0.2,0.5,0.5c0,0.2-0.2,0.5-0.5,0.5
					c-0.7,0.1-1.3,0.1-2,0.1l0,0C57.6,218.2,57.4,218,57.5,217.7z M54.9,218c-0.7-0.1-1.4-0.2-2-0.4c-0.3-0.1-0.5-0.3-0.4-0.6
					c0.1-0.3,0.3-0.5,0.6-0.4c0.6,0.2,1.3,0.3,1.9,0.4c0.3,0.1,0.4,0.3,0.4,0.6C55.4,217.8,55.1,218,54.9,218L54.9,218z M62.3,217.4
					c0-0.3,0.1-0.5,0.4-0.6c0.6-0.2,1.3-0.3,1.9-0.5c0.2-0.1,0.5,0,0.6,0.3c0.1,0.2,0,0.5-0.3,0.6c-0.7,0.2-1.4,0.4-2,0.5h-0.1
					C62.6,217.7,62.4,217.5,62.3,217.4z M50.1,216.6c-0.6-0.3-1.2-0.6-1.8-1c-0.3-0.2-0.3-0.5-0.2-0.7c0.2-0.3,0.5-0.3,0.7-0.2
					c0.6,0.3,1.1,0.6,1.7,0.9c0.2,0.2,0.3,0.5,0.2,0.7s-0.3,0.3-0.5,0.3C50.1,216.6,50.1,216.6,50.1,216.6z M66.9,215.9
					c-0.1-0.2,0-0.5,0.3-0.6c0.6-0.3,1.2-0.5,1.8-0.8c0.3-0.2,0.6-0.1,0.7,0.2c0.2,0.3,0.1,0.6-0.2,0.7c-0.6,0.3-1.2,0.6-1.8,0.8
					c-0.1,0-0.1,0-0.2,0C67.3,216.2,67.1,216.1,66.9,215.9z M45.8,213.6c-0.5-0.5-1-1-1.4-1.5c-0.1-0.2-0.1-0.5,0.1-0.7
					c0.2-0.1,0.5-0.1,0.7,0.1c0.4,0.5,0.8,1,1.3,1.4c0.2,0.2,0.2,0.5,0,0.7c-0.1,0.1-0.3,0.2-0.4,0.2S45.9,213.8,45.8,213.6z
					 M42.7,209.8c-0.4-0.6-0.7-1.2-1-1.8c-0.2-0.3,0-0.6,0.2-0.7c0.3-0.1,0.6,0,0.7,0.2c0.3,0.6,0.6,1.2,0.9,1.7
					c0.1,0.2,0,0.6-0.2,0.7c-0.1,0.1-0.2,0.1-0.3,0.1S42.7,209.9,42.7,209.8z M40.4,205.1c-0.2-0.6-0.4-1.2-0.6-1.9
					c0-0.3,0.1-0.5,0.4-0.6c0.3,0,0.5,0.1,0.6,0.4c0.2,0.7,0.4,1.3,0.6,1.9c0.1,0.2,0,0.5-0.3,0.6c-0.1,0-0.1,0-0.2,0
					C40.7,205.5,40.5,205.4,40.4,205.1z M39.3,200.3c-0.1-0.7-0.2-1.3-0.3-2c-0.1-0.2,0.1-0.5,0.4-0.5c0.2-0.1,0.5,0.1,0.5,0.4
					c0.1,0.6,0.2,1.3,0.3,1.9c0,0.3-0.1,0.5-0.5,0.6c0.1,0,0.1,0,0,0C39.5,200.7,39.3,200.5,39.3,200.3z M38.8,195.3
					c0-0.5,0-0.9,0-1.4v-0.6c0-0.3,0.2-0.5,0.5-0.5s0.5,0.2,0.5,0.5v0.6c0,0.5,0,1,0,1.4c0,0.3-0.2,0.5-0.5,0.5l0,0
					C39,195.8,38.8,195.6,38.8,195.3z M39.4,190.8c-0.3,0-0.5-0.2-0.5-0.7c0.1-0.7,0.1-1.3,0.2-2c0.1-0.2,0.3-0.4,0.6-0.4
					c0.2,0.1,0.4,0.3,0.4,0.6c-0.1,0.7-0.2,1.4-0.2,2C39.9,190.6,39.7,190.8,39.4,190.8L39.4,190.8z M40,185.9
					c-0.4,0-0.5-0.3-0.5-0.5c0.1-0.7,0.3-1.3,0.4-2c0.1-0.3,0.3-0.5,0.6-0.4s0.5,0.3,0.4,0.6c-0.2,0.6-0.3,1.3-0.4,1.9
					C40.5,185.7,40.2,185.9,40,185.9C40,185.9,39.9,185.9,40,185.9z M41,181c-0.3-0.1-0.5-0.3-0.4-0.6c0.1-0.6,0.3-1.3,0.5-1.9
					c0.1-0.2,0.3-0.4,0.6-0.3c0.2,0.1,0.4,0.3,0.3,0.6c-0.2,0.6-0.3,1.3-0.5,1.9C41.4,180.9,41.2,181.1,41,181
					C41,181.1,40.9,181.1,41,181z M42.3,176.3c-0.2-0.1-0.4-0.3-0.3-0.6c0.2-0.6,0.4-1.3,0.6-1.9c0.1-0.3,0.3-0.4,0.6-0.3
					s0.4,0.3,0.3,0.6c-0.2,0.7-0.4,1.3-0.6,1.9c-0.1,0.2-0.3,0.3-0.5,0.3C42.3,176.3,42.3,176.3,42.3,176.3z"/>
			</g>
			<g>
				<path class="st4" d="M71.5,213.8c-0.1-0.3,0-0.6,0.2-0.7c0.3-0.2,0.6-0.3,0.9-0.5c0.3-0.1,0.6,0,0.7,0.2c0.1,0.3,0,0.6-0.2,0.7
					c-0.3,0.2-0.6,0.3-0.9,0.5c0,0.1-0.1,0.1-0.2,0.1S71.7,214,71.5,213.8z"/>
			</g>
		</g>
		<g>
			<path class="st4" d="M44.8,171.7l-0.1-1.7l-1.5,1.1c-0.2,0.2-0.5,0.1-0.7-0.1c-0.2-0.2-0.1-0.5,0.1-0.7l2.2-1.7
				c0.1-0.2,0.3-0.2,0.5-0.1c0.2,0.1,0.3,0.2,0.3,0.4l0.2,2.7c0,0.2-0.2,0.5-0.5,0.5l0,0C45,172.1,44.8,171.9,44.8,171.7z"/>
		</g>
	</g>
	<path class="st3" d="M235.6,89.3V91c-1,0.1-1.7,0.6-1.7,1.2v5.7c0,0.7,1,1.3,2.2,1.3h1.7c1.2,0,2.2-0.6,2.2-1.3v-5.7
		c0.1-0.6-0.6-1.1-1.6-1.2v-1.7c5-0.4,8.9-2.9,8.9-5.9c0-3.3-4.6-5.9-10.3-5.9s-10.3,2.7-10.3,6C226.7,86.5,230.6,89,235.6,89.3z"/>
	<g>
		<path class="st2" d="M89.6,306.4V143.8c0-9.2,5.6-19.9,12.5-23.9L280.9,16.6c6.9-4,12.5,0.3,12.5,9.5v162.7
			c0,9.2-5.6,19.9-12.5,23.9L102.1,315.9C95.2,319.9,89.6,315.7,89.6,306.4z"/>
		<path class="st7" d="M84.5,141.3V304c0,4.7,1.5,8.1,3.9,9.8c0.1,0.1,5.3,2.9,5.5,3c0.5,0.3,0.8,0.4,1.1,0.4
			c-3.3-1.1-5.5-4.9-5.5-10.7V143.9c0-9.2,5.6-19.9,12.5-23.9L280.8,16.7c3-1.7,5.7-1.9,7.8-0.9l0,0c-0.2-0.2-5.1-2.7-5.4-2.8
			c-2-0.8-4.6-0.5-7.3,1.1L97.2,117.3C90.2,121.3,84.6,132.1,84.5,141.3z"/>
		<path class="st8" d="M102,119.9L280.8,16.6c3-1.7,5.7-1.9,7.8-0.9l0,0c-0.2-0.1-3.7-2-4-2.1c-2-0.8-4.6-0.5-7.3,1.1L98.6,118
			L102,119.9z"/>
		<path class="st3" d="M89,143.5V306c0,6.3,2.6,10.3,6.5,10.9c-3-1.3-5-5-5-10.4V143.9c0-9.2,5.6-19.9,12.5-23.9L281.8,16.7
			c2.1-1.3,4.2-1.7,6-1.4c-2.1-0.9-4.7-0.6-7.5,1L101.5,119.6C94.6,123.6,89,134.3,89,143.5z"/>
		<path class="st9" d="M96.6,150.2V307c0,1.9,2,3,3.6,2.1c0.1-0.1,0.2-0.2,0.3-0.2l176.9-102.2c5.6-3.6,9-10.7,9-17.9V40.6
			L96.6,150.2z"/>
		<path class="st10" d="M96.7,307.8c0.4,1.4,2,2.1,3.4,1.3c0.1-0.1,0.2-0.2,0.3-0.2l176.9-102.2c5.6-3.6,9-10.7,9-17.9V40.6
			l-3.3,1.9v144.8c0,7.3-3.4,14.4-9,17.9L97.2,307.4c-0.1,0.1-0.2,0.1-0.3,0.2C96.8,307.6,96.8,307.6,96.7,307.8z"/>
		<g>
			<path class="st11" d="M103.2,130.4c-1.9,1.1-3.4,3.7-3.4,5.9s1.5,3.1,3.4,2c1.9-1.1,3.4-3.7,3.4-5.9S105,129.3,103.2,130.4z"/>
			<path class="st4" d="M112.1,125.2c-1.9,1.1-3.4,3.7-3.4,5.9s1.5,3.1,3.4,2c1.9-1.1,3.4-3.7,3.4-5.9S113.9,124.2,112.1,125.2z"/>
			<path class="st12" d="M121,120c-1.9,1.1-3.4,3.7-3.4,5.9s1.5,3.1,3.4,2s3.4-3.7,3.4-5.9C124.4,119.9,122.8,119,121,120z"/>
		</g>
	</g>
	<path class="st0" d="M167.3,121.2c0,1.6,1.1,2.2,2.4,1.4l13-7.5c1.3-0.8,2.4-2.6,2.4-4.1c0-1.6-1.1-2.2-2.4-1.4l-13,7.5
		C168.4,117.9,167.4,119.7,167.3,121.2z M146,133.5c0,1.6,1.1,2.2,2.4,1.4l13-7.5c1.3-0.8,2.4-2.6,2.4-4.1c0-1.6-1.1-2.2-2.4-1.4
		l-13,7.5C147.1,130.2,146,132,146,133.5z M124.6,145.9c0,1.6,1.1,2.2,2.4,1.4l13-7.5c1.3-0.8,2.4-2.6,2.4-4.1
		c0-1.6-1.1-2.2-2.4-1.4l-13,7.5C125.7,142.5,124.6,144.4,124.6,145.9z M103.3,158.2c0,1.6,1.1,2.2,2.4,1.4l13-7.5
		c1.3-0.8,2.4-2.6,2.4-4.1c0-1.6-1.1-2.2-2.4-1.4l-13,7.5C104.4,154.9,103.3,156.7,103.3,158.2z"/>
	<g>
		<g>
			<polygon class="st13" points="215.1,124.1 215.1,180.1 221.2,183.6 221.2,127.8 			"/>
			<polygon class="st7" points="343,57.8 343,113.8 221.2,183.6 221.2,127.8 			"/>
			<polygon class="st0" points="336.9,54.1 215.1,124.1 221.2,127.8 343,57.8 			"/>
			<polygon class="st6" points="221.2,127 215.1,124.1 221.2,127.8 343,57.8 			"/>
		</g>
		<g>
			<polygon class="st3" points="277.5,141.5 277.5,139.2 239,161 239,163.4 			"/>
			<polygon class="st3" points="229.5,132 229.5,134.4 294.1,97.5 294.1,95.1 			"/>
			<polygon class="st3" points="271.4,130.3 294.1,117.2 294.1,114.8 271.4,127.9 			"/>
			<polygon class="st3" points="246.6,151.7 246.6,154.1 256,149 256,146.7 			"/>
			<polygon class="st3" points="257.4,128.5 294.1,107.3 294.1,104.9 257.4,126.1 			"/>
			<polygon class="st3" points="280.7,120 294.1,112.2 294.1,109.9 280.7,117.6 			"/>
			<polygon class="st3" points="284.1,130.4 258.3,145.3 258.3,147.7 284.1,132.8 			"/>
			<polygon class="st3" points="242.1,139.5 242.1,141.9 278.3,121.3 278.3,119 			"/>
			<polygon class="st3" points="250.9,139.7 250.9,142.1 269,131.6 269,129.3 			"/>
			<polygon class="st3" points="286.4,131.4 294.1,127 294.1,124.6 286.4,129.1 			"/>
			<polygon class="st3" points="255.1,127.5 229.5,141.9 229.5,144.3 255.1,129.8 			"/>
			<polygon class="st3" points="239.8,140.9 229.5,146.8 229.5,149.2 239.8,143.2 			"/>
			<polygon class="st3" points="294.1,100 229.5,137 229.5,139.3 294.1,102.4 			"/>
			<polygon class="st3" points="248.6,141.1 229.5,151.7 229.5,154.1 248.6,143.4 			"/>
			<polygon class="st3" points="279.8,140.2 294.1,131.9 294.1,129.6 279.8,137.8 			"/>
			<polygon class="st3" points="236.7,162.4 229.5,166.5 229.5,168.9 236.7,164.7 			"/>
			<polygon class="st3" points="244.2,153.1 229.5,161.6 229.5,164 244.2,155.5 			"/>
			<polygon class="st3" points="294.1,119.7 229.5,156.7 229.5,159 294.1,122.1 			"/>
		</g>
		<path class="st13" d="M300.9,98.6v24.5c0,5,3,7.2,6.7,5.1l21.2-12.3c3.7-2.1,6.7-7.8,6.7-12.8V78.5c0-5-3-7.2-6.7-5.1l-21.2,12.3
			C303.9,87.9,300.9,93.6,300.9,98.6z"/>
		<path class="st14" d="M301.8,127c1.2,2.1,3.4,2.7,5.9,1.2l21.2-12.3c3.7-2.1,6.7-7.8,6.7-12.8V78.5c0-3.3-1.4-5.5-3.5-5.8
			c0.5,0.9,0.8,2.2,0.8,3.8v24.6c0,4.9-3,10.7-6.7,12.8L305,126.2C303.8,126.9,302.7,127.1,301.8,127z"/>
		<g>
			<path class="st12" d="M317.4,105.4V130c0,5,3,7.2,6.7,5.1l21.2-12.3c3.7-2.1,6.7-7.8,6.7-12.8V85.4c0-5-3-7.2-6.7-5.1l-21.2,12.3
				C320.4,94.7,317.4,100.5,317.4,105.4z"/>
			<path class="st15" d="M314.1,103.4V128c0,3.3,1.6,4.8,3.3,5.8l2,1.3c-1.2-0.9-1.9-2.7-1.9-5.1v-24.6c0-4.9,3-10.7,6.7-12.8
				l21.2-12.3c1.7-1,3.2-1,4.4-0.3l0,0l-3.7-2.2l0,0c-1.2-0.5-2.6-0.4-4.2,0.5l-21.3,12.3C316.9,92.7,313.9,98.4,314.1,103.4z"/>
			<path class="st6" d="M317.1,105.1v24.6c0,3,1.1,5.1,2.8,5.7c-1.2-0.9-2-2.7-2-5.2v-24.6c0-4.9,3-10.7,6.7-12.8l21.2-12.3
				c1.4-0.9,2.8-1,3.9-0.6c-1.2-0.9-2.9-1-4.7,0.1l-21.3,12.3C320,94.4,317,100.2,317.1,105.1z"/>
			<path class="st3" d="M323.4,100.4v28.1l23-13.3V87.1L323.4,100.4z M324.9,101.2L345,89.6v24.8L324.9,126V101.2z"/>
			<path class="st3" d="M331.4,100.4c1.6-0.9,2.9-0.1,2.9,1.7s-1.3,4.1-2.9,5s-2.9,0.1-2.9-1.7C328.5,103.5,329.8,101.3,331.4,100.4
				z"/>
			<polygon class="st3" points="345.6,115.1 324.3,126.4 324.3,125.1 329.1,111.8 333.6,115.4 339.7,100 345.7,107.7 			"/>
		</g>
	</g>
	<g>
		<g>
			<path class="st11" d="M77,87.5c3.3-2,6.4-2.2,8.6-1c0.1,0.1,4.1,2.4,4.2,2.4c2.2,1.3-1.4,1.3-1.4,5.2c0,7.8-5.6,17.4-12.4,21.3
				c-3.4,1.9-2,4.7-4.2,3.5c0,0-3.6-2.3-3.7-2.3c-2.2-1.3-3.5-4-3.5-7.8C64.6,101,70.1,91.4,77,87.5z"/>
			<path class="st3" d="M68,111c0,4.7,2,7.7,5,8.5c-2.4-1.2-3.9-4-3.9-8.1c0-7.8,5.6-17.4,12.4-21.3c2.8-1.6,5.3-2.1,7.4-1.5
				c-2.3-1.1-5.2-0.9-8.5,1C73.6,93.5,68.1,103.1,68,111z"/>
			
				<ellipse transform="matrix(0.5047 -0.8633 0.8633 0.5047 -49.7447 121.4758)" class="st16" cx="81" cy="104.1" rx="17.4" ry="10.1"/>
		</g>
		<path class="st17" d="M84.9,96c0.9-0.5,1.7-0.1,1.7,1s-0.7,2.4-1.7,3c-0.9,0.5-1.7,0.1-1.7-1S84,96.6,84.9,96z"/>
		<path class="st17" d="M77.9,100.1c0.9-0.5,1.7-0.1,1.7,1s-0.7,2.4-1.7,3c-0.9,0.5-1.7,0.1-1.7-1S77,100.6,77.9,100.1z"/>
		<path class="st17" d="M81.4,112.7c-2.8,1.6-5.5,1.1-6.5-1.4l1.6-1.6c0.8,1.8,2.7,2.2,4.9,1c2.3-1.3,4.3-4.1,5-6.9l1.6-0.3
			C87,107.3,84.4,111,81.4,112.7z"/>
		<path class="st18" d="M83.4,99.9c0.3,0.4,0.9,0.5,1.5,0.1c0.9-0.6,1.7-1.9,1.7-3c0-0.7-0.3-1.1-0.7-1.2c0.1,0.2,0.2,0.4,0.2,0.8
			c0,1.1-0.7,2.4-1.7,3C84.1,99.9,83.7,99.9,83.4,99.9z"/>
		<path class="st18" d="M76.4,104c0.3,0.4,0.9,0.5,1.5,0.1c0.9-0.6,1.7-1.9,1.7-3c0-0.7-0.3-1.1-0.7-1.2c0.1,0.2,0.2,0.4,0.2,0.8
			c0,1.1-0.7,2.4-1.7,3C77.1,103.9,76.7,104,76.4,104z"/>
		<g>
			<path class="st18" d="M77.2,110.8c-0.3-0.3-0.5-0.7-0.7-1.1l-0.2,0.2C76.5,110.3,76.9,110.5,77.2,110.8z"/>
			<path class="st18" d="M75.9,112.7c1.3,1.1,3.3,1.1,5.5-0.1c3-1.7,5.6-5.3,6.6-9.1l-0.6,0.1c-1.1,3.6-3.7,7.1-6.5,8.7
				C79,113.4,77.2,113.5,75.9,112.7z"/>
		</g>
	</g>
	<g>
		<g>
			<polygon class="st13" points="64.6,227.9 64.6,296.2 70.7,299.8 70.7,231.6 			"/>
			<polygon class="st7" points="204,155 204,223.3 70.7,299.8 70.7,231.6 			"/>
			<polygon class="st0" points="197.9,151.3 64.6,227.9 70.7,231.6 204,155 			"/>
			<polygon class="st6" points="70.7,230.8 64.6,227.9 70.7,231.6 204,155 			"/>
		</g>
		
			<ellipse transform="matrix(0.5047 -0.8633 0.8633 0.5047 -165.939 209.5914)" class="st13" cx="99.7" cy="249.4" rx="29.5" ry="17"/>
		<path class="st14" d="M82.3,272.8c3.8,4.2,10.2,4.8,17.4,0.6c11.5-6.7,20.9-22.8,20.9-36.1c0-6.3-2.1-10.8-5.5-13.1
			c2.2,2.5,3.5,6.4,3.5,11.3c0,13.3-9.3,29.4-20.9,36.1C91.6,275.1,86.1,275.3,82.3,272.8z"/>
		<g>
			<path class="st13" d="M158.4,243.2l4.5-2.6v-50.7l-4.5,2.6V243.2z M151.9,246.8l4.5-2.6v-56.9l-4.5,2.6V246.8z M145.2,250.6
				l4.5-2.6v-49.2l-4.5,2.6V250.6z M171.7,207.5v27.8l4.5-2.6v-27.8L171.7,207.5z M165,239.1l4.5-2.6v-41.9l-4.5,2.6V239.1z
				 M138.7,254.4l4.5-2.6v-39l-4.5,2.6V254.4z M132.3,258.2l4.5-2.6v-26.7l-4.5,2.6V258.2z M178.4,231.3l4.5-2.6v-31.2l-4.5,2.6
				V231.3z M191.7,204.6v18.9l4.5-2.6V202L191.7,204.6z M185.1,227.3l4.5-2.6V192l-4.5,2.6V227.3z"/>
			<path class="st1" d="M158.4,243.1l4.5-2.6v-30.8l-4.5,2.6V243.1z M151.9,246.8l4.5-2.6v-48.5l-4.5,2.6V246.8z M145.2,250.6
				l4.5-2.6v-40.2l-4.5,2.6V250.6z M171.7,214.3v21l4.5-2.6v-21L171.7,214.3z M165,239.2l4.5-2.6v-28.3l-4.5,2.6V239.2z
				 M178.4,231.3l4.5-2.6v-28.6l-4.5,2.6V231.3z M191.7,218v5.5l4.5-2.6v-5.5L191.7,218z M185.1,227.3l4.5-2.6v-11.9l-4.5,2.6V227.3
				z M138.7,254.4l4.5-2.6v-31.7l-4.5,2.6V254.4z M132.3,258.2l4.5-2.6v-22.7l-4.5,2.6V258.2z"/>
			<g>
				<polygon class="st3" points="145.2,210.4 149.7,207.8 149.7,208.3 145.2,210.9 				"/>
				<polygon class="st3" points="151.9,198.3 156.4,195.8 156.4,196.3 151.9,198.9 				"/>
				<polygon class="st3" points="132.3,235.5 136.8,232.9 136.8,233.4 132.3,236 				"/>
				<polygon class="st3" points="158.4,212.3 162.9,209.7 162.9,210.3 158.4,212.9 				"/>
				<polygon class="st3" points="138.7,222.7 143.2,220.1 143.2,220.7 138.7,223.3 				"/>
				<polygon class="st3" points="185.1,215.4 189.5,212.8 189.5,213.3 185.1,215.9 				"/>
				<polygon class="st3" points="178.4,202.7 182.9,200.1 182.9,200.6 178.4,203.2 				"/>
				<polygon class="st3" points="196.2,215.4 196.2,215.9 191.7,218.5 191.7,218 				"/>
				<polygon class="st3" points="165,210.9 169.5,208.3 169.5,208.8 165,211.4 				"/>
				<polygon class="st3" points="171.7,214.3 176.2,211.7 176.2,212.2 171.7,214.8 				"/>
			</g>
		</g>
		<g>
			<g>
				<path class="st11" d="M121.6,241l2.6-2.4c-0.1-12.8-9.3-17.9-20.5-11.4c-6,3.4-11.3,9.4-15.1,16.2l3.3,0.8
					c3-5.3,7.2-9.8,11.8-12.5c8.9-5.2,16.2-1.2,16.5,8.8L121.6,241z"/>
				<path class="st11" d="M92.8,276.9c0.1,0.1,1.3,0.4,1.4,0.4c3.1,0.4,5.7-0.8,9.5-3c10.6-6.1,20.6-20.1,21.8-32.5
					c0-0.1-1.3-0.3-1.3-0.4l-4,2c-0.9,9.9-7.9,21.3-16.4,26.2c-3,1.7-5.9,2.4-8.3,2.2L92.8,276.9z"/>
				<path class="st11" d="M87.1,246.4c-2.5,5.4-4,11-4,16.2c0,7.4,3,12.3,7.7,13.9l2.6-5.1c-3.8-1.3-6.2-5.2-6.2-11.2
					c0-4.2,1.2-8.7,3.2-13L87.1,246.4z"/>
			</g>
			<path class="st11" d="M95.5,260.9v3.1c0,0.3,0.1,0.5,0.3,0.6c0.1,0.1,1.5,0.5,1.7,0.4l13.4-8.9c0.6-0.4,1-1.1,1-1.7v-3.1
				c0-1.1,0.8-1.6,0.1-1.9c-0.1,0-1.3-0.4-1.4-0.4c-0.3-0.1-0.8-0.1-1.2,0c-1.1,0.4-2.1,0.3-2.9-0.1c-0.5-0.2-0.5-1.1,0-1.9
				c0.6-1.1,1.2-2.3,1.5-3.4c0.5-0.5,1.1-1.4,1.1-2.1s-0.3-1.1-0.7-1c0-1.6,0.8-2.6-0.1-3.1c-0.2-0.1-1.5-0.5-1.7-0.5
				c-0.7-0.1-1.6,0.1-2.8,0.8c-3.5,2-4.6,5.2-4.7,8.2c-0.4,0.4-0.7,1.2-0.7,1.9s0.6,0.8,1.1,0.7c0.4,0.7,0.9,1.2,1.5,1.6
				c0.5,0.2,0.5,1.1,0,1.9c-0.8,1.4-1.8,2.6-2.9,3.5C96.6,256.7,95.5,258.9,95.5,260.9z"/>
			<g>
				<path class="st3" d="M125.1,238.9c-0.1-12.8-9.3-17.9-20.5-11.4c-6,3.4-11.3,9.4-15.1,16.2l3.3,0.8c3-5.3,7.2-9.8,11.8-12.5
					c8.9-5.2,16.2-1.2,16.5,8.8L125.1,238.9z"/>
				<path class="st3" d="M93.8,277.2c3.2,0.4,6.9-0.4,10.9-2.7c10.6-6.1,19.3-20.4,20.4-32.9l-4,2c-0.9,9.9-7.9,21.3-16.4,26.2
					c-3,1.7-5.9,2.4-8.3,2.2L93.8,277.2z"/>
				<path class="st3" d="M88,246.6c-2.5,5.4-4,11-4,16.2c0,7.4,3,12.3,7.7,13.9l2.6-5.1c-3.8-1.3-6.2-5.2-6.2-11.2
					c0-4.2,1.2-8.7,3.2-13L88,246.6z"/>
			</g>
			<path class="st3" d="M96.5,261v3.1c0,0.6,0.5,0.8,1,0.5l14.5-8.4c0.6-0.4,1-1.1,1-1.7v-3.1c0-1.8-1.1-2.6-2.6-2.2
				c-1.1,0.4-2.1,0.3-2.9-0.1c-0.5-0.2-0.5-1.1,0-1.9c0.6-1.1,1.2-2.3,1.5-3.4c0.5-0.5,1.1-1.4,1.1-2.1s-0.3-1.1-0.7-1
				c-0.2-2.9-1.2-4.8-4.7-2.8s-4.6,5.2-4.7,8.2c-0.4,0.4-0.7,1.2-0.7,1.9s0.6,0.8,1.1,0.7c0.4,0.7,0.9,1.2,1.5,1.6
				c0.5,0.2,0.5,1.1,0,1.9c-0.8,1.4-1.8,2.6-2.9,3.5C97.5,257,96.4,259.1,96.5,261z"/>
			<g>
				<path class="st19" d="M125.7,239c-0.1-12.8-9.3-17.9-20.5-11.4c-6,3.4-11.3,9.4-15.1,16.2l3.3,0.8c3-5.3,7.2-9.8,11.8-12.5
					c8.9-5.2,16.2-1.2,16.5,8.8L125.7,239z"/>
				<path class="st19" d="M94.3,277.4c3.2,0.4,6.9-0.4,10.9-2.7c10.6-6.1,19.3-20.4,20.4-32.9l-4,2c-0.9,9.9-7.9,21.3-16.4,26.2
					c-3,1.7-5.9,2.4-8.3,2.2L94.3,277.4z"/>
				<path class="st19" d="M88.6,246.7c-2.5,5.4-4,11-4,16.2c0,7.4,3,12.3,7.7,13.9l2.6-5.1c-3.8-1.3-6.2-5.2-6.2-11.2
					c0-4.2,1.2-8.7,3.2-13L88.6,246.7z"/>
			</g>
			<path class="st19" d="M97,261.2v3.1c0,0.6,0.5,0.8,1,0.5l14.5-8.4c0.6-0.4,1-1.1,1-1.7v-3.1c0-1.8-1.1-2.6-2.6-2.2
				c-1.1,0.4-2.1,0.3-2.9-0.1c-0.5-0.2-0.5-1.1,0-1.9c0.6-1.1,1.2-2.3,1.5-3.4c0.5-0.5,1.1-1.4,1.1-2.1s-0.3-1.1-0.7-1
				c-0.2-2.9-1.2-4.8-4.7-2.8s-4.6,5.2-4.7,8.2c-0.4,0.4-0.7,1.2-0.7,1.9s0.6,0.8,1.1,0.7c0.4,0.7,0.9,1.2,1.5,1.6
				c0.5,0.2,0.5,1.1,0,1.9c-0.8,1.4-1.8,2.6-2.9,3.5C98,257.1,96.9,259.3,97,261.2z"/>
		</g>
	</g>
	<g>
		<g>
			<polygon class="st15" points="198.4,211.7 198.4,240.4 203.2,243 203.2,214.5 			"/>
			<polygon class="st12" points="308.8,153.3 308.8,182 203.2,243 203.2,214.5 			"/>
			<polygon class="st20" points="304.1,150.6 198.4,211.7 203.2,214.5 308.8,153.3 			"/>
			<polygon class="st6" points="203.1,213.7 198.4,211.7 203.2,214.5 308.8,153.3 			"/>
		</g>
		<polygon class="st3" points="208.6,217.6 303.6,162.1 303.6,178.9 208.6,234.4 		"/>
		<g>
			<path class="st14" d="M298.4,179.7l-2.6,1.5l-0.9-6.8l0,0l-0.9,7.8l-2.5,1.4l-1.3-11.3l1.7-1l0.9,8.2l0,0l0.9-9.2l2.2-1.3
				l0.9,8.1l0,0l0.9-9.2l1.9-1.1L298.4,179.7z"/>
			<path class="st14" d="M287.1,186.4l-2.6,1.5l-0.9-6.8l0,0l-0.9,7.8l-2.5,1.4l-1.3-11.3l1.7-1l0.9,8.2l0,0l0.9-9.2l2.2-1.3
				l0.9,8.1l0,0l0.9-9.2l1.9-1.1L287.1,186.4z"/>
			<path class="st14" d="M275.6,192.9l-2.6,1.5l-0.9-6.8l0,0l-0.9,7.8l-2.5,1.4l-1.3-11.3l1.7-1l0.9,8.2l0,0l0.9-9.2l2.2-1.3
				l0.9,8.1l0,0l0.9-9.2l1.9-1.1L275.6,192.9z"/>
		</g>
	</g>
	<g>
		<g>
			<polygon class="st11" points="257.9,65.8 257.9,85.8 260.9,87.5 260.9,67.6 			"/>
			<polygon class="st16" points="278.6,57.2 278.6,77.2 260.9,87.5 260.9,67.6 			"/>
			<polygon class="st19" points="275.6,55.4 257.9,65.8 260.9,67.6 278.6,57.2 			"/>
			<polygon class="st3" points="261,66.6 257.9,65.8 260.9,67.6 278.6,57.2 			"/>
		</g>
		<g>
			<polygon class="st5" points="240.4,58 240.4,90.5 245.3,93.2 245.3,60.9 			"/>
			<polygon class="st21" points="269.2,41.3 240.4,58 245.3,60.9 274,44.1 			"/>
			<polygon class="st6" points="245.1,60.2 240.4,58 245.3,60.9 274,44.1 			"/>
		</g>
		<polygon class="st4" points="245.3,60.9 245.3,93.2 258.8,85.4 258.8,66.4 274,57.5 274,44.1 		"/>
	</g>
	<g>
		<g>
			<polygon class="st15" points="180.6,136.7 180.6,159.2 184,161 184,138.8 			"/>
			<polygon class="st12" points="203.7,127.1 203.7,149.6 183.9,161 183.9,138.8 			"/>
			<polygon class="st20" points="200.5,125.2 180.6,136.7 183.9,138.8 203.7,127.1 			"/>
			<polygon class="st6" points="184.1,137.7 180.6,136.7 183.9,138.8 203.7,127.1 			"/>
		</g>
		<g>
			<polygon class="st15" points="154.6,151.7 154.6,174.2 158,176 158,153.8 			"/>
			<polygon class="st12" points="177.7,142.1 177.7,164.6 157.9,176 157.9,153.8 			"/>
			<polygon class="st20" points="174.5,140.2 154.6,151.7 157.9,153.8 177.7,142.1 			"/>
			<polygon class="st6" points="158.1,152.7 154.6,151.7 157.9,153.8 177.7,142.1 			"/>
		</g>
		<g>
			<polygon class="st15" points="128.8,166.6 128.8,189 132.1,190.9 132.1,168.6 			"/>
			<polygon class="st12" points="151.9,157 151.9,179.4 132.1,190.9 132.1,168.6 			"/>
			<polygon class="st20" points="148.6,155 128.8,166.6 132.1,168.6 151.9,157 			"/>
			<polygon class="st6" points="132.3,167.5 128.8,166.6 132.1,168.6 151.9,157 			"/>
		</g>
		<g>
			<polygon class="st15" points="103.3,181.1 103.3,203.5 106.6,205.4 106.6,183.1 			"/>
			<polygon class="st12" points="126.4,171.5 126.4,193.9 106.6,205.4 106.6,183.1 			"/>
			<polygon class="st20" points="123.1,169.5 103.3,181.1 106.6,183.1 126.4,171.5 			"/>
			<polygon class="st6" points="106.8,182 103.3,181.1 106.6,183.1 126.4,171.5 			"/>
		</g>
		<path class="st3" d="M136.4,181.3v2c0,0.3,0.3,0.5,0.6,0.3l9.2-5.3c0.3-0.1,0.6-0.6,0.6-1v-2c0-1.1-0.7-1.7-1.6-1.4
			c-0.7,0.2-1.3,0.2-1.8-0.1c-0.3-0.1-0.3-0.7,0-1.2c0.3-0.6,0.7-1.4,0.9-2.1c0.3-0.3,0.7-0.9,0.7-1.3c0-0.5-0.2-0.8-0.5-0.7
			c0-1.9-0.7-3.1-2.9-1.8s-2.8,3.3-2.9,5.2c-0.3,0.3-0.5,0.8-0.5,1.2c0,0.5,0.4,0.6,0.7,0.5c0.2,0.4,0.5,0.8,0.9,1
			c0.3,0.1,0.3,0.7,0,1.2c-0.5,0.8-1.1,1.6-1.8,2.2C137.1,178.8,136.4,180.2,136.4,181.3z"/>
		<path class="st3" d="M122.8,186.5l-3.2,1.9v5.8l3.2-1.9V186.5z M117.7,184.7l-3.2,1.9v10.6l3.2-1.9V184.7z M109.5,184.8v15.4
			l3.2-1.9v-15.4L109.5,184.8z"/>
		<path class="st3" d="M162.8,163.1l-1.5,1.9c0.2,0.6,0.4,1.1,0.7,1.5l1.7-1.5c0.3,0.3,0.7,0.5,1.1,0.6l-0.4,2.2
			c0.6,0,1.1,0,1.7-0.2l0.9-2.3c0.3-0.1,0.5-0.3,0.8-0.4s0.6-0.3,0.8-0.5l0.9,1.2c0.6-0.5,1.2-1.1,1.7-1.7l-0.4-1.7
			c0.4-0.6,0.8-1.3,1.1-1.9l1.7-0.5c0.3-0.8,0.5-1.5,0.7-2.3l-1.5-0.2c0.1-0.3,0.1-0.6,0.1-0.9s-0.1-0.5-0.1-0.8l1.5-1.9
			c-0.2-0.6-0.4-1.1-0.7-1.5l-1.7,1.5c-0.3-0.3-0.7-0.5-1.1-0.6l0.4-2.2c-0.6,0-1.1,0-1.7,0.2l-0.9,2.3c-0.3,0.1-0.5,0.3-0.8,0.4
			s-0.6,0.3-0.8,0.5l-0.9-1.2c-0.6,0.5-1.2,1.1-1.7,1.7l0.4,1.7c-0.4,0.6-0.8,1.3-1.1,1.9l-1.7,0.5c-0.3,0.8-0.5,1.5-0.7,2.3
			l1.5,0.2c-0.1,0.3-0.1,0.6-0.1,0.9S162.7,162.9,162.8,163.1z M165.6,160.7c0-1.2,0.9-2.7,2-3.4s2-0.2,2,1.1c0,1.2-0.9,2.8-2,3.4
			C166.5,162.4,165.6,161.9,165.6,160.7z"/>
		<g>
			<path class="st3" d="M200.1,136c-0.2-0.1-0.5,0-0.7,0.2l-11.3,6.5c-0.3,0.1-0.6,0.4-0.8,0.7l0,0l6.4,2.6L200.1,136L200.1,136z"/>
			<path class="st3" d="M186.8,144.9v7.6c0,0.8,0.6,1.1,1.3,0.7l11.3-6.5c0.6-0.4,1.2-1.4,1.2-2.2v-7.6c0-0.4-0.2-0.7-0.5-0.8
				l-4.2,7.3l4.2,2.4l0,0l-4.6-1.9l-1.8,3.1l-6.4-3.6C187,143.8,186.8,144.3,186.8,144.9z M187.3,153.1l4.3-7.3l0.3,0.2L187.3,153.1
				L187.3,153.1z"/>
		</g>
	</g>
	<g>
		<g>
			<polygon class="st13" points="279.2,201.1 279.2,229.8 283.7,232.4 283.7,203.8 			"/>
			<polygon class="st7" points="360.4,159.4 360.4,188.1 283.7,232.4 283.7,203.8 			"/>
			<polygon class="st0" points="355.9,156.8 279.2,201.1 283.7,203.8 360.4,159.4 			"/>
			<polygon class="st6" points="283.9,203 279.2,201.1 283.7,203.8 360.4,159.4 			"/>
		</g>
		<path class="st3" d="M329,184v9.5c0,1,0.7,1.4,1.6,0.9l0.9-0.5v5l4.4-7.6l8.8-5.1c0.9-0.5,1.6-1.7,1.6-2.7V174
			c0-1-0.7-1.4-1.6-0.9l-14,8.1C329.9,181.7,329.2,182.9,329,184z M340.6,181.1c0.5-0.8,1.2-1.3,1.7-1c0.5,0.3,0.5,1.1,0,1.9
			s-1.2,1.3-1.7,1C340.2,182.8,340.2,181.9,340.6,181.1z M336.8,183.3c0.5-0.8,1.2-1.3,1.7-1c0.5,0.3,0.5,1.1,0,1.9s-1.2,1.3-1.7,1
			C336.4,185,336.3,184.1,336.8,183.3z M333,185.5c0.5-0.8,1.2-1.3,1.7-1c0.5,0.3,0.5,1.1,0,1.9s-1.2,1.3-1.7,1
			C332.6,187.1,332.5,186.3,333,185.5z M344.7,187.7l-7.5,4.3v0.4c0,1,0.7,1.4,1.6,0.9l8.8-5.1l4.4,2.5v-5l0.9-0.5
			c0.9-0.5,1.6-1.7,1.6-2.7V173c0-1-0.7-1.4-1.6-0.9l-5.4,3.1v7.7C347.5,184.6,346.3,186.7,344.7,187.7z"/>
		<polygon class="st3" points="289.4,207.2 289.4,209.5 326,188.4 326,186 		"/>
		<polygon class="st3" points="301,212.7 326,198.2 326,195.9 301,210.3 		"/>
		<polygon class="st3" points="326,190.9 289.4,212.1 289.4,214.5 326,193.3 		"/>
	</g>
	<g>
		<path class="st22" d="M234.6,268.1c2,1.1,4.8,1.3,6.5,0.3l25.6-14.4c2.1,0.3,4.4,0.5,6.7,0.5c11.2,0,20.3-4.3,20.3-9.6
			s-9.1-9.6-20.3-9.6c-11.2,0-20.3,4.3-20.3,9.6c0,1.9,1.2,3.7,3.3,5.2l-23.8,13.4C230.1,265,232.6,267.1,234.6,268.1z"/>
		<g>
			<g>
				<path class="st10" d="M240.1,258.7c2.6,1.4,3.6,4.8,2.2,7.4s-4.8,3.6-7.4,2.2c-2.6-1.4-3.6-4.8-2.2-7.4
					C234.1,258.2,237.5,257.2,240.1,258.7z"/>
				<path class="st14" d="M232.5,259.2L232.5,259.2L232.5,259.2c-1.1,1.9,0.7,4.8,4,6.6c3.2,1.7,6.7,1.6,7.7-0.3l0,0l0,0l17.6-32.5
					l-11.8-6.4L232.5,259.2z"/>
				<path class="st13" d="M257.7,226.3c3.2,1.7,5,4.7,4,6.6c-1,1.9-4.4,2.1-7.7,0.3c-3.2-1.7-5-4.7-4-6.6
					C251,224.7,254.4,224.6,257.7,226.3z"/>
				<path class="st10" d="M252.7,227.4L252.7,227.4L252.7,227.4c-0.6,1.1,0.5,2.9,2.4,3.9c1.9,1,4,0.9,4.6-0.2l0,0l0,0l5-9.3l-7-3.8
					L252.7,227.4z"/>
			</g>
			<g>
				<path class="st0" d="M245.3,199.1c0,9.9,3.4,17,9,20.4c0.2,0.1,5.8,3.5,6,3.6c0.7,0.4,1.2,0.6,1.6,0.7c-6-3.3-9.8-10.5-9.8-20.9
					c0-20.4,14.4-45.2,32.2-55.5c9.8-5.6,18.5-5.7,24.4-1.2c-0.2-0.4-8.5-5-8.7-5.1c-5.8-3.1-13.8-2.5-22.5,2.5
					C259.7,153.8,245.3,178.7,245.3,199.1z"/>
			</g>
			<path class="st2" d="M252.1,203c0,20.3,14.4,28.6,32.2,18.3c17.8-10.3,32.2-35.1,32.2-55.5c0-20.3-14.4-28.6-32.2-18.3
				C266.6,157.7,252.1,182.7,252.1,203z M257.5,200.8c0-17.3,12.2-38.4,27.3-47.1c15.1-8.7,27.3-1.7,27.3,15.6s-12.2,38.4-27.3,47.1
				C269.7,225.1,257.5,218.2,257.5,200.8z"/>
			<path class="st0" d="M263,216.6c4.9,4.7,12.9,5.1,21.8-0.1c15.1-8.7,27.3-29.8,27.3-47.1c0-10.3-4.4-17-11.1-18.8
				c3.5,3.2,5.5,8.5,5.5,15.6c0,17.3-12.2,38.4-27.3,47.1C273.1,216.8,267.5,217.7,263,216.6z"/>
			<path class="st3" d="M250.6,202.3c0,12.1,5,19.9,12.9,22.1c-6.3-3.2-11.4-10.8-11.4-21.4c0-20.4,14.4-45.2,32.2-55.5
				c7.2-4.2,15.1-5,20.5-3.5c-5.7-2.9-13.5-2.2-22,2.7C265,157,250.6,181.8,250.6,202.3z"/>
		</g>
	</g>
</g>
</svg>
