<?xml version="1.0" encoding="utf-8"?>
<!-- Generator: Adobe Illustrator 27.7.0, SVG Export Plug-In . SVG Version: 6.00 Build 0)  -->
<svg version="1.1" id="Layer_1" xmlns="http://www.w3.org/2000/svg" xmlns:xlink="http://www.w3.org/1999/xlink" x="0px" y="0px"
	 viewBox="0 0 512 512" style="enable-background:new 0 0 512 512;" xml:space="preserve">
<style type="text/css">
	.st0{fill:#82B041;}
	.st1{fill:#221F20;}
	.st2{fill-rule:evenodd;clip-rule:evenodd;fill:#F8BF17;}
	.st3{fill-rule:evenodd;clip-rule:evenodd;fill:#82B041;}
	.st4{fill:#F8BF17;}
</style>
<g>
	<g>
		<polygon class="st0" points="196.6,128.1 200.7,136.3 209.8,137.6 203.3,144.1 204.9,153.1 196.6,148.8 188.6,153.1 190.1,144.1 
			183.6,137.6 192.6,136.3 		"/>
		<polygon class="st0" points="144.9,143.7 148.5,151.4 157.1,152.5 151,158.6 152.4,167 144.9,162.9 137.4,167 138.9,158.6 
			132.7,152.5 141.2,151.4 		"/>
		<polygon class="st0" points="248.5,143.7 244.9,151.4 236.4,152.5 242.4,158.6 241,167 248.5,162.9 256,167 254.6,158.6 
			260.8,152.5 252.2,151.4 		"/>
		<path class="st1" d="M186.7,434.9L78.5,388.2c-1.3-0.5-2.3-1.8-2.3-3.3V220.6c0-2.5,2.5-4.1,5.1-3l108.1,47c1.3,0.5,2.3,1.8,2.3,3
			v164C191.8,434.4,189,435.9,186.7,434.9L186.7,434.9z"/>
		<path class="st1" d="M191.8,258.7l-87.1-58.1c-1.3-0.8-2.5,0-2.5,1.5v16.5c0,0.5,0.3,1.3,1.3,1.5L191.8,258.7z"/>
		<path class="st1" d="M191.8,248.3l-63.5-60.4c-1.3-1.3-3-0.3-3,1.3v14.7c0,0.8,0.3,1.3,0.8,1.5L191.8,248.3z"/>
		<path class="st1" d="M206.7,434.9l108.4-46.7c1.3-0.5,2.3-1.8,2.3-3.3V220.6c0-2.5-2.5-4.1-5.1-3l-108.4,47
			c-1.3,0.5-2.3,1.8-2.3,3v164C201.7,434.4,204.5,435.9,206.7,434.9L206.7,434.9z"/>
		<path class="st1" d="M201.7,258.7l86.8-57.9c1.3-0.8,2.8,0,2.8,1.5v16.5c0,0.5-0.3,1.3-1.3,1.5L201.7,258.7z"/>
		<path class="st1" d="M201.7,248.3l63.5-60.4c1.3-1.3,3-0.3,3,1.3v14.7c0,0.8-0.3,1.3-1,1.5L201.7,248.3z"/>
		<g>
			<path class="st2" d="M32.3,332.6c-45.7,47.7-1.5,84.5,51.3,88.6c104.6,8.1,245-65.5,324.9-114c-85.8,44.4-207.4,105.9-311.5,99
				C54.9,403.1,0.1,382.6,32.3,332.6L32.3,332.6z"/>
			<path class="st2" d="M84.1,292.5c-12.4,1.3-42.4,25.1-31.5,49.2c39.6,64.5,251.6,4.6,328-40.1C311.3,332.1,99.9,394,68.4,329
				C62.3,315.6,66.9,301.1,84.1,292.5L84.1,292.5z"/>
			<path class="st3" d="M399.4,276.5c1.3,1,15,4.6,18.3,5.3c0.3,0.3,1.3,0.3,1.5,0.3l1.5,1c-16.2,5.1-7.4,4.6-26.1-6.3
				c-3-1.5-5.1-3-8.4-0.3l7.1,14.2c-3,0.8-6.1-0.3-9.9,1.3c0.3,0,0.3,0,0.5,0.3l2.5,1.3c1.3,0.3,2.3,0.5,3,0.8
				c4.1,1.3,1,2.5,6.1,2.8c5.6,0.3,10.9,0.3,16.5,0.3c12.4,0,21.1-2.5,33-4.6c1.8,2.8,1.8,3.3,5.1,3c2.3-0.3,4.3-0.5,5.6-1.8
				l-1.3-4.1l-0.3-0.3c3.3-0.3,0.3-0.5,2.8,1.8c1.3,1.5,1.5,1.3,3.6,1.3c9.9-0.5,6.1-3.3,4.6-6.9c9.4-4.1,25.6-7.9,31.5-13.7
				c7.6-7.6-7.9-8.1-10.9-8.6c-6.6-1.3-14,1.8-19,3.3c-6.3,2.3-28.4,11.2-32,11.9c-4.6,0.8-21.3-2.3-27.4-3.3
				C405.2,274.9,401.2,274.2,399.4,276.5L399.4,276.5z"/>
			<polygon class="st4" points="310.1,344.5 313.4,342.7 311.1,345.8 313.6,349.1 310.1,346.5 306.8,348.6 309,345.5 306.5,341.7 
							"/>
			<polygon class="st4" points="365.6,289.4 369.7,286.4 366.9,290.4 370.5,294.7 365.9,291.7 362.3,294.7 364.6,290.4 361.1,286.4 
							"/>
			<path class="st2" d="M43.8,318.3c-58.1,84.8,130,94.9,251.6,30C177.3,396.3,9.2,399.8,43.8,318.3L43.8,318.3z"/>
			<polygon class="st4" points="417.4,308.2 421.2,305.1 419,309.2 422.3,313.5 417.7,310.2 413.9,313.5 416.4,309.2 412.9,305.1 
							"/>
			<polygon class="st4" points="386,307.9 390,304.6 387.2,309.2 391.3,313.8 386.5,310.2 382.1,313.8 384.9,309.2 381.1,304.6 			
				"/>
		</g>
	</g>
	<g>
		<path class="st0" d="M88.6,477.9v6h-4v-6.1l-6.7-11h4.2l4.5,7.7l4.5-7.7H95L88.6,477.9z"/>
		<path class="st0" d="M94.4,475.5c0-5.1,4-8.8,9.4-8.8s9.4,3.8,9.4,8.8s-4,8.8-9.4,8.8S94.4,480.5,94.4,475.5z M109.2,475.5
			c0-3.2-2.3-5.5-5.4-5.5s-5.4,2.3-5.4,5.5c0,3.2,2.3,5.5,5.4,5.5S109.2,478.7,109.2,475.5z"/>
		<path class="st0" d="M115.2,476.4v-9.6h4v9.5c0,3.2,1.4,4.6,3.8,4.6c2.4,0,3.8-1.4,3.8-4.6v-9.5h3.9v9.6c0,5.1-2.9,7.9-7.8,7.9
			S115.2,481.5,115.2,476.4z"/>
		<path class="st0" d="M144.8,484l-3.3-4.7h-0.2h-3.5v4.7h-4v-17.1h7.4c4.5,0,7.4,2.4,7.4,6.3c0,2.6-1.3,4.4-3.6,5.4l3.9,5.5
			L144.8,484L144.8,484z M140.9,470.1h-3.2v6h3.2c2.4,0,3.7-1.1,3.7-3C144.6,471.2,143.4,470.1,140.9,470.1z"/>
		<path class="st0" d="M155.9,481.8l2.2-2.7c1,1.3,1.9,1.9,3.2,1.9c1.6,0,2.4-1,2.4-2.8V470h-6v-3.2h9.9V478c0,4.2-2.2,6.4-6.1,6.4
			C159.1,484.3,157.1,483.4,155.9,481.8z"/>
		<path class="st0" d="M170.9,475.5c0-5.1,4-8.8,9.4-8.8s9.4,3.8,9.4,8.8s-4,8.8-9.4,8.8S170.9,480.5,170.9,475.5z M185.8,475.5
			c0-3.2-2.3-5.5-5.4-5.5c-3.1,0-5.4,2.3-5.4,5.5c0,3.2,2.3,5.5,5.4,5.5S185.8,478.7,185.8,475.5z"/>
		<path class="st0" d="M191.8,476.4v-9.6h4v9.5c0,3.2,1.4,4.6,3.8,4.6c2.4,0,3.8-1.4,3.8-4.6v-9.5h3.9v9.6c0,5.1-2.9,7.9-7.8,7.9
			S191.8,481.5,191.8,476.4z"/>
		<path class="st0" d="M221.1,484l-3.3-4.7h-0.2h-3.4v4.7h-4v-17.1h7.4c4.5,0,7.4,2.4,7.4,6.3c0,2.6-1.3,4.4-3.6,5.4l3.9,5.5
			L221.1,484L221.1,484z M217.6,470.1h-3.2v6h3.2c2.4,0,3.7-1.1,3.7-3C221.1,471.2,219.9,470.1,217.6,470.1z"/>
		<path class="st0" d="M244.4,466.8v17.1h-3.2l-8.5-10.5v10.5h-3.9v-17.1h3.2l8.5,10.5v-10.5H244.4z"/>
		<path class="st0" d="M261.8,480.9v3.2h-13.3V467h12.9v3.2h-9.1v3.8h8v3.1h-8v4h9.4v-0.2H261.8z"/>
		<path class="st0" d="M272,477.9v6h-4v-6.1l-6.7-11h4.2l4.5,7.7l4.5-7.7h3.9L272,477.9z"/>
		<path class="st0" d="M282.6,481.8c0,0.6-0.1,1.1-0.6,2.5l-1.4,3.6h-2.4l1.1-3.9c-0.8-0.3-1.3-1.1-1.3-2c0-1.4,1.1-2.4,2.4-2.4
			C281.8,479.5,282.6,480.4,282.6,481.8z"/>
		<path class="st0" d="M290,482.4l1.3-3c1.4,1.1,3.6,1.8,5.6,1.8c2.4,0,3.3-0.8,3.3-1.8c0-3.2-9.9-1-9.9-7.3c0-2.9,2.4-5.4,7.2-5.4
			c2.2,0,4.3,0.5,5.9,1.5l-1.2,3c-1.6-0.9-3.2-1.4-4.7-1.4c-2.4,0-3.2,0.9-3.2,1.9c0,3.1,9.9,1,9.9,7.3c0,2.9-2.4,5.3-7.2,5.3
			C294.4,484.3,291.5,483.5,290,482.4z"/>
		<path class="st0" d="M306.8,466.8h4v17.1h-4V466.8z"/>
		<path class="st0" d="M330,484v-10.3l-5.1,8.5h-1.8l-5.1-8.3V484h-3.8v-17.1h3.2l6.4,10.7l6.4-10.7h3.2V484H330L330,484z"/>
		<path class="st0" d="M352.2,473.1c0,3.8-2.9,6.3-7.4,6.3h-3.4v4.7h-4V467h7.4C349.2,466.8,352.2,469.2,352.2,473.1z M348.1,473.1
			c0-1.9-1.2-3-3.7-3h-3.2v5.9h3.2C347,476.1,348.1,474.9,348.1,473.1z"/>
		<path class="st0" d="M354.1,466.8h4v13.9h8.6v3.2h-12.5v-17.1H354.1L354.1,466.8z"/>
		<path class="st0" d="M369.5,466.8h4v17.1h-4V466.8z"/>
		<path class="st0" d="M381,470.1v4.5h8v3.2h-8v6.3h-4V467h12.9v3.2L381,470.1L381,470.1z"/>
		<path class="st0" d="M392.4,466.8h4v17.1h-4V466.8z"/>
		<path class="st0" d="M413.4,480.9v3.2h-13.3V467H413v3.2h-9.1v3.8h8v3.1h-8v4h9.4v-0.2H413.4z"/>
		<path class="st0" d="M416.9,466.8h7.8c5.6,0,9.5,3.3,9.5,8.6c0,5.3-3.9,8.6-9.5,8.6h-7.8V466.8z M424.5,480.7c3.4,0,5.6-2,5.6-5.3
			c0-3.3-2.3-5.3-5.6-5.3h-3.6v10.7h3.6V480.7z"/>
	</g>
</g>
<g>
	<g>
		<path class="st1" d="M278.7,136.4h5.1v-35.7h-5.1v-0.9H295c13.3,0,18.9,7.1,18.9,18.1c0,10.7-5.2,19.3-18.9,19.3h-16.3V136.4z
			 M289.3,100.7v35.8h5.8c8.5,0,12.7-6.1,12.7-17.9c0-12.2-4.2-17.9-12.7-17.9C295.1,100.7,289.3,100.7,289.3,100.7z"/>
		<path class="st1" d="M317.7,111.8h8.8v6h0.1c1-2.9,3.2-6.4,7.3-6.4c3,0,5.4,1.9,5.4,5.2c0,2.8-1.7,4.5-4,4.5c-0.6,0-1.2,0-1.9-0.3
			v-0.4c1.6,0.3,1.9-1.7,1.9-3.3c0-2.8-0.9-4.3-2.6-4.3c-1.6,0-3,1.4-4.1,3.1c-1.3,2-1.9,4.5-1.9,6.3v14.4h4.5v0.9h-13.5v-0.9h4
			v-23.9h-4L317.7,111.8L317.7,111.8L317.7,111.8z"/>
		<path class="st1" d="M353.3,111.3c6.4,0,10,3.1,10,10.2v2.3h-16.2v0.9c0,9.6,2.3,12.2,6.7,12.2c4.1,0,8-2.7,8-6.9h0.9
			c0,3.3-2.2,5.8-5.3,7c-1.3,0.4-2.4,0.6-4.1,0.6c-7,0-11.5-3.8-11.5-13.1C341.8,115,346.5,111.3,353.3,111.3z M358.3,123v-2.3
			c0-5.3-1.1-8.6-5.1-8.6c-4.2,0-5.9,3.8-6.1,10.9H358.3z"/>
		<path class="st1" d="M382,123.2h0.5v-5.9c0-3.3-0.9-5.2-4.6-5.2c-3.4,0-5.3,1.3-5.3,4.3c0,1.8,0.8,3.4,2.7,3v0.4
			c0,0-1,0.3-2.2,0.3c-2.6,0-4.3-1.4-4.3-3.7c0-3.1,3.2-5.2,9.2-5.2c6.9,0,9.6,2.8,9.6,7.8v14.9c0,1.6,0.3,2.6,1.5,2.6
			c1.9,0,2.7-1.8,2.7-3.9h0.9c0,3.4-1.8,5.1-4.5,5.1c-3,0-4.8-1.7-5-4.6h-0.1c-1.1,2.3-3.8,4.6-7.9,4.6c-3.7,0-7.7-1.6-7.7-6.4
			C367.5,125.2,375.2,123.2,382,123.2z M376.1,136.8c1.3,0,2.6-0.5,3.7-1.3c1.6-1.2,2.8-2.8,2.8-4.1v-7.2h-1c-2.5,0-4.4,0.4-5.9,1.3
			c-1.8,1.1-2.9,3-2.9,6.1C372.9,135.2,374.1,136.8,376.1,136.8z"/>
		<path class="st1" d="M394.3,136.4h4v-23.8h-4.5v-0.8h9.4v5.9h0.1c0,0,1.7-6.4,9.2-6.4c5.1,0,7.7,1.9,8.1,6.4h0.1
			c0,0,1.7-6.4,9.2-6.4c5.6,0,8.2,2.4,8.2,7.8v17.3h4v0.9h-12.5v-0.9h3.6v-18.3c0-4.2-1-5.7-4-5.7c-6.1,0-8.2,6.4-8.3,9.4v14.7h4
			v0.9h-12.5v-0.9h3.6v-18.4c0-4.2-1-5.7-4-5.7c-6.3,0-8.3,6.7-8.3,9.6v14.4h3.6v0.9h-13V136.4z"/>
		<path class="st1" d="M445.1,132.4v-4.2h0.9v2c0,2.9,3.2,6.6,8.5,6.6c3.6,0,6.6-1.6,6.6-4.8c0-3.3-4-4-8-5
			c-4.2-1.1-8.3-2.6-8.3-8.1c0-5.8,5.1-7.7,8.8-7.7c2.7,0,5,0.9,6.4,2.5c1.3-0.3,1.6-1.6,2-2.5h0.9c-0.8,1.4-0.9,3.4-0.9,5.3v2.9
			h-0.9v-0.9c0-2.9-2.2-6.4-7.5-6.4c-3.7,0-6.6,1.5-6.6,4.7c0,2.9,3.2,3.8,6.9,4.6c4.5,1.1,9.6,2.5,9.6,8.1c0,4.5-3.3,8-8.9,8
			c-3.1,0-5.6-1.3-7.2-2.8c-1,0.3-1.6,1.7-1.9,2.8h-0.9C445,136.3,445.1,134.3,445.1,132.4z"/>
	</g>
	<g>
		<path class="st1" d="M217.2,67c-7.2,11-14.4,16.6-21.4,16.6c-4,0-8.5-1-13.6-3c-5-2-9.7-4.5-14-7.4c-4.3-3-8.3-6.1-11.9-9.6
			c-3.6-3.4-6.1-6.6-7.7-9.4c-2-3.7-2.4-6.7-0.9-8.9c1.7-2.7,5.8-3.9,12.1-3.3c3.9,0.3,8.1,1,12.7,1.9c4.6,1,9.5,2.3,14.7,3.9
			s9.8,3.1,14.1,4.7c4.3,1.5,9.2,3.3,14.5,5.4c0.8,0.3,1.6,0.3,2.4,0s1.4-0.9,1.8-1.6c1.6-3.1,3.2-6.6,4.8-10.2
			c5-11.5,9.1-23.4,12.4-35.5c0.2-0.6,0.6-1.1,1.4-1.1c0.8-0.1,1.2,0.2,1.5,0.9c0.2,0.6,0.4,2.3,0.5,4.7c0.1,2.4,0.1,7.1,0.2,13.9
			c0.1,16.6,0.4,28.8,1.1,36.6c0,0.6,0.2,1.3,0.6,1.8c0.4,0.5,1,0.9,1.6,1.1c4.3,1.7,8.7,2.7,13.4,3.1c0.3,0,0.8,0.1,1,0.4
			c0.3,0.3,0.4,0.6,0.4,1s-0.1,0.8-0.4,1.1c-0.3,0.3-0.6,0.4-1.1,0.4c-4.2-0.2-8.2-1-12.1-2.5c-0.8-0.2-1.4-0.1-1.9,0.4
			s-0.9,1.2-0.8,1.9c0.6,3.8,1.4,5.8,2.4,6.1c0.3,0.1,0.6,0.4,0.9,0.8c0.2,0.3,0.2,0.8,0.1,1.1c-0.1,0.4-0.4,0.6-0.8,0.9
			c-0.3,0.2-0.8,0.2-1.1,0.1c-2.2-0.8-3.8-4.5-4.7-11.4c-0.2-1.3-0.9-2.2-2.2-2.6c-2.9-1.1-7-2.7-12.3-4.7c-0.3-0.1-0.8-0.2-1.3-0.3
			c-0.5-0.1-1-0.2-1.2-0.2s-0.5-0.1-1-0.1c-0.4-0.1-0.8-0.1-1,0c-0.2,0.1-0.5,0.1-0.9,0.3c-0.3,0.1-0.6,0.3-0.9,0.5
			c-0.2,0.2-0.5,0.5-0.9,1C217.8,65.9,217.5,66.4,217.2,67z M157.3,44.5c-3.7,0-6,0.8-6.9,2c-0.9,1.3-0.5,3.2,1,5.9
			c1.5,2.9,4.1,5.9,7.5,9.3c3.4,3.3,7.3,6.4,11.5,9.1c4.2,2.7,8.5,5.1,13.1,6.9c4.6,1.8,8.6,2.8,12.2,2.8c6.3,0,12.7-5.3,19.4-15.7
			c0.5-0.9,0.6-1.8,0.3-2.8s-1-1.7-1.9-2c-11.1-4.4-21.1-7.8-29.9-10.5c-8.8-2.7-16.8-4.3-23.7-4.8C158.9,44.5,158,44.5,157.3,44.5z
			 M236.7,22.8c-4,12.8-9.1,25.1-15.3,37l2.2,0.8c5.3,2,9.1,3.4,11.4,4.4c0.9,0.3,1.7,0.2,2.6-0.3c0.9-0.5,1.2-1.4,1.1-2.4
			c-0.4-7.3-0.8-18.4-0.9-33.5c0-2.6,0-4.5-0.1-5.7c0-0.4-0.1-0.8-0.2-0.9c-0.1-0.2-0.3-0.2-0.4-0.1C237,22.1,236.8,22.3,236.7,22.8
			z"/>
		<path class="st1" d="M303.8,69.4c0.4,0,0.8,0.1,1.1,0.4c0.3,0.3,0.4,0.6,0.4,1.1s-0.2,0.8-0.4,1c-1.9,1.9-4.2,3.3-6.6,4.3
			s-4.8,1.5-7.3,1.6s-4.8-0.1-7.2-0.6c-2.4-0.4-4.6-1.2-7-2.2c-0.5-0.2-1.1-0.2-1.7,0.1c-0.5,0.2-1,0.8-1.1,1.3
			c-0.3,1.3-0.9,2.5-1.5,3.7c-0.6,1.3-1.6,2.4-2.9,3.1c-1.3,0.8-2.6,1.2-4.1,1.3c-0.5,0-1.1,0-1.5-0.1l-0.5-0.2
			c-3.2-1.7-4.2-6.4-2.9-14c0.6-4.2,1.9-8.9,3.9-14.2c1.9-5.3,4.1-9.9,6.6-14s4.6-6.3,6.6-6.6c0.8-0.2,1.5-0.2,2.3,0.2
			c0.8,0.3,1.3,0.9,1.6,1.6c0.8,1.5,0.4,4.1-0.9,7.8c-1.3,3.7-3,7.3-5.3,11.1c-2.3,3.8-4.5,7.3-6.8,10.6c-2.3,3.3-4.1,5.5-5.4,6.7
			l-0.1,0.1c-0.2,1.6-0.2,3.3,0.1,5c0.2,1.3,0.9,2,2,2.6c1.2,0.4,2.3,0.3,3.2-0.4c0.6-0.5,1.2-1.2,1.6-1.9c0.8-1.3,1.3-2.7,1.5-4.1
			c0.1-1.3-0.3-2.2-1.3-2.8c-0.5-0.4-1.1-0.8-1.6-1.2c-0.4-0.3-0.6-0.8-0.5-1.4c0.1-0.5,0.4-1,1-1.2c0.8-0.3,1.5-0.4,2.4-0.2
			c0.9,0.2,1.5,0.6,2,1.3c0.3,0.5,0.6,1.1,0.9,1.6c2.2,1.3,4.4,2.3,6.8,3c2.4,0.8,4.8,1.2,7.4,1.4c2.6,0.2,5.2-0.1,7.7-1
			c2.6-0.9,4.8-2.3,6.8-4.2C303.1,69.5,303.4,69.4,303.8,69.4z M277.9,38.3c-1,0.1-2.4,1.6-4.1,4.3c-1.7,2.7-3.4,6.3-5.3,10.6
			c-1.8,4.3-3.2,8.6-4.3,12.7c-0.1,0.2,0,0.4,0.2,0.5c0.2,0.1,0.4,0.1,0.6-0.2c2.8-3.8,5.3-7.8,7.5-11.9c1.8-3.1,3.2-6,4.2-8.4
			c1-2.5,1.6-4.2,1.8-5.3c0.2-1.1,0.2-1.8,0-2.3c0-0.1-0.2-0.2-0.4-0.2C278.2,38.3,278,38.3,277.9,38.3z"/>
		<path class="st1" d="M350.9,68.7c0.4,0,0.8,0.1,1.1,0.4c0.3,0.3,0.4,0.6,0.4,1.1s-0.1,0.8-0.4,1.1c-3.7,3.6-8.2,6.3-13.5,8.2
			c-5.4,1.9-10.2,2.9-14.7,2.9c-2.2,0.1-4.2-0.3-6.3-1.2c-0.9-0.5-1.6-1.1-2-1.6c-0.5-0.6-0.9-1.3-1-1.9s-0.2-1.3-0.2-1.9
			c0-0.5,0.1-1.2,0.3-1.9c0.2-0.8,0.4-1.3,0.6-1.7c0.2-0.4,0.4-0.9,0.8-1.5c0.1-0.2,0-0.3-0.3-0.4c-0.1,0-0.3,0.1-0.6,0.2
			c-2,1.2-4.3,1.6-6.7,1.5c-1.1,0-2-0.2-3.1-0.6c-0.4,0.1-0.8,0.1-1.1-0.1c-0.6-0.3-0.9-0.8-0.8-1.5c-0.5-0.6-1-1.4-1.2-2.4
			c-0.4-1.5-0.4-3.1,0.1-4.6c0.5-1.5,1.4-2.8,2.8-3.8c1.6-1,2.8-1,3.8-0.1c1.3,1.2,0.9,4.1-1.3,8.8c-0.1,0.2,0,0.4,0.2,0.8
			c0.2,0.3,0.4,0.4,0.6,0.4c2.2,0,4.2-0.5,6.1-1.6c0.5-0.3,1-0.5,1.4-0.8c0.3-0.1,0.8-0.2,1.4-0.2c0.6,0,1.1,0.2,1.6,0.6
			s0.8,0.9,0.8,1.5s0,1.1-0.2,1.5c-0.2,0.4-0.4,1.1-0.9,1.8c-1,1.7-1.4,3.1-1.4,4.2s0.6,1.9,1.9,2.6c0.8,0.4,1.9,0.8,3.7,0.8
			c1.7,0.1,3.7-0.1,6-0.4c2.3-0.4,4.6-1,7.1-1.7c2.5-0.8,5-1.8,7.4-3.2c2.5-1.4,4.7-3,6.6-4.8C350.2,68.9,350.5,68.7,350.9,68.7z
			 M304.8,66.1c0.6-1.4,1.2-2.9,1.6-4.5C305,62.8,304.5,64.3,304.8,66.1z"/>
		<path class="st1" d="M389.3,67.5c0.4,0,0.8,0.1,1.1,0.4c0.3,0.3,0.4,0.6,0.4,1.1c0,0.4-0.1,0.8-0.4,1c-2.3,2.3-4.8,4.2-7.7,5.7
			c-2.8,1.5-5.6,2.5-8.2,3.1c-2.7,0.5-5.2,0.9-7.7,0.9c-2.4,0-4.5-0.3-6.5-0.9c-0.2-0.1-0.4,0-0.6,0.3c-0.5,1.2-1.2,2-2.3,2.7
			c-1,0.6-2.2,1.1-3.3,1.1c-1.3,0-2.4-0.3-3.4-0.9c-1.4-0.6-2.5-1.7-3-3.1c-0.6-1.4-0.6-2.9-0.2-4.4c0.5-1.9,1.5-3.8,3.1-5.4
			s3.1-2.5,4.4-2.5h0.1c0.4,0,0.8,0.1,1.1,0.4c0.3,0.3,0.4,0.6,0.4,1.1s-0.1,0.8-0.4,1c-0.3,0.3-0.6,0.4-1.1,0.4
			c-0.6,0-1.4,0.6-2.6,1.8c-1.1,1.2-1.8,2.5-2.2,3.9c-0.3,0.9-0.3,1.6,0.1,2.5c0.3,0.9,0.9,1.4,1.7,1.7c0.6,0.5,1.4,0.8,2.3,0.6
			c0.9-0.1,1.5-0.4,2-1.1c0.8-0.9,0.9-1.4,0.4-1.7c-1.1-0.6-1.7-1.6-1.9-2.9c-0.2-1.3-0.1-2.4,0.6-3.4c1.5-2.5,2.9-3.3,4.4-2.5
			c0.8,0.4,1.2,1.3,1.4,2.5c0.2,1.2,0.2,2.6-0.1,3.9c-0.1,0.3,0,0.6,0.2,1c0.2,0.3,0.5,0.5,0.9,0.6c4.7,0.8,9.4,0.4,14-1
			c4.5-1.5,8.5-3.9,12-7.3C388.5,67.7,388.8,67.5,389.3,67.5z M358.3,74.4c0.1-0.9,0.2-1.8,0.1-2.8c-0.1,0.2-0.3,0.4-0.4,0.6
			c-0.2,0.3-0.3,0.8-0.3,1.2C357.8,73.7,358,74.2,358.3,74.4z"/>
		<path class="st1" d="M432.1,69.9c0.4,0,0.8,0.2,1,0.4c0.2,0.3,0.4,0.6,0.3,1.1c0,0.4-0.2,0.8-0.4,1c-0.3,0.3-0.8,0.6-1.3,1.2
			c-0.5,0.4-1.5,1.2-3,2.3c-1.4,1.1-2.9,2-4.3,2.9c-1.5,0.9-3.2,1.7-5.2,2.6s-3.9,1.4-5.8,1.8c-1.8,0.3-3.8,0.3-5.8,0.1
			c-2-0.3-3.9-1-5.6-2c-1.6-1-2.8-2.4-3.8-4c-0.2-0.4-0.6-0.6-1.2-0.8c-0.5,0-1,0.2-1.3,0.6c-1.3,2-2.8,3.8-4.3,5.2
			c-1.6,1.4-3,2.2-4.3,2.2H387c-0.6,0-1.3-0.2-1.9-0.6c-0.5-0.4-1-1-1.3-1.5c-1.1-2.8-1-5.6,0.5-8.3c1.3-2.6,3-4.8,5.3-6.7
			c2.3-1.8,4.7-3.1,7.7-3.8c0.5-0.1,1.1,0,1.4,0.4c0.4,0.4,0.5,0.9,0.3,1.4s-0.5,0.9-1.1,1.1c-2.4,0.5-4.5,1.6-6.4,3.1
			s-3.3,3.4-4.4,5.6c-1.1,1.8-1.3,3.7-0.5,5.7c0.2,0.4,0.4,0.5,0.5,0.5c0.6,0.4,1.8-0.8,3.8-3.6c1.8-2.8,3.6-5.7,5-8.9
			c0.3-0.6,0.9-1,1.6-0.9c0.8,0.1,1.1,0.5,1.3,1.3c0,0.2,0.1,0.4,0.1,0.8c0.1,0.3,0.2,0.9,0.4,1.7c0.2,0.9,0.5,1.6,0.9,2.4
			c0.3,0.8,0.9,1.5,1.5,2.4s1.3,1.5,2,2c1.4,1,3,1.5,4.8,1.7s3.6,0.1,5.2-0.3s3.3-1,5.2-1.8c1.8-0.9,3.3-1.6,4.7-2.5
			c1.3-0.9,2.6-1.7,3.9-2.7s2.2-1.6,2.6-2s0.9-0.8,1.1-1C431.3,70,431.6,69.8,432.1,69.9z"/>
		<path class="st1" d="M482.6,70.6c0.4,0,0.8,0.1,1.1,0.4c0.3,0.3,0.4,0.6,0.4,1.1c0,0.4-0.1,0.8-0.4,1.1c-1.7,1.7-3.7,3.2-5.8,4.6
			c-2.2,1.4-4.3,2.5-6.4,3.3c-2,0.9-4.2,1.5-6.4,2c-2.2,0.5-4.1,0.9-5.8,0.8c-1.7,0-3.3-0.2-4.7-0.5c-2-0.8-3.8-1.8-5.3-3.3
			s-2.6-3.3-3.2-5.4c-0.1-0.3-0.3-0.5-0.8-0.5c-0.3,0-0.6,0.1-0.9,0.4c-4.5,6.5-8.3,9.6-11.2,9.6c-0.2,0-0.4,0-0.5-0.1
			c-0.9-0.1-1.7-0.4-2.4-1c-0.6-0.5-1.2-1.3-1.5-2.2c-0.5-1.9-0.5-3.9,0-6.1s1.3-3.9,2.3-5.1c2.7-3.1,5.3-4.3,7.9-3.6
			c1,0.3,1.8,0.9,2.6,1.6c0.8,0.8,1.3,1.7,1.5,2.7c0,0.4-0.1,0.8-0.3,1.1c-0.2,0.3-0.5,0.5-1,0.5c-0.4,0.1-0.8,0-1.1-0.2
			s-0.5-0.5-0.6-1c-0.4-1-1.2-1.6-2.2-1.9c-1.3-0.3-2.9,0.5-4.6,2.6c-1.7,2.6-2.3,5.3-1.7,8.3c0.2,0.8,0.8,1.2,1.5,1.2
			c0.9,0.1,2.2-0.6,3.8-2.2c1.7-1.5,3.8-4,6-7.4c0.3-0.5,0.8-1.2,1.1-1.7c0.4-0.6,0.5-1.4,0.5-2.3c-0.1-2.5-0.1-5,0.1-7.3
			c0.3-3.9,1.1-7.8,2.3-11.5c1.2-3.8,2.7-7,4.6-9.6c1.8-2.6,3.8-4.1,5.8-4.3c1.1-0.2,2,0.2,2.6,1.2c0.8,1.3,0.6,3.8-0.3,7.5
			c-1,3.8-2.6,7.8-4.5,12.2c-2,4.3-4.2,8.5-6.6,12.6c-0.5,0.9-0.6,1.7-0.4,2.7c1.1,5.3,3.6,8.5,7.3,9.8c1.1,0.2,2.4,0.4,3.9,0.4
			c1.4,0,3.1-0.2,5.1-0.8c1.9-0.5,3.9-1.1,5.8-1.8c1.9-0.8,3.9-1.8,5.9-3.1c2-1.3,3.9-2.8,5.5-4.4C481.8,70.8,482.2,70.6,482.6,70.6
			z M447.6,60.7c-0.1,1,0,1.5,0.2,1.5c0.1,0,0.3-0.2,0.5-0.6c5.6-10,8.7-17.3,9.3-22.2c0-0.4-0.1-0.8-0.4-0.9
			c-0.3-0.2-0.6-0.2-1,0.1c-1.9,1.4-3.7,4.1-5.4,8.3S448,55.6,447.6,60.7z"/>
	</g>
</g>
</svg>
