<?xml version="1.0" encoding="utf-8"?>
<!-- Generator: Adobe Illustrator 27.7.0, SVG Export Plug-In . SVG Version: 6.00 Build 0)  -->
<svg version="1.1" id="Layer_1" xmlns="http://www.w3.org/2000/svg" xmlns:xlink="http://www.w3.org/1999/xlink" x="0px" y="0px"
	 viewBox="0 0 800 800" style="enable-background:new 0 0 800 800;" xml:space="preserve">
<style type="text/css">
	.st0{fill:#82B041;}
</style>
<g>
	<path class="st0" d="M622.9,381.7l-212,108.5l-10.9,5l-10.9-5l-212-108.5l-15.8,223.3c-1,15.1,6.9,22.7,17.8,15.1l84.2-54.3
		c9.9-7.6,27.7-6.3,37.7,1.3l80.2,58c9.9,7.6,27.7,7.6,37.7,0l80.2-58c9.9-7.5,27.7-8.8,38.6-1.3l83.2,54.3
		c10.9,6.3,18.8,0,17.8-15.1L622.9,381.7z"/>
	<path d="M786.3,259.3L400,62.5L13.7,259.3L96.9,301c-17.8,22.7-30.7,54.3-32.7,90.8H53.3c-7.9,0-14.9,7.6-14.9,17.7v46.7
		c0,10.1,6.9,17.7,14.9,17.7h4.9L38.5,718.6c0,10.1,6,18.9,13.9,18.9H87c7.9,0,13.9-8.8,12.9-18.9L81.1,473.8H86
		c7.9,0,13.9-7.6,13.9-17.7v-46.7c0-10.1-6-17.7-13.9-17.7h-6.9c2-34.1,14.8-64.3,32.7-83.3L400,454.8L786.3,259.3z"/>
</g>
</svg>
