<?xml version="1.0" encoding="utf-8"?>
<!-- Generator: Adobe Illustrator 27.7.0, SVG Export Plug-In . SVG Version: 6.00 Build 0)  -->
<svg version="1.1" id="register-16px" xmlns="http://www.w3.org/2000/svg" xmlns:xlink="http://www.w3.org/1999/xlink" x="0px"
	 y="0px" viewBox="0 0 800 800" style="enable-background:new 0 0 800 800;" xml:space="preserve">
<style type="text/css">
	.st0{fill:none;}
	.st1{fill:#82B041;}
</style>
<g>
	<path class="st0" d="M400,75c0-13.8-11.2-25-25-25H225c-13.8,0-25,11.2-25,25v75h200V75z"/>
	<polygon class="st0" points="400,535.4 400,600 464.6,600 739.6,325 675,260.4 	"/>
	<path class="st1" d="M575,650c-13.8,0-25,11.2-25,25v75H50V150h100v25c0,13.8,11.2,25,25,25h250c13.8,0,25-11.2,25-25v-25h100v25
		c0,13.8,11.2,25,25,25s25-11.2,25-25v-50c0-13.8-11.2-25-25-25H450V75c0-41.4-33.6-75-75-75H225c-41.4,0-75,33.6-75,75v25H25
		c-13.8,0-25,11.2-25,25v650c0,13.8,11.2,25,25,25h550c13.8,0,25-11.2,25-25V675C600,661.2,588.8,650,575,650z M200,75
		c0-13.8,11.2-25,25-25h150c13.8,0,25,11.2,25,25v75H200V75z"/>
	<path d="M792.7,307.3C792.7,307.3,792.7,307.3,792.7,307.3l-100-100c-9.8-9.8-25.6-9.8-35.4,0c0,0,0,0,0,0l-300,300
		c-4.7,4.7-7.3,11.1-7.3,17.7v100c0,13.8,11.2,25,25,25h100c6.6,0,13-2.6,17.7-7.3l300-300C802.5,332.9,802.5,317.1,792.7,307.3z
		 M464.6,600H400v-64.6l275-275l64.6,64.6L464.6,600z"/>
	<path class="st1" d="M275,450H175c-13.8,0-25,11.2-25,25s11.2,25,25,25h100c13.8,0,25-11.2,25-25S288.8,450,275,450z"/>
	<path class="st1" d="M275,600H175c-13.8,0-25,11.2-25,25s11.2,25,25,25h100c13.8,0,25-11.2,25-25S288.8,600,275,600z"/>
	<path class="st1" d="M450,325c0-13.8-11.2-25-25-25H175c-13.8,0-25,11.2-25,25s11.2,25,25,25h250C438.8,350,450,338.8,450,325z"/>
</g>
</svg>
